<svg width="67" height="40" viewBox="0 0 67 40" fill="none" xmlns="http://www.w3.org/2000/svg">
<path d="M1.53163 36.7097C1.65961 36.7097 1.77107 36.7097 1.86603 36.718C1.96098 36.7262 2.04768 36.7345 2.12612 36.7469C2.20456 36.7593 2.28712 36.7758 2.37382 36.7964L2.33666 37.0276C2.24584 37.0152 2.15914 37.007 2.08483 36.9987C2.01052 36.9946 1.92795 36.9863 1.84126 36.9822C1.75456 36.9781 1.65135 36.9739 1.53163 36.9739C1.30457 36.9739 1.12705 37.0193 0.994937 37.106C0.862828 37.1927 0.767875 37.3372 0.714206 37.5354C0.660537 37.7336 0.631638 38.006 0.631638 38.3487C0.631638 38.6913 0.660537 38.9638 0.714206 39.162C0.767875 39.3601 0.862828 39.5046 0.994937 39.5913C1.12705 39.678 1.30457 39.7234 1.53163 39.7234C1.72153 39.7234 1.88254 39.7193 2.01465 39.7111C2.14676 39.7028 2.27474 39.6863 2.40272 39.6698L2.43987 39.8968C2.31189 39.9299 2.17978 39.9546 2.04355 39.9711C1.90731 39.9877 1.73805 39.9959 1.53576 39.9959C1.23851 39.9959 0.999064 39.9422 0.821543 39.839C0.644022 39.7317 0.511914 39.5624 0.433475 39.323C0.355036 39.0835 0.313751 38.7615 0.313751 38.3569C0.313751 37.9524 0.355036 37.6303 0.433475 37.3909C0.511914 37.1515 0.644022 36.9781 0.821543 36.8749C0.999064 36.7675 1.23851 36.718 1.53576 36.718L1.53163 36.7097Z" fill="#707070"/>
<path d="M3.91371 37.6551C4.16142 37.6551 4.36371 37.6922 4.51233 37.7707C4.66095 37.8491 4.77242 37.973 4.83847 38.1422C4.90453 38.3156 4.93755 38.5427 4.93755 38.8276C4.93755 39.1124 4.90453 39.3395 4.83847 39.5129C4.77242 39.6863 4.66508 39.8101 4.51233 39.8844C4.36371 39.9629 4.16142 40 3.91371 40C3.66601 40 3.46372 39.9629 3.3151 39.8844C3.16647 39.806 3.05501 39.6821 2.98895 39.5129C2.9229 39.3436 2.88574 39.1124 2.88574 38.8276C2.88574 38.5427 2.91877 38.3156 2.98895 38.1422C3.05913 37.9689 3.16647 37.845 3.3151 37.7707C3.46372 37.6922 3.66601 37.6551 3.91371 37.6551ZM3.91371 37.9069C3.73206 37.9069 3.5917 37.9358 3.48436 37.9895C3.38115 38.0432 3.30684 38.1381 3.26143 38.2743C3.21601 38.4065 3.19537 38.5922 3.19537 38.8276C3.19537 39.0629 3.21601 39.2445 3.26143 39.3808C3.30684 39.517 3.38115 39.612 3.48436 39.6656C3.58757 39.7193 3.73206 39.7482 3.91371 39.7482C4.09536 39.7482 4.2316 39.7193 4.33894 39.6656C4.44628 39.612 4.52059 39.517 4.566 39.3808C4.61141 39.2445 4.63205 39.0629 4.63205 38.8276C4.63205 38.5922 4.61141 38.4065 4.566 38.2743C4.52059 38.1422 4.44628 38.0473 4.33894 37.9895C4.2316 37.9358 4.09123 37.9069 3.91371 37.9069Z" fill="#707070"/>
<path d="M5.84168 37.7088L5.86645 38.134L5.89122 38.2042V39.9422H5.60223V37.7088H5.84581H5.84168ZM6.89029 37.6551C7.29075 37.6551 7.49304 37.8574 7.49304 38.2661V39.9422H7.20405V38.3445C7.20405 38.1835 7.17515 38.0721 7.11323 38.006C7.0513 37.94 6.95222 37.9069 6.82011 37.9069C6.67149 37.9069 6.52286 37.9441 6.37837 38.0143C6.23388 38.0844 6.06048 38.1835 5.86232 38.3115L5.84994 38.0968C6.03159 37.9565 6.20911 37.845 6.3825 37.7707C6.55589 37.6922 6.72516 37.6551 6.89442 37.6551H6.89029Z" fill="#707070"/>
<path d="M8.54164 36.7221V37.6469C8.54577 37.7377 8.54164 37.8244 8.53751 37.9111C8.52926 37.9937 8.521 38.068 8.50861 38.1381L8.54164 38.2083V39.9464H8.25266V36.7262H8.54164V36.7221ZM9.54484 37.6551C9.9453 37.6551 10.1476 37.8574 10.1476 38.2661V39.9423H9.85447V38.3446C9.85447 38.1836 9.82557 38.0721 9.76365 38.006C9.70585 37.94 9.60677 37.907 9.47053 37.907C9.32191 37.907 9.17329 37.94 9.02466 38.0102C8.88017 38.0803 8.70678 38.1794 8.50861 38.3115L8.50036 38.0969C8.67788 37.9606 8.8554 37.8533 9.02879 37.7748C9.20219 37.6964 9.37558 37.6551 9.54484 37.6551Z" fill="#707070"/>
<path d="M11.7989 37.6551C12.1168 37.6551 12.3521 37.7129 12.5008 37.8285C12.6494 37.9441 12.7237 38.1175 12.7278 38.3487C12.7278 38.5468 12.6907 38.6996 12.6122 38.8069C12.5338 38.9143 12.3976 38.9679 12.2118 38.9679H10.9196V38.7367H12.1499C12.2613 38.7367 12.3398 38.6996 12.381 38.6253C12.4223 38.551 12.4388 38.4601 12.4347 38.3487C12.4347 38.1877 12.381 38.0762 12.282 38.006C12.1829 37.9358 12.026 37.9028 11.8113 37.9028C11.6338 37.9028 11.4934 37.9317 11.3861 37.9854C11.2829 38.039 11.2086 38.134 11.1632 38.262C11.1219 38.3941 11.0971 38.5716 11.0971 38.7945C11.0971 39.0422 11.1219 39.2363 11.1756 39.3725C11.2292 39.5087 11.3118 39.6037 11.4233 39.6574C11.5347 39.711 11.6875 39.7399 11.8691 39.7399C11.9971 39.7399 12.1333 39.7358 12.2737 39.7234C12.4141 39.711 12.5338 39.6986 12.6411 39.6863L12.6742 39.8844C12.6081 39.9092 12.5297 39.9298 12.4265 39.9463C12.3274 39.9629 12.2242 39.9752 12.1168 39.9835C12.0095 39.9918 11.9145 39.9959 11.832 39.9959C11.5801 39.9959 11.3778 39.9587 11.2251 39.8803C11.0723 39.8019 10.9609 39.678 10.8907 39.5046C10.8205 39.3312 10.7834 39.1042 10.7834 38.8193C10.7834 38.5344 10.8164 38.2991 10.8866 38.1299C10.9567 37.9606 11.0641 37.8409 11.2127 37.7666C11.3613 37.6922 11.5512 37.6551 11.7866 37.6551H11.7989Z" fill="#707070"/>
<path d="M14.2966 37.6551C14.3586 37.6551 14.4287 37.6551 14.5072 37.6633C14.5856 37.6716 14.6682 37.6799 14.7508 37.6923C14.8333 37.7046 14.9118 37.7253 14.9819 37.75L14.9407 37.9441C14.8457 37.9317 14.7425 37.9234 14.6269 37.9152C14.5113 37.9111 14.4164 37.9069 14.342 37.9069C14.148 37.9069 13.9953 37.9358 13.8797 37.9895C13.7641 38.0432 13.6815 38.1381 13.632 38.2702C13.5824 38.4023 13.5576 38.5881 13.5576 38.8234C13.5576 39.0587 13.5824 39.2445 13.632 39.3808C13.6815 39.517 13.7641 39.612 13.8797 39.6656C13.9953 39.7193 14.148 39.7482 14.342 39.7482C14.3875 39.7482 14.4494 39.7482 14.5196 39.7441C14.5897 39.7399 14.6723 39.7358 14.7549 39.7317C14.8374 39.7275 14.9159 39.7152 14.9902 39.7028L15.0274 39.9009C14.9159 39.934 14.7962 39.9587 14.6723 39.9752C14.5443 39.9918 14.4164 40 14.2925 40C14.0407 40 13.8384 39.9629 13.6856 39.8844C13.5329 39.806 13.4214 39.6821 13.3512 39.5129C13.281 39.3436 13.248 39.1124 13.248 38.8234C13.248 38.5344 13.281 38.3115 13.3512 38.1381C13.4214 37.9647 13.5329 37.8409 13.6856 37.7666C13.8384 37.6922 14.0448 37.6551 14.2966 37.6551Z" fill="#707070"/>
<path d="M15.8241 36.7716C15.8902 36.7716 15.9191 36.8046 15.9191 36.8666V37.139C15.9191 37.2051 15.886 37.234 15.8241 37.234H15.6879C15.6218 37.234 15.5929 37.201 15.5929 37.139V36.8666C15.5929 36.8005 15.626 36.7716 15.6879 36.7716H15.8241ZM15.8984 37.7088V39.9422H15.6136V37.7088H15.8984Z" fill="#707070"/>
<path d="M16.9305 37.7088L16.9553 38.134L16.9842 38.2042V39.9422H16.6952V37.7088H16.9347H16.9305ZM17.8883 37.6551C18.0741 37.6551 18.2186 37.7046 18.3218 37.8078C18.425 37.9111 18.4746 38.0638 18.4746 38.2661V39.9422H18.1938V38.3445C18.1938 38.1877 18.1608 38.0762 18.0947 38.0101C18.0287 37.9441 17.9296 37.9069 17.7975 37.9069C17.7108 37.9069 17.6282 37.9193 17.5457 37.9482C17.4631 37.9771 17.3764 38.0184 17.2815 38.0803C17.1865 38.1381 17.075 38.2166 16.9471 38.3115L16.9305 38.101C17.0957 37.9523 17.2567 37.8409 17.4136 37.7666C17.5704 37.6922 17.7273 37.6551 17.8883 37.6551ZM19.3828 37.6551C19.5727 37.6551 19.7172 37.7088 19.8204 37.812C19.9236 37.9152 19.9732 38.0679 19.9732 38.2661V39.9422H19.6842V38.3445C19.6842 38.1959 19.647 38.0844 19.5892 38.0143C19.5273 37.9441 19.4282 37.9069 19.292 37.9069C19.2012 37.9069 19.1186 37.9234 19.036 37.9523C18.9535 37.9812 18.8668 38.0266 18.7759 38.0844C18.6851 38.1422 18.5736 38.2207 18.4498 38.3115L18.4333 38.101C18.5984 37.9523 18.7594 37.8409 18.9204 37.7666C19.0773 37.6922 19.2342 37.6551 19.3911 37.6551H19.3828Z" fill="#707070"/>
<path d="M21.6121 37.6551C21.93 37.6551 22.1653 37.7129 22.314 37.8285C22.4626 37.9441 22.5369 38.1175 22.541 38.3487C22.541 38.5468 22.5039 38.6996 22.4254 38.8069C22.347 38.9143 22.2108 38.9679 22.025 38.9679H20.7328V38.7367H21.9631C22.0745 38.7367 22.153 38.6996 22.1942 38.6253C22.2355 38.551 22.252 38.4601 22.2479 38.3487C22.2479 38.1877 22.1942 38.0762 22.0952 38.006C21.9961 37.9358 21.8392 37.9028 21.6245 37.9028C21.447 37.9028 21.3066 37.9317 21.1993 37.9854C21.0961 38.039 21.0218 38.134 20.9764 38.262C20.9351 38.3941 20.9103 38.5716 20.9103 38.7945C20.9103 39.0422 20.9351 39.2363 20.9888 39.3725C21.0424 39.5087 21.125 39.6037 21.2365 39.6574C21.3479 39.711 21.5007 39.7399 21.6823 39.7399C21.8103 39.7399 21.9465 39.7358 22.0869 39.7234C22.2273 39.711 22.347 39.6986 22.4543 39.6863L22.4874 39.8844C22.4213 39.9092 22.3429 39.9298 22.2397 39.9463C22.1406 39.9629 22.0374 39.9752 21.93 39.9835C21.8227 39.9918 21.7277 39.9959 21.6452 39.9959C21.3933 39.9959 21.191 39.9587 21.0383 39.8803C20.8855 39.8019 20.7741 39.678 20.7039 39.5046C20.6337 39.3312 20.5966 39.1042 20.5966 38.8193C20.5966 38.5344 20.6296 38.2991 20.6998 38.1299C20.77 37.9606 20.8773 37.8409 21.0259 37.7666C21.1745 37.6922 21.3644 37.6551 21.5998 37.6551H21.6121Z" fill="#707070"/>
<path d="M23.4245 37.7088L23.4493 38.134L23.474 38.2042V39.9422H23.1851V37.7088H23.4286H23.4245ZM24.4731 37.6551C24.8736 37.6551 25.0759 37.8574 25.0759 38.2661V39.9422H24.7869V38.3445C24.7869 38.1835 24.758 38.0721 24.696 38.006C24.6341 37.94 24.535 37.9069 24.4029 37.9069C24.2543 37.9069 24.1057 37.9441 23.9612 38.0143C23.8167 38.0844 23.6433 38.1835 23.4451 38.3115L23.4328 38.0968C23.6144 37.9565 23.7919 37.845 23.9653 37.7707C24.1387 37.6922 24.308 37.6551 24.4772 37.6551H24.4731Z" fill="#707070"/>
<path d="M27.0327 37.7088V37.9482H25.5836V37.7335L26.0213 37.7088H27.0327ZM26.2772 37.0358V39.3849C26.2772 39.5005 26.302 39.583 26.3598 39.6326C26.4135 39.6863 26.496 39.711 26.6075 39.711H26.9708L27.0079 39.9257C26.9625 39.9381 26.9089 39.9463 26.8511 39.9546C26.7933 39.9629 26.7355 39.967 26.6777 39.9711C26.624 39.9711 26.5786 39.9752 26.5456 39.9752C26.3639 39.9752 26.2277 39.9257 26.1327 39.8308C26.0378 39.7358 25.9924 39.5996 25.9924 39.4179V37.0358H26.2813H26.2772Z" fill="#707070"/>
<path d="M28.4487 37.6551C28.6964 37.6551 28.8987 37.6922 29.0474 37.7707C29.196 37.8491 29.3074 37.973 29.3735 38.1422C29.4396 38.3156 29.4726 38.5427 29.4726 38.8276C29.4726 39.1124 29.4396 39.3395 29.3735 39.5129C29.3074 39.6863 29.2001 39.8101 29.0474 39.8844C28.8987 39.9629 28.6964 40 28.4487 40C28.201 40 27.9987 39.9629 27.8501 39.8844C27.7015 39.806 27.59 39.6821 27.524 39.5129C27.4579 39.3436 27.4208 39.1124 27.4208 38.8276C27.4208 38.5427 27.4538 38.3156 27.524 38.1422C27.5942 37.9689 27.7015 37.845 27.8501 37.7707C27.9987 37.6922 28.201 37.6551 28.4487 37.6551ZM28.4487 37.9069C28.2671 37.9069 28.1267 37.9358 28.0194 37.9895C27.9162 38.0432 27.8419 38.1381 27.7965 38.2743C27.751 38.4065 27.7304 38.5922 27.7304 38.8276C27.7304 39.0629 27.751 39.2445 27.7965 39.3808C27.8419 39.517 27.9162 39.612 28.0194 39.6656C28.1226 39.7193 28.2671 39.7482 28.4487 39.7482C28.6304 39.7482 28.7666 39.7193 28.874 39.6656C28.9813 39.612 29.0556 39.517 29.101 39.3808C29.1464 39.2445 29.1671 39.0629 29.1671 38.8276C29.1671 38.5922 29.1464 38.4065 29.101 38.2743C29.0556 38.1422 28.9813 38.0473 28.874 37.9895C28.7666 37.9358 28.6263 37.9069 28.4487 37.9069Z" fill="#707070"/>
<path d="M32.2592 36.7675C32.2881 36.7675 32.3129 36.7758 32.3336 36.7923C32.3583 36.8088 32.3707 36.8294 32.379 36.8583L33.4441 39.9464H33.1303L32.2386 37.267C32.2262 37.2258 32.2138 37.1804 32.1973 37.1349C32.1808 37.0895 32.1684 37.0482 32.156 37.007H32.0239C32.0115 37.0482 31.9992 37.0895 31.9868 37.1349C31.9744 37.1804 31.9579 37.2216 31.9414 37.267L31.0496 39.9464H30.7359L31.801 36.8583C31.8093 36.8294 31.8258 36.8088 31.8464 36.7923C31.867 36.7758 31.8918 36.7675 31.9207 36.7675H32.2675H32.2592ZM32.8909 38.6253V38.8895H31.2808V38.6253H32.8909Z" fill="#707070"/>
<path d="M34.1707 36.7221V37.6138C34.1707 37.7088 34.1707 37.7914 34.1666 37.8657C34.1666 37.94 34.1542 38.0143 34.1377 38.0927L34.1666 38.1629V39.8556L33.8817 39.8432V36.7221H34.1707ZM35.0253 37.6551C35.306 37.6551 35.5124 37.746 35.6404 37.9235C35.7684 38.101 35.8303 38.4024 35.8303 38.8235C35.8303 39.0216 35.8138 39.195 35.7808 39.3436C35.7478 39.4923 35.6941 39.612 35.6239 39.7111C35.5496 39.806 35.4505 39.8803 35.3308 39.9257C35.2069 39.9753 35.0542 39.9959 34.8767 39.9959C34.7982 39.9959 34.7198 39.9959 34.6331 39.9877C34.5505 39.9794 34.4638 39.9712 34.3771 39.9588C34.2904 39.9464 34.2079 39.9299 34.1212 39.9092C34.0386 39.8927 33.956 39.8679 33.8776 39.839L34.1129 39.6409C34.2037 39.6657 34.2946 39.6863 34.3813 39.7028C34.468 39.7193 34.5505 39.7317 34.629 39.7358C34.7074 39.74 34.79 39.7441 34.8684 39.7441C35.0294 39.7441 35.1574 39.7152 35.2523 39.6574C35.3473 39.5996 35.4175 39.5005 35.4629 39.3684C35.5042 39.2322 35.529 39.0505 35.529 38.8235C35.529 38.5964 35.5124 38.4189 35.4753 38.2868C35.4381 38.1547 35.3803 38.0556 35.2936 37.9978C35.2069 37.94 35.0872 37.9111 34.9345 37.9111C34.8065 37.9111 34.6785 37.9482 34.5588 38.0184C34.4391 38.0886 34.2987 38.1877 34.1377 38.3157L34.1212 38.1092C34.2202 38.0102 34.3193 37.9276 34.4143 37.8615C34.5134 37.7955 34.6124 37.7459 34.7157 37.7088C34.8189 37.6716 34.9221 37.6551 35.0253 37.6551Z" fill="#707070"/>
<path d="M37.3826 37.6551C37.7005 37.6551 37.9358 37.7129 38.0844 37.8285C38.233 37.9441 38.3073 38.1175 38.3115 38.3487C38.3115 38.5468 38.2743 38.6996 38.1959 38.8069C38.1174 38.9143 37.9812 38.9679 37.7954 38.9679H36.5032V38.7367H37.7335C37.845 38.7367 37.9234 38.6996 37.9647 38.6253C38.006 38.551 38.0225 38.4601 38.0184 38.3487C38.0184 38.1877 37.9647 38.0762 37.8656 38.006C37.7665 37.9358 37.6097 37.9028 37.395 37.9028C37.2175 37.9028 37.0771 37.9317 36.9697 37.9854C36.8665 38.039 36.7922 38.134 36.7468 38.262C36.7055 38.3941 36.6808 38.5716 36.6808 38.7945C36.6808 39.0422 36.7055 39.2363 36.7592 39.3725C36.8129 39.5087 36.8954 39.6037 37.0069 39.6574C37.1184 39.711 37.2711 39.7399 37.4528 39.7399C37.5808 39.7399 37.717 39.7358 37.8574 39.7234C37.9977 39.711 38.1174 39.6986 38.2248 39.6863L38.2578 39.8844C38.1918 39.9092 38.1133 39.9298 38.0101 39.9463C37.911 39.9629 37.8078 39.9752 37.7005 39.9835C37.5931 39.9918 37.4982 39.9959 37.4156 39.9959C37.1638 39.9959 36.9615 39.9587 36.8087 39.8803C36.656 39.8019 36.5445 39.678 36.4743 39.5046C36.4042 39.3312 36.367 39.1042 36.367 38.8193C36.367 38.5344 36.4 38.2991 36.4702 38.1299C36.5404 37.9606 36.6477 37.8409 36.7964 37.7666C36.945 37.6922 37.1349 37.6551 37.3702 37.6551H37.3826Z" fill="#707070"/>
<path d="M39.1702 37.7088L39.2074 38.134L39.2363 38.2042V39.9422H38.9473V37.7088H39.1743H39.1702ZM40.2849 37.6551L40.2477 37.9317H40.1362C39.9918 37.9317 39.8514 37.9647 39.711 38.0266C39.5706 38.0886 39.4014 38.1794 39.2074 38.295L39.1826 38.101C39.356 37.9647 39.5252 37.8533 39.6945 37.7748C39.8638 37.6964 40.0289 37.6551 40.1858 37.6551H40.2807H40.2849Z" fill="#707070"/>
<path d="M41.961 37.7088V37.9482H40.5119V37.7335L40.9495 37.7088H41.961ZM41.2055 37.0358V39.3849C41.2055 39.5005 41.2302 39.583 41.288 39.6326C41.3417 39.6863 41.4243 39.711 41.5357 39.711H41.899L41.9362 39.9257C41.8908 39.9381 41.8371 39.9463 41.7793 39.9546C41.7215 39.9629 41.6637 39.967 41.6059 39.9711C41.5523 39.9711 41.5068 39.9752 41.4738 39.9752C41.2922 39.9752 41.1559 39.9257 41.061 39.8308C40.966 39.7358 40.9206 39.5996 40.9206 39.4179V37.0358H41.2096H41.2055Z" fill="#707070"/>
<path d="M43.377 37.6551C43.6247 37.6551 43.827 37.6922 43.9756 37.7707C44.1243 37.8491 44.2357 37.973 44.3018 38.1422C44.3678 38.3156 44.4009 38.5427 44.4009 38.8276C44.4009 39.1124 44.3678 39.3395 44.3018 39.5129C44.2357 39.6863 44.1284 39.8101 43.9756 39.8844C43.827 39.9629 43.6247 40 43.377 40C43.1293 40 42.927 39.9629 42.7784 39.8844C42.6298 39.806 42.5183 39.6821 42.4523 39.5129C42.3862 39.3436 42.3491 39.1124 42.3491 38.8276C42.3491 38.5427 42.3821 38.3156 42.4523 38.1422C42.5225 37.9689 42.6298 37.845 42.7784 37.7707C42.927 37.6922 43.1293 37.6551 43.377 37.6551ZM43.377 37.9069C43.1954 37.9069 43.055 37.9358 42.9477 37.9895C42.8445 38.0432 42.7702 38.1381 42.7247 38.2743C42.6793 38.4065 42.6587 38.5922 42.6587 38.8276C42.6587 39.0629 42.6793 39.2445 42.7247 39.3808C42.7702 39.517 42.8445 39.612 42.9477 39.6656C43.0509 39.7193 43.1954 39.7482 43.377 39.7482C43.5587 39.7482 43.6949 39.7193 43.8023 39.6656C43.9096 39.612 43.9839 39.517 44.0293 39.3808C44.0747 39.2445 44.0954 39.0629 44.0954 38.8276C44.0954 38.5922 44.0747 38.4065 44.0293 38.2743C43.9839 38.1422 43.9096 38.0473 43.8023 37.9895C43.6949 37.9358 43.5545 37.9069 43.377 37.9069Z" fill="#707070"/>
<path d="M46.9853 37.6551C47.3031 37.6551 47.5385 37.7129 47.6871 37.8285C47.8357 37.9441 47.91 38.1175 47.9141 38.3487C47.9141 38.5468 47.877 38.6996 47.7985 38.8069C47.7201 38.9143 47.5839 38.9679 47.3981 38.9679H46.1059V38.7367H47.3362C47.4476 38.7367 47.5261 38.6996 47.5674 38.6253C47.6086 38.551 47.6251 38.4601 47.621 38.3487C47.621 38.1877 47.5674 38.0762 47.4683 38.006C47.3692 37.9358 47.2123 37.9028 46.9976 37.9028C46.8201 37.9028 46.6798 37.9317 46.5724 37.9854C46.4692 38.039 46.3949 38.134 46.3495 38.262C46.3082 38.3941 46.2834 38.5716 46.2834 38.7945C46.2834 39.0422 46.3082 39.2363 46.3619 39.3725C46.4155 39.5087 46.4981 39.6037 46.6096 39.6574C46.721 39.711 46.8738 39.7399 47.0554 39.7399C47.1834 39.7399 47.3196 39.7358 47.46 39.7234C47.6004 39.711 47.7201 39.6986 47.8274 39.6863L47.8605 39.8844C47.7944 39.9092 47.716 39.9298 47.6128 39.9463C47.5137 39.9629 47.4105 39.9752 47.3031 39.9835C47.1958 39.9918 47.1008 39.9959 47.0183 39.9959C46.7664 39.9959 46.5642 39.9587 46.4114 39.8803C46.2587 39.8019 46.1472 39.678 46.077 39.5046C46.0068 39.3312 45.9697 39.1042 45.9697 38.8193C45.9697 38.5344 46.0027 38.2991 46.0729 38.1299C46.1431 37.9606 46.2504 37.8409 46.399 37.7666C46.5476 37.6922 46.7375 37.6551 46.9729 37.6551H46.9853Z" fill="#707070"/>
<path d="M48.7893 37.7088L48.8141 38.134L48.843 38.2042V39.9422H48.554V37.7088H48.7935H48.7893ZM49.7471 37.6551C49.9329 37.6551 50.0774 37.7046 50.1806 37.8078C50.2838 37.9111 50.3334 38.0638 50.3334 38.2661V39.9422H50.0526V38.3445C50.0526 38.1877 50.0196 38.0762 49.9535 38.0101C49.8875 37.9441 49.7884 37.9069 49.6563 37.9069C49.5696 37.9069 49.487 37.9193 49.4045 37.9482C49.3219 37.9771 49.2352 38.0184 49.1402 38.0803C49.0453 38.1381 48.9338 38.2166 48.8058 38.3115L48.7893 38.101C48.9545 37.9523 49.1155 37.8409 49.2724 37.7666C49.4292 37.6922 49.5861 37.6551 49.7471 37.6551ZM51.2416 37.6551C51.4315 37.6551 51.576 37.7088 51.6792 37.812C51.7824 37.9152 51.832 38.0679 51.832 38.2661V39.9422H51.543V38.3445C51.543 38.1959 51.5058 38.0844 51.448 38.0143C51.3861 37.9441 51.287 37.9069 51.1508 37.9069C51.0599 37.9069 50.9774 37.9234 50.8948 37.9523C50.8122 37.9812 50.7255 38.0266 50.6347 38.0844C50.5439 38.1422 50.4324 38.2207 50.3086 38.3115L50.2921 38.101C50.4572 37.9523 50.6182 37.8409 50.7792 37.7666C50.9361 37.6922 51.093 37.6551 51.2499 37.6551H51.2416Z" fill="#707070"/>
<path d="M54.5113 36.7097C54.6599 36.7097 54.8127 36.7221 54.9654 36.7345C55.1182 36.7469 55.2709 36.7675 55.4237 36.7923L55.3989 37.0152C55.2626 37.007 55.1182 36.9987 54.9654 36.9904C54.8127 36.9863 54.664 36.9822 54.5195 36.9822C54.3957 36.9822 54.2842 36.9863 54.1934 36.9946C54.1026 37.0028 54.0283 37.0235 53.9705 37.0606C53.9127 37.0937 53.8714 37.1515 53.8425 37.2258C53.8177 37.3042 53.8053 37.4115 53.8053 37.5478C53.8053 37.7459 53.8384 37.8822 53.9085 37.9647C53.9746 38.0473 54.0861 38.101 54.2429 38.134L54.9117 38.2702C55.1512 38.3198 55.3163 38.4147 55.4113 38.551C55.5062 38.6872 55.5516 38.8854 55.5516 39.1413C55.5516 39.3271 55.531 39.4799 55.4856 39.5913C55.4443 39.7028 55.3782 39.7895 55.2957 39.8473C55.2131 39.9051 55.1058 39.9464 54.9778 39.967C54.8498 39.9877 54.6971 40 54.5237 40C54.4122 40 54.276 39.9959 54.115 39.9877C53.954 39.9794 53.7682 39.9588 53.5576 39.9216L53.5824 39.6987C53.7393 39.7028 53.8714 39.7111 53.9746 39.7152C54.0819 39.7193 54.1769 39.7234 54.2636 39.7234C54.3503 39.7234 54.4411 39.7234 54.5361 39.7234C54.7136 39.7234 54.8539 39.7069 54.9613 39.678C55.0645 39.6491 55.1388 39.5955 55.1842 39.5129C55.2296 39.4303 55.2503 39.3023 55.2503 39.1372C55.2503 39.001 55.2338 38.8895 55.2049 38.8111C55.176 38.7326 55.1264 38.6748 55.0604 38.6335C54.9943 38.5923 54.9076 38.5634 54.8044 38.5427L54.1273 38.3982C53.9003 38.3528 53.7393 38.2579 53.6485 38.1216C53.5535 37.9813 53.5081 37.7914 53.5081 37.5437C53.5081 37.3579 53.5287 37.2051 53.57 37.0937C53.6113 36.9822 53.6732 36.8996 53.7558 36.8418C53.8384 36.7882 53.9416 36.751 54.0654 36.7345C54.1893 36.718 54.342 36.7097 54.5113 36.7097Z" fill="#707070"/>
<path d="M57.7975 38.5799V38.8028L56.7035 38.8111C56.5879 38.8111 56.5012 38.8441 56.4475 38.906C56.3938 38.9638 56.3649 39.0505 56.3649 39.1579V39.3519C56.3649 39.4757 56.398 39.5707 56.4599 39.6326C56.5259 39.6946 56.6209 39.7235 56.753 39.7235C56.8521 39.7235 56.9594 39.7111 57.0791 39.6739C57.1989 39.6368 57.3145 39.5831 57.4301 39.5129C57.5457 39.4427 57.6489 39.3602 57.7397 39.2652V39.4923C57.7025 39.5377 57.6489 39.5872 57.5828 39.645C57.5126 39.6987 57.4342 39.7524 57.3434 39.806C57.2525 39.8597 57.1535 39.901 57.0461 39.934C56.9388 39.967 56.8232 39.9835 56.7076 39.9835C56.5796 39.9835 56.4681 39.9588 56.3732 39.9134C56.2782 39.8679 56.2039 39.7978 56.1503 39.7069C56.0966 39.6161 56.0677 39.5046 56.0677 39.3767V39.1207C56.0677 38.9473 56.1172 38.8152 56.2204 38.7244C56.3236 38.6294 56.4681 38.584 56.6539 38.584H57.7934L57.7975 38.5799ZM57.236 37.6551C57.3888 37.6551 57.5209 37.6758 57.6241 37.7212C57.7314 37.7666 57.8099 37.8368 57.8677 37.9359C57.9213 38.0349 57.9502 38.1712 57.9502 38.3404V39.9423H57.719L57.6736 39.4551L57.6571 39.4138V38.3404C57.6571 38.2001 57.6241 38.0927 57.558 38.0184C57.492 37.9441 57.3681 37.907 57.1824 37.907C57.0461 37.907 56.8892 37.9152 56.7117 37.9235C56.5342 37.9317 56.3608 37.9524 56.1915 37.9689L56.1626 37.7542C56.2658 37.7377 56.3773 37.7212 56.4929 37.7047C56.6085 37.6923 56.7324 37.6799 56.8562 37.6675C56.9801 37.6551 57.108 37.651 57.2319 37.651L57.236 37.6551Z" fill="#707070"/>
<path d="M58.9782 37.7088V39.3106C58.9782 39.4633 59.0071 39.5748 59.0732 39.6409C59.1392 39.7069 59.2424 39.7441 59.3869 39.7441C59.5314 39.7441 59.6594 39.711 59.7957 39.6409C59.9278 39.5748 60.0888 39.4757 60.2787 39.3519L60.3117 39.5624C60.1342 39.7069 59.9608 39.8143 59.7957 39.8886C59.6305 39.9629 59.4613 40 59.292 40C58.8915 40 58.6892 39.7977 58.6892 39.389V37.7088H58.9782ZM60.0846 36.5693L60.258 36.7964L59.4406 37.3826L59.3291 37.2464L60.0846 36.5735V36.5693ZM60.5346 37.7088V39.9422H60.3034L60.2745 39.5253L60.2415 39.4551V37.7129H60.5305L60.5346 37.7088Z" fill="#707070"/>
<path d="M62.0373 37.6551C62.186 37.6551 62.3305 37.6757 62.4791 37.7129C62.6277 37.7542 62.7722 37.812 62.9126 37.8863L62.9002 38.0803C62.7392 38.0267 62.5988 37.9854 62.4791 37.9565C62.3594 37.9276 62.2314 37.9111 62.0993 37.9111C61.9589 37.9111 61.8433 37.94 61.7566 37.9936C61.6699 38.0473 61.6039 38.1381 61.5667 38.2702C61.5254 38.4023 61.5089 38.584 61.5089 38.8193C61.5089 39.0546 61.5296 39.2363 61.5667 39.3684C61.608 39.5005 61.6699 39.5954 61.7525 39.6532C61.8351 39.711 61.9465 39.7399 62.0828 39.7399C62.1777 39.7399 62.2644 39.7276 62.3429 39.7028C62.4213 39.678 62.5039 39.6326 62.5947 39.5748C62.6855 39.517 62.7846 39.4427 62.9043 39.3601L62.9291 39.5831C62.7928 39.7069 62.6442 39.806 62.4915 39.8844C62.3387 39.9629 62.1736 40 62.0043 40C61.7236 40 61.5213 39.9051 61.3975 39.711C61.2736 39.5211 61.2117 39.2239 61.2117 38.8234C61.2117 38.5344 61.2406 38.3074 61.3025 38.134C61.3603 37.9647 61.4511 37.8409 61.575 37.7666C61.6947 37.6923 61.8516 37.6551 62.0456 37.6551H62.0373ZM63.152 36.7221V39.9422H62.925L62.8878 39.55L62.8589 39.5211V37.9812L62.8837 37.9111C62.8713 37.8244 62.863 37.7459 62.863 37.6716C62.863 37.5973 62.863 37.5189 62.863 37.4322V36.718H63.152V36.7221Z" fill="#707070"/>
<path d="M64.8158 37.6551C65.1336 37.6551 65.369 37.7129 65.5176 37.8285C65.6662 37.9441 65.7405 38.1175 65.7446 38.3487C65.7446 38.5468 65.7075 38.6996 65.6291 38.8069C65.5506 38.9143 65.4144 38.9679 65.2286 38.9679H63.9364V38.7367H65.1667C65.2781 38.7367 65.3566 38.6996 65.3979 38.6253C65.4391 38.551 65.4557 38.4601 65.4515 38.3487C65.4515 38.1877 65.3979 38.0762 65.2988 38.006C65.1997 37.9358 65.0428 37.9028 64.8281 37.9028C64.6506 37.9028 64.5103 37.9317 64.4029 37.9854C64.2997 38.039 64.2254 38.134 64.18 38.262C64.1387 38.3941 64.1139 38.5716 64.1139 38.7945C64.1139 39.0422 64.1387 39.2363 64.1924 39.3725C64.246 39.5087 64.3286 39.6037 64.4401 39.6574C64.5515 39.711 64.7043 39.7399 64.8859 39.7399C65.0139 39.7399 65.1502 39.7358 65.2905 39.7234C65.4309 39.711 65.5506 39.6986 65.6579 39.6863L65.691 39.8844C65.6249 39.9092 65.5465 39.9298 65.4433 39.9463C65.3442 39.9629 65.241 39.9752 65.1336 39.9835C65.0263 39.9918 64.9314 39.9959 64.8488 39.9959C64.597 39.9959 64.3947 39.9587 64.2419 39.8803C64.0892 39.8019 63.9777 39.678 63.9075 39.5046C63.8373 39.3312 63.8002 39.1042 63.8002 38.8193C63.8002 38.5344 63.8332 38.2991 63.9034 38.1299C63.9736 37.9606 64.0809 37.8409 64.2295 37.7666C64.3781 37.6922 64.5681 37.6551 64.8034 37.6551H64.8158Z" fill="#707070"/>
<path d="M40.4954 26.6034C39.905 26.3722 39.1206 26.1369 38.1628 25.9098C37.4321 25.7405 36.85 25.5837 36.4289 25.435C36.0243 25.2905 35.6817 25.0883 35.4133 24.8364C35.1574 24.5928 35.0335 24.2832 35.0335 23.8869C35.0335 23.2883 35.3019 22.83 35.8551 22.4956C36.4248 22.1488 37.1844 21.9754 38.1051 21.9754C39.0876 21.9754 40.0495 22.1365 40.966 22.4543C41.1064 22.5121 41.2179 22.5369 41.3128 22.5369C41.577 22.5369 41.7917 22.4378 41.9568 22.2479C42.1137 22.0621 42.1922 21.8516 42.1922 21.6245C42.1922 21.1993 41.9816 20.8979 41.5853 20.7576C40.4995 20.353 39.2651 20.1507 37.9275 20.1507C36.9202 20.1507 36.0409 20.3241 35.3184 20.6626C34.5877 21.0053 34.0262 21.4759 33.6505 22.058C33.2748 22.6442 33.0808 23.3007 33.0808 24.0149C33.0808 24.8364 33.312 25.5052 33.7744 26.0048C34.2244 26.4919 34.7652 26.8593 35.3886 27.1029C35.9954 27.3382 36.8005 27.5901 37.7789 27.8419C38.5055 28.0318 39.0752 28.2011 39.4716 28.3373C39.8472 28.4694 40.1693 28.6511 40.4252 28.8781C40.6647 29.0928 40.7803 29.3488 40.7803 29.6708C40.7803 30.9712 39.7936 31.6029 37.7624 31.6029C36.5198 31.6029 35.339 31.3593 34.2533 30.8721C34.1253 30.8143 33.989 30.7854 33.8487 30.7854C33.5886 30.7854 33.3698 30.8763 33.2005 31.062C33.0354 31.2396 32.9528 31.4584 32.9528 31.7019C32.9528 31.8918 33.0106 32.0694 33.1262 32.2345C33.2377 32.3955 33.3822 32.5152 33.5556 32.5854C34.9097 33.1716 36.3794 33.4689 37.9275 33.4689C38.8606 33.4689 39.6986 33.312 40.417 33.0024C41.1394 32.6928 41.7091 32.251 42.1096 31.6937C42.5142 31.1322 42.7165 30.4882 42.7165 29.7822C42.7165 28.9277 42.4935 28.2341 42.0559 27.7263C41.6266 27.2268 41.0981 26.8511 40.4913 26.6158L40.4954 26.6034Z" fill="#707070"/>
<path d="M53.8219 20.2333C53.5494 20.2333 53.3182 20.3324 53.1324 20.5264C52.9466 20.7163 52.8558 20.9516 52.8558 21.22V28.4323C52.8558 29.1217 52.6948 29.7162 52.381 30.1951C52.0673 30.674 51.6462 31.0414 51.1301 31.2809C50.61 31.5244 50.0444 31.6483 49.454 31.6483C48.8637 31.6483 48.2981 31.5244 47.7779 31.2809C47.2618 31.0414 46.8407 30.674 46.527 30.1951C46.2132 29.7162 46.0522 29.1217 46.0522 28.4323V21.22C46.0522 20.9475 45.9531 20.7163 45.7632 20.5223C45.5733 20.3282 45.338 20.2333 45.0655 20.2333C44.7931 20.2333 44.5619 20.3324 44.3761 20.5264C44.1903 20.7163 44.0995 20.9516 44.0995 21.22V28.3786C44.0995 29.4809 44.3637 30.4263 44.888 31.19C45.4082 31.9538 46.0894 32.5276 46.9068 32.8992C47.7201 33.2707 48.5788 33.4565 49.454 33.4565C50.3292 33.4565 51.1879 33.2707 52.0012 32.8992C52.8187 32.5276 53.4998 31.9497 54.02 31.19C54.5443 30.4263 54.8085 29.4768 54.8085 28.3786V21.22C54.8085 20.9475 54.7095 20.7163 54.5196 20.5223C54.3255 20.3282 54.0943 20.2333 53.8219 20.2333Z" fill="#707070"/>
<path d="M65.369 27.7139C64.9396 27.2144 64.4112 26.8387 63.8043 26.6034C63.214 26.3722 62.4296 26.1369 61.4718 25.9098C60.7411 25.7405 60.159 25.5837 59.7379 25.435C59.3333 25.2905 58.9906 25.0883 58.7223 24.8364C58.4663 24.5928 58.3425 24.2832 58.3425 23.8869C58.3425 23.2883 58.6108 22.83 59.164 22.4956C59.7337 22.1488 60.4934 21.9754 61.414 21.9754C62.3965 21.9754 63.3585 22.1365 64.275 22.4543C64.4153 22.5121 64.5268 22.5369 64.6217 22.5369C64.886 22.5369 65.1006 22.4378 65.2658 22.2479C65.4227 22.0621 65.5011 21.8516 65.5011 21.6245C65.5011 21.1993 65.2905 20.8979 64.8942 20.7576C63.8084 20.353 62.5741 20.1507 61.2365 20.1507C60.2291 20.1507 59.3498 20.3241 58.6273 20.6626C57.8966 21.0053 57.3351 21.4759 56.9594 22.058C56.5838 22.6442 56.3897 23.3007 56.3897 24.0149C56.3897 24.8364 56.6209 25.5052 57.0833 26.0048C57.5333 26.4919 58.0741 26.8593 58.6975 27.1029C59.3044 27.3382 60.1094 27.5901 61.0878 27.8419C61.8144 28.0318 62.3842 28.2011 62.7805 28.3373C63.1562 28.4694 63.4782 28.6511 63.7341 28.8781C63.9736 29.0928 64.0892 29.3488 64.0892 29.6708C64.0892 30.9712 63.1025 31.6029 61.0713 31.6029C59.8287 31.6029 58.648 31.3593 57.5622 30.8721C57.4342 30.8143 57.298 30.7854 57.1576 30.7854C56.8975 30.7854 56.6787 30.8763 56.5094 31.062C56.3443 31.2396 56.2617 31.4584 56.2617 31.7019C56.2617 31.8918 56.3195 32.0694 56.4351 32.2345C56.5466 32.3955 56.6911 32.5152 56.8645 32.5854C58.2186 33.1716 59.6883 33.4689 61.2365 33.4689C62.1695 33.4689 63.0075 33.312 63.7259 33.0024C64.4484 32.6928 65.0181 32.251 65.4185 31.6937C65.8231 31.1322 66.0254 30.4882 66.0254 29.7822C66.0254 28.9277 65.8025 28.2341 65.3649 27.7263L65.369 27.7139Z" fill="#707070"/>
<path d="M22.0332 21.6864C22.0786 21.5626 22.1034 21.4305 22.1034 21.2901C22.1034 20.9722 22.0085 20.708 21.8144 20.5098C21.6204 20.3076 21.3562 20.2043 21.0342 20.2043C20.8112 20.2043 20.6048 20.2745 20.4231 20.4066C20.2498 20.5346 20.1135 20.708 20.0268 20.9144L16.1048 30.6946L12.187 20.9227C12.0962 20.708 11.9641 20.5346 11.7865 20.4066C11.6049 20.2704 11.3985 20.2043 11.1755 20.2043C10.8535 20.2043 10.5893 20.3076 10.3953 20.5098C10.2054 20.708 10.1063 20.9722 10.1063 21.2901C10.1063 21.4305 10.1311 21.5626 10.1765 21.6864L14.5608 32.3212V32.3294C14.9324 33.1345 15.498 33.3037 15.9108 33.3037H16.303C16.7159 33.3037 17.2814 33.1345 17.6489 32.3294L22.0332 21.6947V21.6864Z" fill="#F5303F"/>
<path d="M32.1354 31.8258L27.751 21.1911V21.1828C27.3795 20.3778 26.8139 20.2085 26.4011 20.2085H26.0089C25.596 20.2085 25.0304 20.3778 24.663 21.1828L20.2787 31.8175V31.8258C20.2291 31.9496 20.2043 32.0818 20.2043 32.2221C20.2043 32.54 20.2993 32.8042 20.4933 33.0024C20.6874 33.2047 20.9516 33.3079 21.2736 33.3079C21.4965 33.3079 21.703 33.2377 21.8846 33.1056C22.058 32.9776 22.1942 32.8042 22.2809 32.5978L26.2029 22.8176L28.5561 28.6882L30.1207 32.5895C30.1414 32.6473 30.1662 32.6969 30.1951 32.7423C30.2776 32.8868 30.3891 33.0065 30.5171 33.1056C30.6987 33.2418 30.9051 33.3079 31.1281 33.3079C31.4501 33.3079 31.7143 33.2047 31.9083 33.0024C32.0982 32.8042 32.1973 32.54 32.1973 32.2221C32.1973 32.0818 32.1726 31.9496 32.1271 31.8258H32.1354Z" fill="#F5303F"/>
<path d="M11.9311 31.8258L7.5467 21.1911V21.1828C7.17515 20.3778 6.60956 20.2085 6.19672 20.2085H5.80452C5.39168 20.2085 4.82609 20.3778 4.45866 21.1828L0.0743096 31.8175V31.8258C0.0247689 31.9496 0 32.0818 0 32.2221C0 32.54 0.0949518 32.8042 0.288986 33.0024C0.483021 33.2047 0.747239 33.3079 1.06925 33.3079C1.29219 33.3079 1.49861 33.2377 1.68026 33.1056C1.85365 32.9776 1.98989 32.8042 2.07658 32.5978L5.99855 22.8176L8.35174 28.6882L9.9164 32.5895C9.9453 32.6597 9.97833 32.7175 10.0114 32.7753C10.0939 32.9033 10.193 33.0148 10.3127 33.1056C10.4944 33.2418 10.7008 33.3079 10.9237 33.3079C11.2457 33.3079 11.51 33.2047 11.704 33.0024C11.8939 32.8042 11.993 32.54 11.993 32.2221C11.993 32.0818 11.9682 31.9496 11.9228 31.8258H11.9311Z" fill="#F5303F"/>
<path d="M30.773 10.1972C31.479 10.1972 32.0487 9.62743 32.0487 8.92148V1.27982C32.0487 0.573869 31.479 0.00415039 30.773 0.00415039C30.0671 0.00415039 29.4974 0.573869 29.4974 1.27982V8.92148C29.4974 9.62743 30.0671 10.1972 30.773 10.1972Z" fill="url(#paint0_linear_307_49428)"/>
<path d="M45.1522 8.45083L42.2748 7.29901H42.2541L30.3726 12.0632H30.3643C30.1084 12.1746 29.902 12.3398 29.7451 12.5503C29.5799 12.7733 29.4974 13.0251 29.4974 13.2934C29.4974 13.6856 29.6212 14.0077 29.8689 14.243C30.1125 14.4742 30.4304 14.5939 30.8185 14.5939C30.9877 14.5939 31.1487 14.565 31.3015 14.5072L44.2357 9.1733H44.2481C44.694 8.96275 44.9788 8.71092 45.1564 8.44671L45.1522 8.45083Z" fill="url(#paint1_linear_307_49428)"/>
<path d="M45.1522 8.45079C45.3669 8.13704 45.4288 7.80676 45.4288 7.53842V7.3031H42.2747L45.1522 8.45492V8.45079Z" fill="url(#paint2_linear_307_49428)"/>
<path style="mix-blend-mode:multiply" fill-rule="evenodd" clip-rule="evenodd" d="M40.355 8.06277L42.2541 7.29901L45.1522 8.45083L40.355 8.06277Z" fill="url(#paint3_linear_307_49428)"/>
<path fill-rule="evenodd" clip-rule="evenodd" d="M44.244 5.42471L31.3097 0.0908251H31.3015C31.1487 0.0288993 30.9877 0 30.8185 0C30.4304 0 30.1125 0.119723 29.8689 0.350913C29.6336 0.577974 29.5098 0.879348 29.5015 1.24677V2.18392L42.2582 7.29487L45.1564 8.44669C45.371 8.13294 45.433 7.80266 45.433 7.53432V7.05955C45.433 6.56002 45.2265 5.87057 44.2481 5.42471H44.244Z" fill="url(#paint4_linear_307_49428)"/>
<path style="mix-blend-mode:multiply" fill-rule="evenodd" clip-rule="evenodd" d="M29.4974 2.1839L32.0487 4.48341V3.21187L29.4974 2.1839Z" fill="url(#paint5_linear_307_49428)"/>
<defs>
<linearGradient id="paint0_linear_307_49428" x1="30.7731" y1="5.09446" x2="30.7813" y2="7.64994" gradientUnits="userSpaceOnUse">
<stop stop-color="#C0272D"/>
<stop offset="1" stop-color="#F5303F"/>
</linearGradient>
<linearGradient id="paint1_linear_307_49428" x1="29.4974" y1="10.9485" x2="45.4288" y2="10.9485" gradientUnits="userSpaceOnUse">
<stop offset="0.13" stop-color="#C0272D"/>
<stop offset="1" stop-color="#F5303F"/>
</linearGradient>
<linearGradient id="paint2_linear_307_49428" x1="29.4974" y1="7.87695" x2="45.4288" y2="7.87695" gradientUnits="userSpaceOnUse">
<stop offset="0.13" stop-color="#C0272D"/>
<stop offset="1" stop-color="#F5303F"/>
</linearGradient>
<linearGradient id="paint3_linear_307_49428" x1="40.355" y1="7.87699" x2="45.1522" y2="7.87699" gradientUnits="userSpaceOnUse">
<stop stop-color="#880078"/>
<stop offset="0.11" stop-color="#961E87"/>
<stop offset="0.55" stop-color="#CD95C7"/>
<stop offset="0.86" stop-color="#F1E1EF"/>
<stop offset="1" stop-color="white"/>
</linearGradient>
<linearGradient id="paint4_linear_307_49428" x1="29.4974" y1="4.22748" x2="45.4288" y2="4.22748" gradientUnits="userSpaceOnUse">
<stop offset="0.13" stop-color="#C0272D"/>
<stop offset="1" stop-color="#F5303F"/>
</linearGradient>
<linearGradient id="paint5_linear_307_49428" x1="29.4974" y1="3.33572" x2="32.0487" y2="3.33572" gradientUnits="userSpaceOnUse">
<stop stop-color="white"/>
<stop offset="1" stop-color="#880078"/>
</linearGradient>
</defs>
</svg>
