<svg width="120" height="48" viewBox="0 0 120 48" fill="none" xmlns="http://www.w3.org/2000/svg">
    <g clip-path="url(#clip0_307_49576)">
        <path
            d="M9.35924 47.7614C7.85676 47.7838 6.36461 47.51 4.96794 46.9557C4.80756 46.8889 0.989941 45.2554 0.357973 41.4502C0.172898 40.4869 0.202983 39.4946 0.446071 38.5442C0.68916 37.5938 1.13927 36.7088 1.76417 35.9526C2.2235 35.3797 2.7999 34.9114 3.45483 34.5794C4.10975 34.2473 4.82807 34.059 5.56168 34.027C7.84707 34.027 8.13919 33.2233 8.58214 32.0061C9.04705 30.7278 9.68284 28.976 13.0222 28.935C14.5611 28.884 16.0585 29.4394 17.192 30.4815C17.7301 31.0723 18.1406 31.7676 18.3978 32.5242C18.655 33.2808 18.7535 34.0823 18.687 34.8786C18.6418 36.546 18.1393 38.1689 17.2344 39.5701C16.3295 40.9713 15.057 42.0969 13.5558 42.8241C11.4249 43.7538 9.01519 43.8148 6.83998 42.994C6.33939 42.8145 5.88261 42.5306 5.49997 42.1613C5.11733 41.792 4.81754 41.3457 4.62044 40.8517C4.5536 40.6598 4.56574 40.4492 4.65418 40.2663C4.74262 40.0833 4.90008 39.943 5.09199 39.8761C5.28391 39.8093 5.49454 39.8214 5.67751 39.9098C5.86048 39.9982 6.00082 40.1558 6.06766 40.3477C6.20142 40.6352 6.39171 40.8927 6.62725 41.105C6.86279 41.3172 7.1387 41.4798 7.43849 41.583C9.21535 42.2365 11.1754 42.1821 12.9134 41.4311C14.1488 40.818 15.1953 39.8821 15.9418 38.7225C16.6884 37.5628 17.1072 36.2227 17.1538 34.8442C17.2485 34.271 17.2098 33.6835 17.0407 33.1276C16.8716 32.5717 16.5767 32.0624 16.1788 31.6389C15.7809 31.2155 15.2908 30.8894 14.7465 30.686C14.2022 30.4827 13.6184 30.4074 13.0403 30.4662C10.7607 30.4949 10.4628 31.3035 10.0217 32.5283C9.55682 33.8075 8.9201 35.5593 5.56074 35.5593C5.05017 35.5933 4.55239 35.7339 4.09954 35.9722C3.6467 36.2104 3.24883 36.541 2.93165 36.9425C2.44974 37.5286 2.10432 38.2144 1.92038 38.9505C1.73644 39.6866 1.71863 40.4545 1.86823 41.1983C2.35987 44.1577 5.52732 45.5275 5.55882 45.5409C8.82081 46.9089 13.6131 46.0726 16.0417 44.4325C17.6646 43.3385 21.4296 40.047 21.4296 33.1154C21.4712 31.1077 21.0395 29.1183 20.1694 27.3084C19.2994 25.4986 18.0155 23.919 16.4216 22.6975C15.3596 21.8737 14.199 21.1856 12.9668 20.6488C12.8274 20.5895 12.7089 20.4901 12.6262 20.3632C12.5435 20.2363 12.5003 20.0877 12.5022 19.9362C12.5042 19.7848 12.5511 19.6373 12.6371 19.5126C12.723 19.3879 12.8441 19.2916 12.9849 19.2359C13.7213 18.8935 14.3616 18.3746 14.8489 17.725C15.3362 17.0755 15.6555 16.3156 15.7782 15.5129C15.7822 15.0261 15.6362 14.5499 15.36 14.149C15.0838 13.7481 14.6909 13.442 14.2346 13.2723C7.85569 10.0266 4.2405 6.07054 3.18086 1.1809C3.13782 0.982146 3.17546 0.774449 3.28556 0.603477C3.39567 0.432504 3.5692 0.312303 3.76795 0.269261C3.9667 0.22622 4.1744 0.263922 4.34537 0.374024C4.51634 0.484127 4.6366 0.657602 4.67964 0.856353C5.64764 5.32882 8.90579 8.83994 14.9305 11.9053C15.651 12.2063 16.2638 12.718 16.6885 13.3734C17.1132 14.0287 17.3299 14.7971 17.3104 15.5778C17.2219 16.4228 16.9601 17.2404 16.5412 17.9795C16.1223 18.7187 15.5555 19.3635 14.8761 19.8737C15.7515 20.3418 16.5849 20.8847 17.3667 21.4965C19.1467 22.8586 20.5809 24.6209 21.5532 26.6405C22.5254 28.66 23.0083 30.8801 22.9628 33.1211C22.9628 38.5195 20.7528 43.1076 16.8999 45.7089C14.6262 47.0813 12.0148 47.7921 9.35924 47.7614Z"
            fill="#FF9081" stroke="#FF9081" stroke-width="0.5" />
        <path
            d="M31.8963 23.9356C33.0888 24.58 34.4263 24.9086 35.7816 24.8903C36.8054 24.899 37.8214 24.7124 38.7753 24.3405C39.6664 23.9929 40.4673 23.4482 41.118 22.7471C41.146 22.7178 41.1617 22.6788 41.1617 22.6383C41.1617 22.5977 41.146 22.5587 41.118 22.5294L40.1633 21.5748C40.1488 21.5602 40.1317 21.5488 40.1126 21.5409C40.0936 21.533 40.0732 21.5289 40.0526 21.529C40.0315 21.528 40.0104 21.5318 39.9909 21.5401C39.9714 21.5483 39.9539 21.5609 39.9399 21.5768C39.411 22.1231 38.7738 22.5529 38.069 22.8386C37.3643 23.1243 36.6075 23.2597 35.8474 23.236C34.8022 23.2479 33.7718 22.9887 32.8566 22.4836C31.9817 22.0018 31.2541 21.2915 30.7516 20.4283C30.2527 19.5332 29.9909 18.5253 29.9909 17.5005C29.9909 16.4756 30.2527 15.4678 30.7516 14.5726C31.2542 13.7095 31.9818 12.9992 32.8566 12.5173C33.7719 12.0125 34.8022 11.7532 35.8474 11.765C36.6057 11.7433 37.3604 11.8778 38.0646 12.1599C38.7687 12.442 39.4074 12.8658 39.941 13.405C39.9703 13.4347 40.0101 13.4516 40.0517 13.4519C40.0723 13.4519 40.0926 13.4479 40.1116 13.44C40.1306 13.4321 40.1479 13.4205 40.1624 13.406L41.117 12.4513C41.145 12.4222 41.1606 12.3835 41.1606 12.3431C41.1606 12.3027 41.145 12.2639 41.117 12.2347C40.4702 11.5359 39.6722 10.9941 38.7839 10.6509C37.8323 10.285 36.8202 10.1021 35.8007 10.1116C34.4425 10.0944 33.1022 10.4229 31.9058 11.0662C30.7685 11.6804 29.8231 12.5973 29.1745 13.7154C28.5276 14.8725 28.1879 16.1761 28.1879 17.5019C28.1879 18.8276 28.5276 20.1313 29.1745 21.2885C29.8213 22.4042 30.763 23.3201 31.8963 23.9356Z"
            fill="#0088A4" />
        <path
            d="M47.8081 24.8692C48.8093 24.8834 49.7968 24.6349 50.672 24.1485C51.51 23.6786 52.202 22.9865 52.6719 22.1485C53.1454 21.262 53.393 20.2724 53.393 19.2674C53.393 18.2624 53.1454 17.2729 52.6719 16.3863C52.2022 15.5493 51.5079 14.8602 50.6672 14.3969C49.7863 13.9303 48.8045 13.6864 47.8076 13.6864C46.8107 13.6864 45.829 13.9303 44.948 14.3969C44.108 14.8622 43.4125 15.5503 42.9384 16.3854C42.4579 17.27 42.2063 18.2607 42.2063 19.2674C42.2063 20.2741 42.4579 21.2648 42.9384 22.1495C43.4126 22.9856 44.1058 23.6767 44.9433 24.1485C45.8188 24.6351 46.8066 24.8836 47.8081 24.8692ZM47.8081 15.2598C48.4951 15.2496 49.1725 15.4211 49.7718 15.7572C50.3483 16.0882 50.8176 16.578 51.1236 17.1682C51.4459 17.8213 51.6136 18.54 51.6136 19.2684C51.6136 19.9968 51.4459 20.7154 51.1236 21.3686C50.8174 21.9586 50.3482 22.4484 49.7718 22.7796C49.1686 23.1059 48.4935 23.2768 47.8076 23.2768C47.1218 23.2768 46.4467 23.1059 45.8435 22.7796C45.2654 22.4467 44.7932 21.9572 44.4812 21.3676C44.1527 20.7163 43.9815 19.9969 43.9815 19.2674C43.9815 18.5379 44.1527 17.8186 44.4812 17.1672C44.7932 16.5777 45.2655 16.0882 45.8435 15.7553C46.4432 15.4197 47.121 15.2488 47.8081 15.2598Z"
            fill="#0088A4" />
        <path
            d="M61.6236 13.6866C60.758 13.6693 59.9009 13.8599 59.1243 14.2423C58.6059 14.5046 58.1471 14.8708 57.7763 15.3181C57.7763 15.3229 57.765 15.3344 57.743 15.3267C57.7356 15.3246 57.7291 15.32 57.7246 15.3138C57.7201 15.3076 57.7179 15.3 57.7182 15.2923V13.9253C57.7182 13.8838 57.7016 13.844 57.6723 13.8146C57.6429 13.7852 57.6031 13.7688 57.5616 13.7688H56.1802C56.1596 13.7687 56.1392 13.7725 56.1201 13.7803C56.101 13.7882 56.0836 13.7997 56.0689 13.8143C56.0543 13.8288 56.0427 13.8461 56.0348 13.8652C56.0268 13.8842 56.0228 13.9047 56.0228 13.9253V24.6124C56.0228 24.633 56.0268 24.6535 56.0348 24.6725C56.0427 24.6916 56.0543 24.7089 56.0689 24.7234C56.0836 24.738 56.101 24.7495 56.1201 24.7574C56.1392 24.7652 56.1596 24.7691 56.1802 24.769H57.6226C57.6642 24.769 57.704 24.7525 57.7333 24.7231C57.7627 24.6937 57.7793 24.6539 57.7793 24.6124V19.005C57.7508 18.5098 57.8212 18.0138 57.9862 17.5461C58.1513 17.0783 58.4077 16.6481 58.7405 16.2804C59.0871 15.9466 59.4985 15.6874 59.9492 15.5191C60.4 15.3508 60.8805 15.2769 61.361 15.3019C61.7748 15.2752 62.1897 15.3347 62.5794 15.4767C62.969 15.6187 63.3249 15.84 63.6245 16.1267C64.1931 16.8041 64.4761 17.676 64.4139 18.5582V24.6134C64.4139 24.6341 64.418 24.6545 64.4259 24.6736C64.4339 24.6926 64.4456 24.7099 64.4602 24.7245C64.4748 24.739 64.4921 24.7505 64.5112 24.7583C64.5303 24.7661 64.5508 24.7701 64.5715 24.7699H66.0139C66.0554 24.7699 66.0953 24.7535 66.1246 24.7241C66.154 24.6948 66.1705 24.655 66.1705 24.6134V18.4168C66.2134 17.7778 66.1259 17.1368 65.9136 16.5326C65.7012 15.9284 65.3684 15.3736 64.9352 14.9018C64.4923 14.4885 63.9711 14.1679 63.4023 13.9592C62.8335 13.7505 62.2287 13.6579 61.6236 13.6866Z"
            fill="#0088A4" />
        <path
            d="M72.3316 24.6745C72.3437 24.7026 72.3637 24.7266 72.3891 24.7435C72.4145 24.7605 72.4443 24.7697 72.4748 24.77H73.9583C73.9889 24.7698 74.0187 24.7606 74.0442 24.7436C74.0696 24.7267 74.0896 24.7027 74.1015 24.6745L78.8556 13.9873C78.8663 13.9635 78.8709 13.9373 78.8689 13.9112C78.8668 13.8852 78.8583 13.8601 78.8441 13.8382C78.8298 13.8162 78.8103 13.7982 78.7873 13.7857C78.7643 13.7733 78.7386 13.7668 78.7125 13.7668H77.29C77.2594 13.7669 77.2294 13.776 77.204 13.7929C77.1785 13.8099 77.1587 13.8341 77.1469 13.8623L73.334 22.4454C73.3266 22.462 73.3145 22.4762 73.2993 22.4862C73.2841 22.4961 73.2664 22.5016 73.2482 22.5018C73.23 22.5016 73.2121 22.4961 73.1969 22.4862C73.1817 22.4762 73.1696 22.462 73.1622 22.4454L69.3885 13.8632C69.3764 13.835 69.3563 13.811 69.3307 13.794C69.3051 13.777 69.275 13.7679 69.2443 13.7678H67.7408C67.7148 13.7678 67.6892 13.7743 67.6664 13.7867C67.6435 13.7991 67.6241 13.8171 67.6098 13.8389C67.5956 13.8607 67.587 13.8856 67.5849 13.9116C67.5828 13.9375 67.5871 13.9635 67.5976 13.9873L72.3316 24.6745Z"
            fill="#0088A4" />
        <path
            d="M87.3214 14.3988C86.4817 13.9319 85.5368 13.687 84.5759 13.687C83.6151 13.687 82.6702 13.9319 81.8304 14.3988C81.0166 14.872 80.3493 15.5609 79.9021 16.3893C79.4285 17.2741 79.1876 18.2649 79.2023 19.2684C79.1873 20.2769 79.4399 21.2713 79.9344 22.1504C80.416 22.9933 81.1228 23.6855 81.9755 24.1494C82.895 24.641 83.9249 24.8891 84.9674 24.8701C85.7925 24.8789 86.611 24.7229 87.3749 24.411C88.087 24.1184 88.7173 23.6572 89.2116 23.0669C89.2358 23.0386 89.2491 23.0025 89.2491 22.9652C89.2491 22.9279 89.2358 22.8919 89.2116 22.8636L88.3983 21.929C88.3837 21.9122 88.3656 21.8988 88.3453 21.8896C88.3251 21.8804 88.3031 21.8756 88.2809 21.8755C88.2587 21.8755 88.2368 21.8802 88.2165 21.8892C88.1963 21.8983 88.1782 21.9115 88.1634 21.9281C87.7829 22.3634 87.3092 22.7073 86.7774 22.9342C86.2176 23.1669 85.6164 23.2835 85.0103 23.2769C83.9793 23.3134 82.9723 22.9615 82.1884 22.2908C81.5227 21.702 81.0969 20.8888 80.9922 20.0063C80.9901 19.9893 80.9915 19.9719 80.9964 19.9555C81.0013 19.9391 81.0097 19.9239 81.0209 19.9109C81.0311 19.8989 81.0438 19.8893 81.0582 19.8827C81.0725 19.8761 81.0882 19.8726 81.104 19.8726H89.7443C89.7847 19.8727 89.8236 19.8571 89.8528 19.8292C89.8819 19.8013 89.8992 19.7631 89.9009 19.7228L89.9219 19.2684C89.9394 18.2628 89.7023 17.2691 89.2326 16.3797C88.79 15.5561 88.1287 14.8706 87.3214 14.3988ZM88.1864 18.3443C88.1887 18.3613 88.1874 18.3786 88.1826 18.395C88.1779 18.4115 88.1697 18.4267 88.1586 18.4398C88.1479 18.4524 88.1347 18.4624 88.1197 18.4694C88.1047 18.4763 88.0883 18.4799 88.0718 18.4799H81.1029C81.0877 18.4797 81.0727 18.4764 81.0589 18.4699C81.045 18.4635 81.0327 18.4542 81.0227 18.4427C81.0115 18.4297 81.0034 18.4143 80.999 18.3978C80.9945 18.3813 80.9938 18.3639 80.997 18.3471C81.1056 17.5185 81.4951 16.7524 82.1006 16.1764C82.789 15.5689 83.6754 15.2336 84.5935 15.2336C85.5116 15.2336 86.3982 15.5689 87.0866 16.1764C87.6893 16.7516 88.0773 17.5154 88.1864 18.3414V18.3443Z"
            fill="#0088A4" />
        <path
            d="M92.7074 24.768H94.1499C94.1705 24.7681 94.191 24.7642 94.2101 24.7564C94.2292 24.7485 94.2466 24.737 94.2613 24.7224C94.2759 24.7079 94.2875 24.6906 94.2954 24.6715C94.3033 24.6525 94.3074 24.632 94.3074 24.6114V19.17C94.2444 18.1547 94.5712 17.1536 95.221 16.371C95.546 16.0368 95.9386 15.7759 96.3726 15.6059C96.8066 15.4358 97.2719 15.3605 97.7374 15.3849L98.083 15.405C98.1044 15.4071 98.126 15.4044 98.1462 15.3969C98.1664 15.3895 98.1846 15.3775 98.1995 15.362C98.2151 15.3474 98.2275 15.3299 98.2361 15.3103C98.2446 15.2908 98.2491 15.2697 98.2491 15.2483V13.846C98.2491 13.8253 98.2451 13.8049 98.2371 13.7859C98.2292 13.7668 98.2175 13.7495 98.2029 13.7349C98.1882 13.7204 98.1709 13.7088 98.1518 13.701C98.1327 13.6932 98.1122 13.6894 98.0916 13.6895C97.2028 13.6616 96.3212 13.8568 95.5274 14.2575C95.0379 14.5221 94.6164 14.8965 94.296 15.3515C94.296 15.3562 94.2845 15.3705 94.2464 15.3381V13.9271C94.2464 13.9065 94.2423 13.886 94.2343 13.867C94.2264 13.8479 94.2147 13.8306 94.2001 13.816C94.1855 13.8015 94.1682 13.7901 94.149 13.7822C94.1299 13.7744 94.1094 13.7705 94.0888 13.7706H92.7074C92.6868 13.7705 92.6664 13.7744 92.6473 13.7822C92.6282 13.7901 92.6108 13.8015 92.5961 13.816C92.5815 13.8306 92.5699 13.8479 92.562 13.867C92.5541 13.886 92.55 13.9065 92.55 13.9271V24.6143C92.5507 24.6555 92.5677 24.6947 92.5972 24.7235C92.6267 24.7523 92.6662 24.7683 92.7074 24.768Z"
            fill="#0088A4" />
        <path
            d="M108.203 21.6655C108.237 21.0333 108.025 20.4124 107.612 19.9327C107.234 19.5245 106.755 19.2227 106.224 19.0573C105.543 18.8543 104.851 18.6899 104.152 18.5648C103.61 18.4758 103.073 18.3585 102.543 18.2134C102.2 18.1195 101.884 17.9473 101.62 17.7103C101.503 17.6007 101.412 17.4671 101.353 17.3188C101.293 17.1705 101.266 17.0108 101.274 16.8512C101.272 16.6208 101.329 16.3939 101.44 16.1922C101.552 15.9904 101.713 15.8208 101.909 15.6999C102.513 15.3532 103.207 15.1935 103.901 15.2408C104.988 15.2135 106.057 15.5232 106.961 16.1276C106.979 16.14 107 16.1485 107.021 16.1525C107.043 16.1565 107.065 16.1559 107.087 16.1508C107.108 16.1457 107.128 16.1361 107.146 16.1227C107.163 16.1093 107.178 16.0925 107.188 16.0732L107.818 14.9152C107.837 14.8808 107.842 14.8408 107.833 14.8029C107.823 14.7649 107.8 14.7318 107.768 14.71C107.227 14.3689 106.635 14.118 106.014 13.9672C105.325 13.7837 104.615 13.69 103.901 13.6885C102.765 13.6244 101.64 13.9358 100.698 14.5745C100.328 14.8369 100.028 15.1849 99.8229 15.5888C99.6176 15.9926 99.5132 16.4402 99.5188 16.8932C99.4831 17.5451 99.6975 18.1859 100.118 18.685C100.503 19.1072 100.993 19.4201 101.538 19.592C102.232 19.8015 102.938 19.9695 103.652 20.0951C104.174 20.1762 104.69 20.2869 105.199 20.4264C105.535 20.5178 105.848 20.6806 106.115 20.9037C106.228 21.0042 106.316 21.1289 106.374 21.2684C106.431 21.408 106.456 21.5587 106.447 21.7094C106.456 21.9413 106.402 22.1711 106.291 22.3749C106.18 22.5788 106.017 22.7492 105.817 22.8683C105.178 23.2008 104.458 23.3501 103.739 23.2997C103.038 23.3014 102.341 23.1909 101.675 22.9724C101.085 22.7903 100.531 22.5069 100.037 22.1351C100.019 22.1212 99.9989 22.1113 99.977 22.1061C99.9551 22.1008 99.9323 22.1003 99.9102 22.1046C99.8881 22.1088 99.8671 22.1179 99.8488 22.1311C99.8305 22.1443 99.8152 22.1612 99.8042 22.1809L99.1541 23.3188C99.1358 23.3506 99.1292 23.3878 99.1355 23.4239C99.1418 23.46 99.1604 23.4928 99.1884 23.5165C99.7551 23.9629 100.404 24.294 101.098 24.4911C101.919 24.7477 102.774 24.8765 103.634 24.873C104.805 24.9369 105.968 24.6397 106.965 24.0215C107.354 23.7659 107.672 23.4156 107.888 23.0035C108.105 22.5914 108.213 22.1309 108.203 21.6655Z"
            fill="#0088A4" />
        <path
            d="M117.056 18.4207H113.938C112.79 18.3278 111.645 18.6351 110.698 19.2904C110.364 19.5859 110.098 19.9501 109.919 20.3578C109.739 20.7656 109.65 21.2074 109.657 21.6529C109.664 22.0984 109.767 22.5371 109.959 22.939C110.152 23.341 110.429 23.6966 110.771 23.9815C111.62 24.609 112.66 24.9227 113.714 24.8693C114.667 24.835 115.611 24.6745 116.522 24.392C116.718 24.3278 116.926 24.3066 117.131 24.3299C117.336 24.3531 117.533 24.4202 117.71 24.5266C117.955 24.6623 118.227 24.7434 118.506 24.7643H118.775C118.816 24.7643 118.856 24.7477 118.885 24.7184C118.915 24.689 118.931 24.6492 118.931 24.6077V17.9844C118.972 17.397 118.89 16.8076 118.689 16.2542C118.488 15.7007 118.173 15.1955 117.765 14.7712C116.84 13.9954 115.652 13.6057 114.447 13.6829C113.617 13.6787 112.791 13.8077 112.001 14.0647C111.268 14.2969 110.587 14.669 109.996 15.1606C109.968 15.1847 109.949 15.2181 109.943 15.2549C109.937 15.2916 109.944 15.3293 109.963 15.3612L110.614 16.4379C110.625 16.4574 110.641 16.4742 110.66 16.4869C110.679 16.4996 110.701 16.5079 110.723 16.5115C110.746 16.515 110.769 16.5135 110.791 16.5073C110.813 16.501 110.834 16.4901 110.851 16.4752C111.308 16.0815 111.835 15.778 112.405 15.5807C113.014 15.3631 113.656 15.2526 114.302 15.2542C115.079 15.1986 115.847 15.4414 116.45 15.933C116.703 16.1953 116.898 16.5079 117.023 16.8504C117.147 17.193 117.198 17.5579 117.173 17.9215V18.2975C117.174 18.3134 117.171 18.3292 117.166 18.344C117.16 18.3589 117.152 18.3725 117.141 18.384C117.13 18.3955 117.117 18.4047 117.102 18.4111C117.088 18.4174 117.072 18.4206 117.056 18.4207ZM117.174 19.9281V21.1319C117.173 21.3067 117.132 21.4791 117.053 21.635C116.805 22.1448 116.422 22.5769 115.946 22.8846C115.343 23.2518 114.647 23.4371 113.941 23.4182C113.271 23.4587 112.606 23.2808 112.046 22.9113C111.835 22.7575 111.665 22.554 111.552 22.3189C111.439 22.0837 111.385 21.8241 111.396 21.5634C111.396 20.3844 112.242 19.8107 113.982 19.8107H117.061C117.092 19.812 117.12 19.8248 117.141 19.8467C117.162 19.8686 117.174 19.8977 117.174 19.9281Z"
            fill="#0088A4" />
        <path
            d="M41.2278 28.7584H39.4904C39.3732 28.7584 39.2607 28.805 39.1778 28.8879C39.095 28.9708 39.0484 29.0832 39.0484 29.2004V34.5578C38.6308 34.14 38.1506 33.79 37.625 33.5202C36.6863 33.0481 35.6477 32.8086 34.5969 32.8223C33.3763 32.8076 32.1725 33.1091 31.103 33.6977C30.0622 34.2759 29.2058 35.1364 28.6323 36.1798C28.0492 37.296 27.7446 38.5366 27.7446 39.7959C27.7446 41.0553 28.0492 42.2959 28.6323 43.412C29.2072 44.4567 30.0622 45.3203 31.1011 45.9056C32.1685 46.5028 33.3739 46.8096 34.5969 46.7953C35.7908 46.7681 36.9699 46.5242 38.0766 46.0755C38.3767 45.9559 38.7038 45.9209 39.0224 45.9742C39.341 46.0276 39.6389 46.1673 39.8837 46.3782L40.0126 46.4593C40.238 46.5987 40.4979 46.6725 40.7629 46.6722H41.2268C41.3441 46.6722 41.4565 46.6256 41.5394 46.5427C41.6223 46.4598 41.6688 46.3474 41.6688 46.2302V29.1995C41.6686 29.0826 41.622 28.9705 41.5394 28.8879C41.4567 28.8052 41.3447 28.7587 41.2278 28.7584ZM39.0732 39.7969C39.0875 40.6348 38.8905 41.4627 38.5004 42.2044C38.1468 42.8727 37.6117 43.4276 36.9567 43.8053C36.2813 44.1859 35.5172 44.3809 34.742 44.3705C33.959 44.3829 33.1868 44.1878 32.5034 43.8053C31.8482 43.4279 31.313 42.8729 30.9597 42.2044C30.5847 41.4574 30.3894 40.6332 30.3894 39.7973C30.3894 38.9615 30.5847 38.1372 30.9597 37.3902C31.313 36.7217 31.8482 36.1667 32.5034 35.7893C33.1867 35.4067 33.959 35.2117 34.742 35.2241C35.5173 35.214 36.2814 35.4093 36.9567 35.7902C37.6118 36.1679 38.1469 36.7228 38.5004 37.3912C38.8902 38.1323 39.0871 38.9596 39.0732 39.7969Z"
            fill="#0088A4" />
        <path
            d="M54.4906 33.7149C53.449 33.1144 52.2646 32.806 51.0624 32.8223C49.8578 32.8077 48.6713 33.1156 47.6258 33.714C46.6059 34.3065 45.7696 35.1694 45.2096 36.2075C44.6178 37.3098 44.3168 38.5449 44.3351 39.796C44.3169 41.0544 44.6324 42.2952 45.2497 43.392C45.8525 44.4478 46.7374 45.3149 47.8052 45.8961C48.9493 46.5083 50.2309 46.8178 51.5283 46.7954C52.5554 46.8058 53.5741 46.611 54.5248 46.2225C55.4201 45.8542 56.2126 45.274 56.8342 44.5318C56.9014 44.4512 56.9376 44.3494 56.9366 44.2445C56.9355 44.1395 56.8973 44.0383 56.8285 43.9591L55.8499 42.8336C55.8085 42.7861 55.7575 42.748 55.7002 42.7219C55.6429 42.6957 55.5807 42.682 55.5177 42.6818C55.455 42.6818 55.393 42.6952 55.3359 42.721C55.2788 42.7469 55.2279 42.7846 55.1865 42.8316C54.7527 43.327 54.213 43.7186 53.6075 43.9773C52.9649 44.2441 52.2747 44.3776 51.5789 44.3696C50.3983 44.419 49.2431 44.0168 48.3484 43.245C47.6216 42.6087 47.1474 41.7327 47.0119 40.7763H57.2809C57.3945 40.7762 57.5036 40.7325 57.5857 40.6541C57.6678 40.5757 57.7165 40.4687 57.7219 40.3553L57.7467 39.7969C57.7684 38.5437 57.4729 37.3053 56.8876 36.197C56.3326 35.1645 55.503 34.3056 54.4906 33.7149ZM47.0157 38.5959C47.1555 37.7037 47.5885 36.8836 48.2463 36.2648C49.0283 35.5774 50.0338 35.1983 51.0749 35.1983C52.116 35.1983 53.1214 35.5774 53.9034 36.2648C54.5611 36.8836 54.9941 37.7037 55.134 38.5959H47.0157Z"
            fill="#0088A4" />
        <path
            d="M83.3043 32.8222C82.1711 32.8036 81.0514 33.0702 80.0481 33.5974C79.3501 33.9688 78.7394 34.485 78.2571 35.1115C77.8614 34.4723 77.3134 33.9413 76.662 33.5659C75.7381 33.0547 74.6952 32.7978 73.6396 32.8213C72.5931 32.803 71.5576 33.0385 70.622 33.5077C70.1579 33.7473 69.7325 34.0553 69.3599 34.4213V33.3617C69.3599 33.2444 69.3134 33.132 69.2305 33.0491C69.1476 32.9662 69.0352 32.9197 68.9179 32.9197H67.2541C67.1369 32.9197 67.0244 32.9662 66.9415 33.0491C66.8587 33.132 66.8121 33.2444 66.8121 33.3617V46.2311C66.8121 46.3483 66.8587 46.4607 66.9415 46.5436C67.0244 46.6265 67.1369 46.6731 67.2541 46.6731H68.9915C69.1087 46.6731 69.2211 46.6265 69.304 46.5436C69.3869 46.4607 69.4335 46.3483 69.4335 46.2311V39.4789C69.3651 38.3463 69.7388 37.2313 70.476 36.3687C70.8407 35.995 71.2813 35.7039 71.7681 35.5148C72.2549 35.3258 72.7765 35.2432 73.2978 35.2728C73.7439 35.2406 74.1916 35.3052 74.6104 35.4621C75.0293 35.6189 75.4093 35.8643 75.7245 36.1816C76.3437 36.9621 76.647 37.9469 76.5741 38.9405V46.2311C76.5741 46.3483 76.6207 46.4607 76.7036 46.5436C76.7865 46.6265 76.8989 46.6731 77.0161 46.6731H78.7535C78.8707 46.6731 78.9832 46.6265 79.0661 46.5436C79.1489 46.4607 79.1955 46.3483 79.1955 46.2311V39.4789C79.1269 38.3475 79.4965 37.2331 80.2275 36.3668C80.5933 35.9916 81.0357 35.6997 81.5244 35.5109C82.0132 35.3221 82.5369 35.2409 83.0599 35.2728C83.5022 35.242 83.9461 35.3073 84.3608 35.4641C84.7756 35.621 85.1515 35.8658 85.4628 36.1816C86.0819 36.9622 86.3852 37.9469 86.3124 38.9405V46.2311C86.3124 46.3483 86.359 46.4607 86.4419 46.5436C86.5248 46.6265 86.6371 46.6731 86.7543 46.6731H88.4918C88.609 46.6731 88.7214 46.6265 88.8043 46.5436C88.8872 46.4607 88.9338 46.3483 88.9338 46.2311V38.7668C88.9879 37.9664 88.8823 37.1633 88.623 36.4041C88.3637 35.6449 87.956 34.9449 87.4235 34.3449C86.8762 33.8248 86.2287 33.4217 85.5206 33.1599C84.8124 32.8982 84.0583 32.7833 83.3043 32.8222Z"
            fill="#0088A4" />
        <path
            d="M97.7183 32.8223C96.6909 32.8188 95.6696 32.9799 94.6932 33.2996C93.7805 33.5896 92.9327 34.0539 92.1968 34.6667C92.1163 34.7342 92.0626 34.8281 92.0451 34.9317C92.0276 35.0352 92.0475 35.1417 92.1013 35.2319L92.8841 36.5292C92.9176 36.5842 92.9627 36.6312 93.0162 36.667C93.0698 36.7027 93.1305 36.7264 93.1942 36.7362C93.2578 36.746 93.323 36.7418 93.3848 36.7238C93.4467 36.7059 93.5038 36.6746 93.5523 36.6322C94.0787 36.1794 94.686 35.8304 95.3422 35.6033C96.0466 35.3503 96.7895 35.2211 97.5379 35.2214C98.4086 35.1559 99.2717 35.4237 99.9523 35.9707C100.233 36.262 100.448 36.6096 100.584 36.9905C100.72 37.3713 100.774 37.7767 100.742 38.1798V38.5205H97.0978C95.6545 38.4002 94.215 38.7923 93.0321 39.6279C92.6024 40.0081 92.2599 40.4769 92.0284 41.0019C91.7969 41.5269 91.6817 42.0957 91.6908 42.6694C91.6999 43.2431 91.833 43.8081 92.081 44.3255C92.329 44.8429 92.686 45.3006 93.1275 45.667C94.1944 46.4595 95.5032 46.8572 96.8306 46.7925C97.9649 46.764 99.0885 46.5659 100.164 46.2045C100.427 46.1407 100.701 46.1356 100.966 46.1898C101.231 46.2439 101.481 46.3558 101.697 46.5176C101.929 46.6306 102.185 46.683 102.443 46.6702H102.92C103.037 46.6702 103.15 46.6237 103.233 46.5408C103.316 46.4579 103.362 46.3455 103.362 46.2282V38.2523C103.412 37.5103 103.306 36.7661 103.05 36.0679C102.794 35.3696 102.394 34.7329 101.877 34.1989C100.719 33.2228 99.2299 32.7298 97.7183 32.8223ZM100.75 40.7038V42.0537C100.749 42.2172 100.71 42.3784 100.637 42.5244C100.358 43.1014 99.9259 43.5907 99.388 43.9391C98.7016 44.3561 97.9092 44.5656 97.1064 44.5423C96.3542 44.5909 95.6064 44.3951 94.9747 43.9839C94.7529 43.8214 94.5748 43.6066 94.456 43.3586C94.3373 43.1106 94.2817 42.8371 94.2941 42.5625C94.2941 41.7653 94.591 40.7048 97.158 40.7048L100.75 40.7038Z"
            fill="#0088A4" />
        <path
            d="M118.51 36.197C117.958 35.1658 117.132 34.3069 116.124 33.715C115.082 33.1143 113.897 32.8059 112.695 32.8223C111.49 32.8078 110.304 33.1157 109.258 33.714C108.238 34.3065 107.402 35.1694 106.842 36.2075C106.25 37.3099 105.949 38.5449 105.967 39.796C105.949 41.0544 106.265 42.2951 106.882 43.3921C107.485 44.4478 108.37 45.3149 109.437 45.8961C110.582 46.5082 111.863 46.8178 113.161 46.7954C114.188 46.8059 115.206 46.611 116.157 46.2225C117.052 45.8542 117.845 45.274 118.466 44.5319C118.533 44.4512 118.569 44.3494 118.568 44.2445C118.567 44.1396 118.529 44.0384 118.461 43.9591L117.482 42.8336C117.441 42.7863 117.39 42.7483 117.333 42.7221C117.276 42.6959 117.214 42.6821 117.151 42.6818C117.088 42.6818 117.026 42.6952 116.969 42.7211C116.912 42.7469 116.861 42.7846 116.82 42.8316C116.385 43.3272 115.846 43.7188 115.24 43.9773C114.597 44.2443 113.907 44.3778 113.211 44.3696C112.03 44.419 110.875 44.0168 109.981 43.245C109.254 42.6087 108.779 41.7328 108.644 40.7764H118.913C119.027 40.7762 119.136 40.7323 119.218 40.6538C119.3 40.5752 119.349 40.4679 119.354 40.3544L119.379 39.796C119.398 38.5422 119.099 37.3041 118.51 36.197ZM108.644 38.5959C108.784 37.7038 109.217 36.8837 109.875 36.2648C110.657 35.5774 111.662 35.1983 112.703 35.1983C113.744 35.1983 114.75 35.5774 115.532 36.2648C116.189 36.8837 116.622 37.7038 116.762 38.5959H108.644Z"
            fill="#0088A4" />
        <path
            d="M92.6587 31.8342L93.3566 32.2905C93.4279 32.3371 93.5111 32.3619 93.5962 32.3621C93.6283 32.362 93.6603 32.3585 93.6917 32.3516C93.7488 32.3389 93.8029 32.315 93.8507 32.2812C93.8986 32.2474 93.9392 32.2046 93.9704 32.155C94.5613 31.207 95.1208 30.723 95.6344 30.723C96.2276 30.8257 96.7912 31.0567 97.2859 31.3999L97.6974 31.6128C97.9519 31.7439 98.1209 31.8282 98.2043 31.8658L98.6119 32.0423C98.8116 32.1307 99.0212 32.1947 99.2362 32.2332C99.4863 32.2684 99.7388 32.2838 99.9913 32.2791C100.467 32.2484 100.922 32.0698 101.292 31.7683C101.663 31.521 101.994 31.218 102.273 30.87C102.464 30.6151 102.686 30.2906 102.949 29.8772C103.011 29.7796 103.032 29.6615 103.007 29.5485C102.983 29.4355 102.915 29.3365 102.819 29.2729L102.122 28.8166C102.073 28.7847 102.018 28.763 101.96 28.7525C101.902 28.742 101.843 28.743 101.786 28.7555C101.729 28.768 101.675 28.7919 101.627 28.8257C101.579 28.8594 101.539 28.9025 101.508 28.9522C100.917 29.9002 100.357 30.3842 99.8433 30.3842C99.2484 30.2812 98.6831 30.0495 98.187 29.7054C98.152 29.6888 98.0161 29.6188 97.7794 29.4954C97.5248 29.3649 97.3563 29.2806 97.2735 29.2424L96.8659 29.0657C96.6664 28.9775 96.4571 28.9134 96.2424 28.8748C95.992 28.8398 95.7392 28.8245 95.4864 28.829C95.0104 28.8598 94.5559 29.0382 94.1862 29.3397C93.8154 29.5875 93.4844 29.8905 93.2048 30.238C93.0139 30.4977 92.7819 30.8318 92.5289 31.2318C92.4676 31.3293 92.447 31.4468 92.4712 31.5594C92.4955 31.672 92.5627 31.7706 92.6587 31.8342Z"
            fill="#0088A4" />
    </g>
    <defs>
        <clipPath id="clip0_307_49576">
            <rect width="119.372" height="48" fill="white" />
        </clipPath>
    </defs>
</svg>