<svg width="154" height="48" viewBox="0 0 154 48" fill="none" xmlns="http://www.w3.org/2000/svg">
<g clip-path="url(#clip0_1498_11755)">
<path d="M56.2287 7.38306H58.7844C59.3838 7.38306 59.8781 7.87736 59.8781 8.47683V35.7897C59.8781 36.1683 60.1831 36.4733 60.5618 36.4733H76.7686C77.3681 36.4733 77.8624 36.9676 77.8624 37.5671V39.5128C77.8624 40.1122 77.3681 40.6065 76.7686 40.6065H56.2287C55.6292 40.6065 55.1349 40.1122 55.1349 39.5128V8.47683C55.1349 7.87736 55.6292 7.38306 56.2287 7.38306Z" fill="#035C8C"/>
<path d="M104.176 32.298H87.4329C87.1595 32.298 86.9071 32.4663 86.7914 32.7187L83.6047 39.9545C83.4259 40.3541 83.0368 40.6065 82.6056 40.6065H80.1235C79.3243 40.6065 78.7984 39.7862 79.1244 39.0605L93.1753 8.0246C93.3541 7.63547 93.7432 7.38306 94.1744 7.38306H97.4662C97.8974 7.38306 98.2866 7.63547 98.4653 8.0246L112.558 39.0605C112.884 39.7862 112.358 40.6065 111.559 40.6065H108.982C108.551 40.6065 108.152 40.3541 107.983 39.9545L104.797 32.7187C104.681 32.4663 104.439 32.298 104.155 32.298H104.176ZM102.641 27.7441L96.2988 13.3462C96.1095 12.915 95.4995 12.915 95.3102 13.3462L88.9684 27.7441C88.8107 28.1017 89.0736 28.5014 89.4627 28.5014H102.136C102.525 28.5014 102.788 28.1017 102.63 27.7441H102.641Z" fill="#035C8C"/>
<path d="M118.164 7.38306H120.72C121.319 7.38306 121.813 7.87736 121.813 8.47683V39.5128C121.813 40.1122 121.319 40.6065 120.72 40.6065H118.164C117.564 40.6065 117.07 40.1122 117.07 39.5128V8.47683C117.07 7.87736 117.564 7.38306 118.164 7.38306Z" fill="#035C8C"/>
<path d="M133.098 39.8177C131.142 39.1657 129.543 38.3558 128.292 37.3777C127.892 37.0622 127.755 36.5048 127.976 36.0421L128.776 34.3593C129.06 33.7494 129.838 33.5285 130.385 33.9176C131.468 34.6959 132.751 35.348 134.234 35.8843C136.211 36.5995 138.241 36.9571 140.334 36.9571C143.089 36.9571 145.14 36.4943 146.507 35.5583C147.864 34.6223 148.548 33.3813 148.548 31.8352C148.548 30.6994 148.18 29.7739 147.433 29.0587C146.686 28.3436 145.771 27.7967 144.677 27.4181C143.584 27.0395 142.048 26.6082 140.05 26.135C137.547 25.5355 135.538 24.936 134.003 24.3366C132.467 23.7371 131.152 22.8116 130.059 21.56C128.965 20.3085 128.418 18.6258 128.418 16.5013C128.418 14.7345 128.881 13.1359 129.817 11.7055C130.753 10.2857 132.162 9.13936 134.066 8.28748C135.959 7.43559 138.325 7.00439 141.133 7.00439C143.1 7.00439 145.025 7.2568 146.928 7.76162C148.464 8.17179 149.82 8.7292 151.009 9.42333C151.482 9.69677 151.671 10.2857 151.471 10.7905L150.735 12.5785C150.483 13.1779 149.778 13.4303 149.2 13.1148C148.117 12.5259 146.981 12.0631 145.792 11.7161C144.215 11.2533 142.658 11.0324 141.144 11.0324C138.451 11.0324 136.443 11.5267 135.096 12.5048C133.75 13.4829 133.077 14.7555 133.077 16.3015C133.077 17.4373 133.456 18.3629 134.213 19.078C134.97 19.7932 135.917 20.3401 137.032 20.7397C138.157 21.1394 139.682 21.5495 141.606 22.0018C144.11 22.6012 146.118 23.2007 147.633 23.8002C149.147 24.3997 150.451 25.3146 151.545 26.5557C152.639 27.7862 153.186 29.4479 153.186 31.5408C153.186 33.2761 152.713 34.8747 151.766 36.305C150.819 37.7459 149.379 38.8817 147.443 39.7231C145.508 40.5644 143.142 40.9851 140.323 40.9851C137.82 40.9851 135.412 40.596 133.088 39.8177H133.098Z" fill="#035C8C"/>
<path d="M46.3111 22.1807C45.312 22.1807 44.4916 22.9905 44.4916 24.0001C44.4916 35.2219 35.3628 44.3612 24.1305 44.3612C15.6012 44.3612 7.91321 38.9765 4.99997 30.9729C4.8317 30.5207 4.50567 30.1526 4.06395 29.9528C3.62223 29.753 3.12792 29.7319 2.67569 29.8897C1.73967 30.2368 1.24536 31.2779 1.59243 32.214C5.03152 41.6583 14.0867 48.0001 24.1411 48.0001C37.3716 48.0001 48.1306 37.2411 48.1306 24.0106C48.1306 23.0115 47.3207 22.1912 46.3111 22.1912V22.1807Z" fill="#035C8C"/>
<path d="M46.3111 22.1807H34.9526L30.851 13.0203C30.546 12.3472 29.8729 11.9265 29.1262 11.9475C28.3794 11.9791 27.7379 12.4418 27.4855 13.136L22.7844 26.0404L19.198 17.0904C18.9246 16.4173 18.283 15.9651 17.5574 15.9545H17.5153C16.8001 15.9545 16.1586 16.3752 15.8641 17.0168L13.5293 22.1807H1.97103C0.971909 22.1807 0.151581 22.9905 0.151581 24.0001C0.151581 25.0098 0.961392 25.8196 1.97103 25.8196H14.7072C15.4224 25.8196 16.0639 25.3989 16.3584 24.7573L17.4206 22.412L21.1858 31.8143C21.4592 32.5084 22.1218 32.9502 22.8685 32.9502H22.9C23.6468 32.9396 24.3199 32.4559 24.5723 31.7617L29.3681 18.6048L32.1235 24.7573C32.418 25.4094 33.0701 25.8301 33.7852 25.8301H46.3216C47.3207 25.8301 48.1411 25.0203 48.1411 24.0106C48.1411 23.001 47.3312 22.1912 46.3216 22.1912L46.3111 22.1807Z" fill="#035C8C"/>
<path d="M46.6897 15.7862C43.2506 6.34181 34.1954 0 24.1411 0C10.9106 0 0.151581 10.759 0.151581 23.9895C0.151581 24.9886 0.961392 25.8089 1.97103 25.8089C2.98067 25.8089 3.79049 24.9991 3.79049 23.9895C3.79049 12.7677 12.9193 3.6284 24.1516 3.6284C32.6809 3.6284 40.3689 9.01315 43.2822 17.0167C43.4504 17.4689 43.787 17.837 44.2182 18.0368C44.6599 18.2366 45.1542 18.2577 45.6065 18.0999C46.0587 17.9316 46.4268 17.6056 46.6266 17.1639C46.8264 16.7222 46.8475 16.2279 46.6897 15.7756V15.7862Z" fill="#035C8C"/>
</g>
<defs>
<clipPath id="clip0_1498_11755">
<rect width="153.034" height="48" fill="white" transform="translate(0.151581)"/>
</clipPath>
</defs>
</svg>
