<svg width="198" height="48" viewBox="0 0 198 48" fill="none" xmlns="http://www.w3.org/2000/svg">
<path d="M5.0545 20.5845V16.804L3.49248 19.6726H2.99983L1.43143 16.804V20.5845H0.596161V15.2793H1.49315L3.24882 18.5235L5.00449 15.2793H5.90148V20.5845H5.0545Z" fill="#222221"/>
<path d="M8.58926 20.5845V15.2793H9.42454V20.5845H8.58926Z" fill="#222221"/>
<path d="M12.9518 16.8338V20.5845H12.1165V15.2793H12.8029L15.8098 19.114V15.2867H16.6515V20.5845H15.9184L12.9518 16.8338Z" fill="#222221"/>
<path d="M19.3393 20.5845V15.2793H20.1745V20.5845H19.3393Z" fill="#222221"/>
<path d="M26.0044 16.5264C25.8906 16.3998 25.6959 16.2785 25.4203 16.1614C25.1458 16.0444 24.8617 15.9859 24.5701 15.9859C24.2254 15.9859 23.9657 16.0497 23.7944 16.1774C23.6231 16.3051 23.538 16.4859 23.538 16.719C23.538 16.7924 23.5476 16.8573 23.5667 16.9169C23.5859 16.9754 23.6103 17.0265 23.6412 17.0722C23.671 17.1169 23.7168 17.1605 23.7774 17.202C23.8391 17.2435 23.8987 17.2786 23.9583 17.3084C24.0189 17.3372 24.0998 17.3691 24.203 17.401C24.3073 17.434 24.4041 17.4616 24.4935 17.4851C24.5839 17.5085 24.7021 17.5383 24.8478 17.5744C25.0819 17.6308 25.2809 17.6862 25.4469 17.7404C25.6118 17.7947 25.7714 17.8649 25.9246 17.9479C26.0779 18.032 26.2002 18.1256 26.2928 18.2288C26.3854 18.332 26.4588 18.4576 26.5141 18.6065C26.5684 18.7555 26.5961 18.9236 26.5961 19.1141C26.5961 19.3258 26.562 19.5173 26.495 19.6876C26.4279 19.8578 26.3364 20.0015 26.2194 20.1174C26.1034 20.2345 25.9619 20.3324 25.7959 20.4111C25.631 20.4909 25.4533 20.5473 25.2628 20.5824C25.0734 20.6175 24.8691 20.6356 24.6499 20.6356C24.2466 20.6356 23.8561 20.5739 23.4795 20.4515C23.1017 20.3281 22.7623 20.1515 22.4612 19.9206L22.8442 19.2024C22.9975 19.3599 23.2475 19.5131 23.5933 19.6599C23.9402 19.8067 24.2967 19.8812 24.6638 19.8812C24.9957 19.8812 25.25 19.8227 25.4288 19.7057C25.6076 19.5886 25.6969 19.4205 25.6969 19.2024C25.6969 19.1141 25.6831 19.0353 25.6565 18.9651C25.631 18.8949 25.5841 18.831 25.5182 18.7736C25.4522 18.7161 25.3852 18.6672 25.316 18.6257C25.2468 18.5842 25.149 18.5416 25.0213 18.498C24.8936 18.4544 24.7765 18.4171 24.6712 18.3884C24.5648 18.3597 24.4222 18.3214 24.2424 18.2756C23.9625 18.2022 23.7316 18.1277 23.5486 18.0522C23.3667 17.9766 23.206 17.8841 23.0656 17.7755C22.9251 17.6659 22.824 17.5361 22.7612 17.3872C22.6974 17.2371 22.6665 17.0605 22.6665 16.8562C22.6665 16.6009 22.7155 16.37 22.8144 16.1646C22.9134 15.9592 23.0485 15.789 23.2209 15.6549C23.3933 15.5209 23.5976 15.4187 23.8306 15.3485C24.0636 15.2783 24.3179 15.2432 24.5925 15.2432C25.2437 15.2432 25.8416 15.4432 26.3843 15.8411L26.0044 16.5264Z" fill="#222221"/>
<path d="M32.8196 16.0199H31.0565V20.5845H30.2095V16.0199H28.44V15.2793H32.8186V16.0199H32.8196Z" fill="#222221"/>
<path d="M38.6602 19.844V20.5845H35.0222V15.2793H38.5953V16.0199H35.8586V17.5266H38.226V18.2235H35.8586V19.844H38.6602ZM37.1748 14.7314L36.6342 14.5675L37.0609 13.7461H37.8462L37.1748 14.7314Z" fill="#222221"/>
<path d="M41.0202 20.5845V15.2793H43.3302C43.5611 15.2793 43.7814 15.3293 43.9889 15.4293C44.1964 15.5293 44.3709 15.6602 44.5113 15.823C44.6528 15.9858 44.7646 16.1709 44.8476 16.3774C44.9306 16.5838 44.9721 16.7934 44.9721 17.0051C44.9721 17.3648 44.8774 17.6904 44.6869 17.9808C44.4964 18.2724 44.2464 18.4671 43.9357 18.5661L45.1827 20.5845H44.2421L43.0887 18.7384H41.8555V20.5845H41.0202ZM41.8555 17.9979H43.3217C43.5526 17.9979 43.7442 17.901 43.8942 17.7074C44.0453 17.5137 44.1208 17.2797 44.1208 17.0051C44.1208 16.7359 44.0357 16.504 43.8655 16.3103C43.6952 16.1167 43.4984 16.0199 43.2738 16.0199H41.8555V17.9979Z" fill="#222221"/>
<path d="M47.4513 20.5845V15.2793H48.2866V20.5845H47.4513Z" fill="#222221"/>
<path d="M50.6423 17.9319C50.6423 17.5808 50.7072 17.2425 50.8381 16.9158C50.9679 16.5891 51.1446 16.3019 51.368 16.0571C51.5925 15.8113 51.8639 15.6145 52.182 15.4655C52.5012 15.3176 52.8385 15.2432 53.196 15.2432C53.5642 15.2432 53.9079 15.3208 54.2292 15.4762C54.5506 15.6326 54.8187 15.8369 55.0336 16.0912C55.2486 16.3455 55.4178 16.6338 55.5433 16.9562C55.6667 17.2786 55.7295 17.6063 55.7295 17.9405C55.7295 18.2905 55.6635 18.6289 55.5337 18.9545C55.4039 19.2811 55.2273 19.5663 55.007 19.8121C54.7857 20.0578 54.5154 20.2547 54.1962 20.4015C53.8781 20.5494 53.5397 20.6228 53.1822 20.6228C52.8864 20.6228 52.6034 20.5739 52.3363 20.4749C52.0682 20.376 51.833 20.2409 51.6298 20.0685C51.4276 19.8961 51.2499 19.6961 51.1009 19.4694C50.9509 19.2439 50.8381 18.9981 50.7604 18.7342C50.6806 18.4693 50.6423 18.2022 50.6423 17.9319ZM53.1886 19.8663C53.4461 19.8663 53.6834 19.8099 53.9004 19.6982C54.1164 19.5865 54.2941 19.4386 54.4325 19.2545C54.5718 19.0704 54.6793 18.8651 54.7559 18.6363C54.8325 18.4076 54.8708 18.1724 54.8708 17.9319C54.8708 17.6808 54.8293 17.4393 54.7485 17.2073C54.6676 16.9754 54.5548 16.769 54.4122 16.5902C54.2697 16.4115 54.092 16.2689 53.8792 16.1635C53.6674 16.0571 53.4365 16.005 53.1875 16.005C52.93 16.005 52.6917 16.0603 52.4746 16.171C52.2565 16.2816 52.0777 16.4285 51.9362 16.6104C51.7947 16.7924 51.6862 16.9977 51.6074 17.2265C51.5297 17.4553 51.4914 17.6904 51.4914 17.9309C51.4914 18.266 51.5585 18.5799 51.6936 18.8725C51.8277 19.1641 52.0277 19.4035 52.2905 19.5876C52.5534 19.7738 52.8534 19.8663 53.1886 19.8663Z" fill="#222221"/>
<path d="M61.4286 20.5845V15.2793H63.3109C63.7269 15.2793 64.1004 15.3474 64.4334 15.4857C64.7654 15.623 65.0378 15.8124 65.2485 16.055C65.4602 16.2976 65.6219 16.5763 65.7326 16.8945C65.8433 17.2116 65.8975 17.5552 65.8975 17.9255C65.8975 18.7288 65.6624 19.3726 65.1921 19.8578C64.7207 20.343 64.094 20.5856 63.3109 20.5856H61.4286V20.5845ZM63.3119 16.0199H62.2649V19.8439H63.3119C63.6769 19.8439 63.9918 19.7588 64.2557 19.5907C64.5196 19.4215 64.7175 19.1938 64.8484 18.9065C64.9803 18.6193 65.0463 18.2926 65.0463 17.9244C65.0463 17.3584 64.892 16.8987 64.5845 16.5476C64.2759 16.1954 63.8514 16.0199 63.3119 16.0199Z" fill="#222221"/>
<path d="M69.6121 15.2793H70.4037L72.4659 20.5845H71.5827L71.0241 19.1438H68.9769L68.4225 20.5845H67.5319L69.6121 15.2793ZM70.8602 18.5224L70.0058 16.1975L69.1269 18.5224H70.8602Z" fill="#222221"/>
<path d="M45.3711 27.5005C45.3487 27.4888 45.32 27.4718 45.2827 27.4494C45.2466 27.4271 45.1721 27.3888 45.0604 27.3324C44.9486 27.277 44.839 27.227 44.7316 27.1845C44.6241 27.1419 44.4996 27.1025 44.3581 27.0674C44.2155 27.0323 44.0846 27.0142 43.9655 27.0142C43.6803 27.0142 43.5388 27.1025 43.5388 27.277C43.5388 27.3164 43.5462 27.3515 43.5601 27.3824C43.5739 27.4143 43.5962 27.4441 43.6303 27.4707C43.6643 27.4973 43.6973 27.5207 43.7314 27.5398C43.7633 27.5601 43.8144 27.5813 43.8825 27.6058C43.9506 27.6303 44.0091 27.6494 44.058 27.6643C44.107 27.6792 44.1804 27.7016 44.2804 27.7314C44.3804 27.7622 44.4613 27.7867 44.5252 27.8059C44.739 27.8718 44.921 27.9357 45.071 27.9995C45.221 28.0633 45.3657 28.14 45.5073 28.2315C45.6477 28.3219 45.7605 28.423 45.8456 28.5326C45.9308 28.6422 45.9988 28.7741 46.0478 28.9284C46.0978 29.0827 46.1223 29.2572 46.1223 29.4519C46.1223 29.6977 46.0829 29.919 46.0063 30.1158C45.9286 30.3137 45.8254 30.4744 45.6977 30.6C45.57 30.7255 45.4168 30.8287 45.2391 30.9117C45.0614 30.9947 44.8805 31.0532 44.6933 31.0873C44.5071 31.1213 44.3113 31.1384 44.1049 31.1384C43.7229 31.1384 43.3217 31.082 42.9046 30.9692C42.4854 30.8564 42.1172 30.7053 41.7991 30.5191L42.4269 29.2412C42.4503 29.2582 42.4843 29.2795 42.5269 29.3051C42.5694 29.3306 42.6567 29.3763 42.7897 29.4434C42.9216 29.5104 43.0525 29.5689 43.1813 29.6211C43.31 29.6721 43.4632 29.719 43.6399 29.7615C43.8165 29.8041 43.9793 29.8254 44.1304 29.8254C44.4134 29.8254 44.5539 29.7477 44.5539 29.5913C44.5539 29.5328 44.5358 29.4817 44.4996 29.4359C44.4634 29.3902 44.4017 29.3497 44.3166 29.3114C44.2315 29.2742 44.1495 29.2423 44.0697 29.2167C43.991 29.1912 43.8782 29.1572 43.7335 29.1146C43.5888 29.072 43.4696 29.0348 43.3739 29.0029C42.8982 28.8422 42.5535 28.6496 42.3439 28.424C42.1332 28.1995 42.0278 27.8952 42.0278 27.5132C42.0278 27.2292 42.0821 26.9706 42.1896 26.7397C42.2981 26.5088 42.4439 26.3194 42.6269 26.1736C42.811 26.0279 43.0206 25.9162 43.2568 25.8374C43.493 25.7597 43.7431 25.7214 44.008 25.7214C44.5752 25.7214 45.2381 25.9119 45.9978 26.2939L45.3711 27.5005Z" fill="#222221"/>
<path d="M49.3495 25.7673H50.9775L52.6672 31.0725H51.1893L50.8679 30.033H49.4527L49.1388 31.0725H47.6534L49.3495 25.7673ZM50.6338 29.0615L50.1625 27.1931L49.6698 29.0615H50.6338Z" fill="#222221"/>
<path d="M56.7191 31.1161C56.3882 31.1161 56.0881 31.0703 55.82 30.9778C55.5508 30.8863 55.3241 30.7586 55.1411 30.5979C54.957 30.4372 54.8038 30.2457 54.6793 30.0212C54.5548 29.7967 54.4654 29.5584 54.409 29.3041C54.3526 29.0498 54.325 28.7795 54.325 28.4922V25.7662H55.7838V28.4922C55.7838 28.6742 55.8019 28.8433 55.837 28.9997C55.8721 29.1562 55.9264 29.2955 55.9977 29.4211C56.0689 29.5467 56.1658 29.6456 56.2892 29.7169C56.4116 29.7882 56.5541 29.8244 56.7169 29.8244C56.8819 29.8244 57.0276 29.7871 57.1511 29.7148C57.2745 29.6424 57.3724 29.5413 57.4437 29.4136C57.515 29.286 57.5692 29.1445 57.6044 28.9902C57.6395 28.8359 57.6576 28.6699 57.6576 28.4922V25.7662H59.1142V28.4922C59.1142 28.8699 59.0653 29.2147 58.9674 29.5286C58.8706 29.8424 58.7259 30.118 58.5354 30.3574C58.3449 30.5968 58.0938 30.782 57.7842 30.916C57.4767 31.0501 57.1202 31.1161 56.7191 31.1161ZM57.1681 25.5406L56.27 25.3033L56.6425 24.2415H57.9055L57.1681 25.5406Z" fill="#222221"/>
<path d="M61.4466 31.0725V25.7673H63.4864C63.9141 25.7673 64.3015 25.8354 64.6451 25.9738C64.9888 26.111 65.2697 26.3004 65.4879 26.543C65.7049 26.7856 65.872 27.0644 65.988 27.3825C66.1029 27.6996 66.1614 28.0433 66.1614 28.4135C66.1614 29.2169 65.9167 29.8606 65.4293 30.3458C64.9409 30.831 64.2929 31.0736 63.4853 31.0736H61.4466V31.0725ZM63.4864 27.0367H62.9033V29.8032H63.4864C63.8588 29.8032 64.1514 29.6744 64.3642 29.4159C64.576 29.1584 64.6834 28.8243 64.6834 28.4125C64.6834 27.9965 64.576 27.6634 64.3621 27.4134C64.1482 27.1623 63.8556 27.0367 63.4864 27.0367Z" fill="#222221"/>
<path d="M72.0711 29.8032V31.0725H68.2906V25.7673H72.0062V27.0367H69.7472V27.7847H71.6774V28.9636H69.7472V29.8032H72.0711Z" fill="#222221"/>
<path d="M100.999 46.9573C100.756 46.9573 100.537 46.9211 100.344 46.8488C100.15 46.7764 99.9894 46.6807 99.8607 46.5594C99.733 46.4392 99.6266 46.2934 99.5415 46.1231C99.4564 45.9529 99.3957 45.7741 99.3595 45.5879C99.3223 45.4017 99.3042 45.2028 99.3042 44.9921V43.0002H99.9256V44.9932C99.9256 45.1432 99.9362 45.2836 99.9575 45.4166C99.9788 45.5496 100.016 45.6763 100.069 45.7997C100.122 45.922 100.188 46.0274 100.268 46.1136C100.348 46.1997 100.449 46.27 100.574 46.3221C100.698 46.3742 100.84 46.4008 100.998 46.4008C101.159 46.4008 101.301 46.3742 101.427 46.321C101.553 46.2678 101.655 46.1976 101.733 46.1093C101.813 46.021 101.878 45.9157 101.93 45.7933C101.982 45.6709 102.019 45.5443 102.04 45.4134C102.061 45.2826 102.071 45.1432 102.071 44.9953V43.0002H102.697V44.9932C102.697 45.2687 102.666 45.523 102.601 45.7539C102.536 45.9859 102.437 46.1923 102.305 46.3753C102.172 46.5583 101.995 46.7009 101.772 46.8041C101.551 46.9063 101.293 46.9573 100.999 46.9573Z" fill="black"/>
<path d="M105.251 44.1515V46.9307H104.632V43.0002H105.14L107.369 45.8422V43.0066H107.993V46.9329H107.449L105.251 44.1515Z" fill="black"/>
<path d="M109.984 46.9307V43.0002H110.603V46.9318H109.984V46.9307Z" fill="black"/>
<path d="M113.733 43.0002H114.319L115.847 46.9318H115.192L114.779 45.8635H113.262L112.852 46.9318H112.192L113.733 43.0002ZM113.66 42.2639C113.603 42.2639 113.554 42.2756 113.514 42.3001C113.475 42.3246 113.446 42.3544 113.43 42.3895C113.414 42.4246 113.404 42.4533 113.399 42.4757C113.393 42.498 113.39 42.5161 113.39 42.5278H113.046C113.046 42.5012 113.052 42.464 113.062 42.4171C113.073 42.3703 113.093 42.3161 113.123 42.2533C113.153 42.1916 113.189 42.1331 113.231 42.0799C113.274 42.0267 113.33 41.982 113.402 41.9447C113.473 41.9075 113.552 41.8894 113.638 41.8894C113.729 41.8894 113.818 41.9096 113.9 41.95C113.983 41.9905 114.061 42.0309 114.138 42.0713C114.214 42.1118 114.288 42.132 114.363 42.132C114.413 42.132 114.457 42.1235 114.497 42.1054C114.535 42.0873 114.565 42.0671 114.586 42.0437C114.607 42.0203 114.623 41.9947 114.636 41.9671C114.649 41.9394 114.656 41.9171 114.659 41.9011C114.663 41.8851 114.664 41.8724 114.664 41.8628H115.013C115.013 41.8862 115.007 41.9203 114.995 41.966C114.983 42.0107 114.962 42.065 114.93 42.1277C114.898 42.1905 114.859 42.249 114.815 42.3033C114.77 42.3576 114.708 42.4033 114.633 42.4427C114.556 42.481 114.472 42.5012 114.38 42.5012C114.284 42.5012 114.193 42.481 114.106 42.4416C114.02 42.4023 113.94 42.3618 113.867 42.3224C113.794 42.2841 113.725 42.2639 113.66 42.2639ZM114.657 45.4028L114.024 43.6801L113.373 45.4028H114.657Z" fill="black"/>
<path d="M117.043 44.9656C117.043 44.7059 117.091 44.4548 117.188 44.2122C117.284 43.9696 117.415 43.7579 117.581 43.576C117.747 43.394 117.948 43.2482 118.185 43.1376C118.421 43.028 118.671 42.9727 118.936 42.9727C119.208 42.9727 119.464 43.0301 119.701 43.1461C119.939 43.261 120.137 43.4132 120.297 43.6015C120.456 43.7898 120.582 44.0037 120.673 44.242C120.765 44.4804 120.812 44.724 120.812 44.9709C120.812 45.2305 120.764 45.4806 120.667 45.7221C120.57 45.9636 120.44 46.1754 120.276 46.3573C120.113 46.5392 119.913 46.685 119.676 46.7936C119.44 46.9031 119.19 46.9574 118.925 46.9574C118.705 46.9574 118.496 46.9212 118.297 46.8478C118.098 46.7744 117.925 46.6744 117.774 46.5467C117.624 46.419 117.493 46.2711 117.382 46.103C117.272 45.9349 117.188 45.754 117.129 45.5582C117.072 45.3635 117.043 45.1656 117.043 44.9656ZM118.93 46.3977C119.122 46.3977 119.298 46.3562 119.458 46.2732C119.619 46.1903 119.75 46.0807 119.853 45.9445C119.956 45.8083 120.036 45.6561 120.092 45.4859C120.149 45.3167 120.178 45.1422 120.178 44.9645C120.178 44.7794 120.148 44.5995 120.087 44.4282C120.026 44.2559 119.943 44.1037 119.838 43.9718C119.733 43.8388 119.601 43.7334 119.443 43.6558C119.286 43.577 119.115 43.5377 118.932 43.5377C118.74 43.5377 118.564 43.5792 118.403 43.6611C118.241 43.743 118.109 43.8515 118.004 43.9867C117.899 44.1218 117.819 44.274 117.76 44.4431C117.703 44.6123 117.674 44.7868 117.674 44.9645C117.674 45.2135 117.724 45.4454 117.824 45.6625C117.924 45.8785 118.071 46.0551 118.265 46.1924C118.46 46.3296 118.681 46.3977 118.93 46.3977Z" fill="black"/>
<path d="M127.726 46.3817V46.9307H125.031V43.0002H127.678V43.5493H125.65V44.6654H127.405V45.1815H125.65V46.3817H127.726Z" fill="black"/>
<path d="M131.942 46.9307V43.0002H133.654C133.825 43.0002 133.988 43.0375 134.142 43.1109C134.296 43.1854 134.426 43.2822 134.53 43.4024C134.635 43.5227 134.718 43.6599 134.779 43.8132C134.841 43.9664 134.871 44.1217 134.871 44.2781C134.871 44.5452 134.801 44.7857 134.66 45.0017C134.52 45.2166 134.334 45.3613 134.104 45.4358L135.028 46.9307H134.33L133.476 45.5624H132.562V46.9307H131.942ZM132.561 45.0144H133.648C133.82 45.0144 133.961 44.9431 134.073 44.7995C134.185 44.6559 134.241 44.4824 134.241 44.2792C134.241 44.0792 134.178 43.9079 134.052 43.7642C133.925 43.6206 133.779 43.5493 133.613 43.5493H132.562V45.0144H132.561Z" fill="black"/>
<path d="M139.403 46.3817V46.9307H136.707V43.0002H139.355V43.5493H137.327V44.6654H139.081V45.1815H137.327V46.3817H139.403Z" fill="black"/>
<path d="M142.728 42.9778C143.073 42.9778 143.375 43.0555 143.634 43.2119C143.895 43.3683 144.091 43.5758 144.223 43.8354L143.737 44.162C143.684 44.0482 143.618 43.9503 143.54 43.8662C143.461 43.7822 143.374 43.7173 143.28 43.6715C143.186 43.6258 143.092 43.5917 142.998 43.5704C142.903 43.5492 142.807 43.5385 142.708 43.5385C142.549 43.5385 142.401 43.5662 142.264 43.6215C142.127 43.6768 142.01 43.7503 141.913 43.8418C141.815 43.9333 141.732 44.0407 141.662 44.1631C141.591 44.2855 141.539 44.4142 141.506 44.5493C141.473 44.6845 141.456 44.8217 141.456 44.96C141.456 45.2143 141.511 45.4516 141.617 45.6708C141.724 45.8911 141.877 46.0677 142.072 46.2018C142.269 46.3358 142.486 46.4029 142.724 46.4029C142.859 46.4029 142.991 46.3816 143.119 46.339C143.248 46.2965 143.373 46.2252 143.493 46.1251C143.613 46.0251 143.705 45.9017 143.769 45.7559L144.286 46.0475C144.208 46.2347 144.082 46.3997 143.907 46.5422C143.732 46.6848 143.54 46.7902 143.331 46.8583C143.123 46.9264 142.912 46.9615 142.701 46.9615C142.434 46.9615 142.183 46.9029 141.946 46.7859C141.708 46.6689 141.509 46.5146 141.348 46.3241C141.186 46.1337 141.059 45.9166 140.965 45.674C140.871 45.4314 140.824 45.1856 140.824 44.9377C140.824 44.7462 140.851 44.5568 140.905 44.3685C140.959 44.1801 141.04 44.0024 141.15 43.8354C141.259 43.6683 141.388 43.5215 141.538 43.3938C141.688 43.2661 141.865 43.164 142.071 43.0895C142.277 43.015 142.496 42.9778 142.728 42.9778Z" fill="black"/>
<path d="M145.668 44.9656C145.668 44.7059 145.716 44.4548 145.812 44.2122C145.909 43.9696 146.04 43.7579 146.206 43.576C146.372 43.394 146.573 43.2482 146.809 43.1376C147.046 43.028 147.296 42.9727 147.561 42.9727C147.833 42.9727 148.088 43.0301 148.326 43.1461C148.564 43.261 148.762 43.4132 148.922 43.6015C149.081 43.7898 149.207 44.0037 149.298 44.242C149.39 44.4804 149.437 44.724 149.437 44.9709C149.437 45.2305 149.389 45.4806 149.292 45.7221C149.195 45.9636 149.065 46.1754 148.901 46.3573C148.738 46.5392 148.537 46.685 148.301 46.7936C148.065 46.9031 147.815 46.9574 147.55 46.9574C147.33 46.9574 147.121 46.9212 146.922 46.8478C146.724 46.7744 146.55 46.6744 146.399 46.5467C146.249 46.419 146.118 46.2711 146.007 46.103C145.896 45.9349 145.812 45.754 145.754 45.5582C145.696 45.3635 145.668 45.1656 145.668 44.9656ZM147.554 46.3977C147.746 46.3977 147.921 46.3562 148.082 46.2732C148.243 46.1903 148.374 46.0807 148.477 45.9445C148.58 45.8083 148.66 45.6561 148.716 45.4859C148.773 45.3167 148.801 45.1422 148.801 44.9645C148.801 44.7794 148.772 44.5995 148.711 44.4282C148.65 44.2559 148.567 44.1037 148.462 43.9718C148.357 43.8388 148.225 43.7334 148.067 43.6558C147.91 43.577 147.738 43.5377 147.555 43.5377C147.364 43.5377 147.188 43.5792 147.027 43.6611C146.865 43.743 146.733 43.8515 146.627 43.9867C146.523 44.1218 146.442 44.274 146.384 44.4431C146.326 44.6123 146.298 44.7868 146.298 44.9645C146.298 45.2135 146.348 45.4454 146.448 45.6625C146.548 45.8785 146.695 46.0551 146.889 46.1924C147.084 46.3296 147.305 46.3977 147.554 46.3977Z" fill="black"/>
<path d="M151.806 44.1515V46.9307H151.187V43.0002H151.696L153.924 45.8422V43.0066H154.548V46.9329H154.005L151.806 44.1515Z" fill="black"/>
<path d="M158.864 43.9249C158.779 43.8312 158.635 43.7408 158.432 43.6546C158.229 43.5684 158.018 43.5248 157.802 43.5248C157.547 43.5248 157.355 43.5716 157.228 43.6663C157.1 43.761 157.037 43.8951 157.037 44.0674C157.037 44.1217 157.044 44.1707 157.058 44.2132C157.073 44.2568 157.091 44.2951 157.114 44.3281C157.136 44.3611 157.17 44.393 157.215 44.4239C157.259 44.4547 157.304 44.4803 157.349 44.5026C157.393 44.5239 157.453 44.5473 157.53 44.5718C157.606 44.5963 157.678 44.6165 157.745 44.6335C157.812 44.6505 157.899 44.6729 158.006 44.6995C158.18 44.741 158.327 44.7825 158.45 44.8229C158.572 44.8633 158.691 44.9144 158.804 44.9772C158.918 45.0389 159.009 45.1091 159.078 45.1857C159.146 45.2623 159.201 45.356 159.242 45.4656C159.282 45.5752 159.302 45.7007 159.302 45.8412C159.302 45.9976 159.278 46.1391 159.228 46.2657C159.178 46.3923 159.11 46.4987 159.024 46.5849C158.937 46.6711 158.832 46.7445 158.71 46.803C158.587 46.8616 158.455 46.9041 158.315 46.9297C158.174 46.9563 158.023 46.969 157.861 46.969C157.562 46.969 157.272 46.9233 156.992 46.8328C156.713 46.7413 156.461 46.6104 156.238 46.4391L156.522 45.9061C156.636 46.0231 156.821 46.1359 157.077 46.2455C157.334 46.3551 157.599 46.4094 157.871 46.4094C158.116 46.4094 158.305 46.3657 158.437 46.2795C158.57 46.1934 158.636 46.0689 158.636 45.9061C158.636 45.8412 158.627 45.7826 158.606 45.7305C158.586 45.6784 158.552 45.6305 158.503 45.589C158.454 45.5464 158.404 45.5103 158.353 45.4794C158.302 45.4485 158.229 45.4177 158.134 45.3847C158.039 45.3517 157.953 45.3251 157.874 45.3038C157.796 45.2826 157.69 45.2538 157.556 45.2198C157.349 45.1655 157.177 45.1102 157.042 45.0549C156.907 44.9995 156.788 44.9304 156.684 44.8495C156.581 44.7686 156.505 44.6729 156.458 44.5611C156.411 44.4505 156.388 44.3196 156.388 44.1675C156.388 43.9781 156.424 43.8078 156.498 43.6557C156.571 43.5035 156.671 43.378 156.799 43.279C156.926 43.1801 157.077 43.1045 157.25 43.0524C157.423 43.0002 157.611 42.9736 157.815 42.9736C158.298 42.9736 158.741 43.1215 159.143 43.4173L158.864 43.9249Z" fill="black"/>
<path d="M163.914 43.5483H162.608V46.9308H161.981V43.5483H160.67V42.9993H163.914V43.5483Z" fill="black"/>
<path d="M165.546 46.9307V43.0002H167.257C167.428 43.0002 167.591 43.0375 167.746 43.1109C167.9 43.1854 168.029 43.2822 168.134 43.4024C168.238 43.5227 168.321 43.6599 168.383 43.8132C168.445 43.9664 168.474 44.1217 168.474 44.2781C168.474 44.5452 168.404 44.7857 168.264 45.0017C168.123 45.2166 167.937 45.3613 167.707 45.4358L168.632 46.9307H167.935L167.081 45.5624H166.167V46.9307H165.546ZM166.165 45.0144H167.253C167.424 45.0144 167.566 44.9431 167.677 44.7995C167.789 44.6559 167.845 44.4824 167.845 44.2792C167.845 44.0792 167.782 43.9079 167.655 43.7642C167.528 43.6206 167.383 43.5493 167.217 43.5493H166.165V45.0144Z" fill="black"/>
<path d="M171.944 46.9573C171.701 46.9573 171.482 46.9211 171.289 46.8488C171.095 46.7764 170.935 46.6807 170.806 46.5594C170.678 46.4392 170.572 46.2934 170.487 46.1231C170.401 45.9529 170.341 45.7741 170.305 45.5879C170.267 45.4017 170.249 45.2028 170.249 44.9921V43.0002H170.871V44.9932C170.871 45.1432 170.881 45.2836 170.903 45.4166C170.924 45.5496 170.961 45.6763 171.014 45.7997C171.068 45.922 171.133 46.0274 171.213 46.1136C171.292 46.1997 171.394 46.27 171.519 46.3221C171.643 46.3742 171.785 46.4008 171.943 46.4008C172.104 46.4008 172.246 46.3742 172.372 46.321C172.498 46.2678 172.6 46.1976 172.678 46.1093C172.757 46.021 172.823 45.9157 172.875 45.7933C172.927 45.6709 172.964 45.5443 172.985 45.4134C173.006 45.2826 173.016 45.1432 173.016 44.9953V43.0002H173.642V44.9932C173.642 45.2687 173.611 45.523 173.546 45.7539C173.481 45.9859 173.382 46.1923 173.25 46.3753C173.118 46.5583 172.94 46.7009 172.717 46.8041C172.497 46.9063 172.238 46.9573 171.944 46.9573Z" fill="black"/>
<path d="M178.789 46.0498C178.688 46.2913 178.515 46.4913 178.268 46.6488C178.021 46.8063 177.752 46.9063 177.459 46.9478C177.649 47.1063 177.743 47.284 177.743 47.4809C177.743 47.6394 177.69 47.766 177.584 47.8597C177.477 47.9533 177.328 48.0001 177.138 48.0001C176.911 48.0001 176.693 47.9469 176.487 47.8405L176.641 47.5138C176.781 47.5915 176.912 47.6298 177.033 47.6298C177.137 47.6298 177.219 47.6075 177.277 47.5639C177.336 47.5192 177.366 47.4553 177.366 47.3702C177.366 47.2255 177.267 47.0893 177.068 46.9595C176.817 46.9393 176.582 46.868 176.363 46.7435C176.144 46.619 175.96 46.4637 175.811 46.2753C175.661 46.0881 175.544 45.8785 175.458 45.6454C175.372 45.4124 175.329 45.1773 175.329 44.94C175.329 44.7485 175.356 44.5591 175.41 44.3707C175.464 44.1824 175.545 44.0047 175.655 43.8377C175.764 43.6706 175.893 43.5238 176.043 43.3961C176.193 43.2684 176.37 43.1663 176.576 43.0918C176.781 43.0173 177.001 42.979 177.233 42.979C177.577 42.979 177.879 43.0567 178.139 43.2131C178.399 43.3695 178.596 43.577 178.728 43.8366L178.241 44.1633C178.189 44.0494 178.123 43.9515 178.044 43.8675C177.966 43.7834 177.878 43.7185 177.785 43.6727C177.691 43.627 177.596 43.5929 177.503 43.5717C177.408 43.5504 177.311 43.5397 177.212 43.5397C177.054 43.5397 176.906 43.5674 176.769 43.6227C176.631 43.6781 176.514 43.7515 176.417 43.843C176.32 43.9345 176.237 44.042 176.166 44.1643C176.096 44.2867 176.044 44.4154 176.011 44.5506C175.978 44.6857 175.961 44.8229 175.961 44.9613C175.961 45.2156 176.015 45.4528 176.122 45.672C176.229 45.8923 176.381 46.0689 176.577 46.203C176.774 46.3371 176.991 46.4041 177.228 46.4041C177.363 46.4041 177.495 46.3828 177.624 46.3402C177.753 46.2977 177.877 46.2264 177.998 46.1264C178.118 46.0264 178.209 45.9029 178.274 45.7572L178.789 46.0498Z" fill="black"/>
<path d="M181.55 43.0002H182.137L183.665 46.9318H183.01L182.596 45.8635H181.08L180.669 46.9318H180.01L181.55 43.0002ZM181.477 42.2639C181.42 42.2639 181.371 42.2756 181.331 42.3001C181.292 42.3246 181.263 42.3544 181.247 42.3895C181.231 42.4246 181.221 42.4533 181.215 42.4757C181.21 42.498 181.207 42.5161 181.207 42.5278H180.863C180.863 42.5012 180.868 42.464 180.879 42.4171C180.89 42.3703 180.91 42.3161 180.94 42.2533C180.969 42.1916 181.006 42.1331 181.048 42.0799C181.091 42.0267 181.147 41.982 181.218 41.9447C181.29 41.9075 181.368 41.8894 181.455 41.8894C181.546 41.8894 181.634 41.9096 181.716 41.95C181.799 41.9905 181.878 42.0309 181.955 42.0713C182.03 42.1118 182.105 42.132 182.179 42.132C182.229 42.132 182.274 42.1235 182.313 42.1054C182.352 42.0873 182.381 42.0671 182.403 42.0437C182.424 42.0203 182.44 41.9947 182.453 41.9671C182.466 41.9394 182.473 41.9171 182.476 41.9011C182.479 41.8851 182.48 41.8724 182.48 41.8628H182.829C182.829 41.8862 182.824 41.9203 182.811 41.966C182.8 42.0107 182.778 42.065 182.746 42.1277C182.714 42.1905 182.676 42.249 182.632 42.3033C182.587 42.3576 182.525 42.4033 182.45 42.4427C182.373 42.481 182.289 42.5012 182.196 42.5012C182.101 42.5012 182.01 42.481 181.923 42.4416C181.837 42.4023 181.757 42.3618 181.683 42.3224C181.611 42.2841 181.542 42.2639 181.477 42.2639ZM182.474 45.4028L181.841 43.6801L181.19 45.4028H182.474Z" fill="black"/>
<path d="M184.86 44.9656C184.86 44.7059 184.907 44.4548 185.004 44.2122C185.101 43.9696 185.232 43.7579 185.398 43.576C185.564 43.394 185.765 43.2482 186.001 43.1376C186.238 43.028 186.488 42.9727 186.753 42.9727C187.025 42.9727 187.28 43.0301 187.518 43.1461C187.756 43.261 187.954 43.4132 188.113 43.6015C188.273 43.7898 188.399 44.0037 188.491 44.242C188.583 44.4804 188.628 44.724 188.628 44.9709C188.628 45.2305 188.581 45.4806 188.484 45.7221C188.387 45.9636 188.257 46.1754 188.093 46.3573C187.929 46.5392 187.729 46.685 187.493 46.7936C187.257 46.9031 187.007 46.9574 186.742 46.9574C186.522 46.9574 186.313 46.9212 186.114 46.8478C185.915 46.7744 185.742 46.6744 185.591 46.5467C185.441 46.419 185.31 46.2711 185.199 46.103C185.088 45.9349 185.004 45.754 184.946 45.5582C184.888 45.3635 184.86 45.1656 184.86 44.9656ZM186.747 46.3977C186.939 46.3977 187.114 46.3562 187.275 46.2732C187.436 46.1903 187.567 46.0807 187.67 45.9445C187.773 45.8083 187.852 45.6561 187.909 45.4859C187.966 45.3167 187.994 45.1422 187.994 44.9645C187.994 44.7794 187.964 44.5995 187.904 44.4282C187.843 44.2559 187.76 44.1037 187.655 43.9718C187.55 43.8388 187.418 43.7334 187.26 43.6558C187.103 43.577 186.931 43.5377 186.748 43.5377C186.557 43.5377 186.381 43.5792 186.219 43.6611C186.058 43.743 185.925 43.8515 185.82 43.9867C185.716 44.1218 185.634 44.274 185.577 44.4431C185.519 44.6123 185.491 44.7868 185.491 44.9645C185.491 45.2135 185.541 45.4454 185.641 45.6625C185.741 45.8785 185.889 46.0551 186.083 46.1924C186.277 46.3296 186.498 46.3977 186.747 46.3977Z" fill="black"/>
<path d="M120.345 26.4717H109.998V36.9129H127.135L120.345 26.4717Z" fill="#00CF00"/>
<path d="M98.2476 36.913H102.105C106.464 36.913 109.998 33.3794 109.998 29.0201C109.998 24.6608 106.464 21.1272 102.105 21.1272H89.9917V36.914H98.2476V36.913Z" fill="#FF0000"/>
<path d="M89.9917 21.1271H101.219C104.14 21.1271 106.509 18.7585 106.509 15.8378C106.509 12.9171 104.14 10.5486 101.219 10.5486H89.9917V21.1271Z" fill="#183EFF"/>
<path d="M137.825 10.5486L122.144 36.9128H153.504L137.825 10.5486Z" fill="#FFCF00"/>
<path d="M188.732 10.5486H179.615V28.0581H188.732V10.5486Z" fill="#FFCF00"/>
<path d="M197.848 28.0581H188.732V36.9129H197.848V28.0581Z" fill="#183EFF"/>
<path d="M188.732 28.0581H179.615V36.9129H188.732V28.0581Z" fill="#3C3C3C"/>
<path d="M157.559 22.2656H148.942V36.9129H157.559V22.2656Z" fill="#FF0000"/>
<path d="M122.144 36.9129H127.135L124.528 32.9026L122.144 36.9129Z" fill="#3C3C3C"/>
<path d="M148.942 29.2415V36.913H153.505L148.942 29.2415Z" fill="#3C3C3C"/>
<path d="M178.077 10.5486H168.961V36.9139H178.077V10.5486Z" fill="#00CF00"/>
<path d="M99.1084 10.5486H89.9917V21.1271H99.1084V10.5486Z" fill="#00CF00"/>
<path d="M117.586 26.4717H120.345C124.742 26.4717 128.307 22.9072 128.307 18.5097C128.307 14.1121 124.742 10.5476 120.345 10.5476H109.999V26.4706H117.586V26.4717Z" fill="#183EFF"/>
<path d="M167.423 10.5486H157.561V20.1354H167.423V10.5486Z" fill="#183EFF"/>
<path d="M160.572 20.1355H157.559V36.9129H160.572C165.205 36.9129 168.961 33.157 168.961 28.5242C168.961 23.8915 165.205 20.1355 160.572 20.1355Z" fill="#FFCF00"/>
<path d="M154.8 10.5486C151.565 10.5486 148.942 13.1714 148.942 16.4071C148.942 19.6428 151.565 22.2656 154.8 22.2656H157.559V10.5486H154.8Z" fill="#00CF00"/>
<path d="M99.1084 21.1272H89.9917V36.914H99.1084V21.1272Z" fill="#FFCF00"/>
<path d="M120.345 26.4716L109.998 10.5486V26.4716H120.345Z" fill="#FFCF00"/>
<path d="M147.443 36.9129C147.443 31.6013 143.136 27.2942 137.824 27.2942C132.512 27.2942 128.205 31.6003 128.205 36.9129H147.443Z" fill="#183EFF"/>
<path d="M104.283 2.27478V2.66528C104.283 4.22619 103.238 5.24233 101.854 5.24233C100.381 5.24233 99.2255 4.09426 99.2255 2.6291C99.2255 1.16395 100.388 0.000976562 101.846 0.000976562C102.767 0.000976562 103.614 0.472337 104.076 1.24481L102.928 1.92898C102.707 1.53103 102.303 1.30334 101.831 1.30334C101.095 1.30334 100.573 1.87046 100.573 2.63549C100.573 3.38668 101.095 3.93146 101.854 3.93146C102.384 3.93146 102.722 3.66652 102.84 3.34199H101.493V2.27478H104.283Z" fill="black"/>
<path d="M106.137 2.62067C106.137 1.16297 107.3 0 108.766 0C110.216 0 111.379 1.16297 111.379 2.62067C111.379 4.07838 110.216 5.24135 108.766 5.24135C107.3 5.24135 106.137 4.07838 106.137 2.62067ZM109.929 2.62067C109.929 1.91417 109.421 1.38322 108.766 1.38322C108.095 1.38322 107.58 1.9131 107.58 2.62067C107.58 3.32718 108.095 3.85707 108.766 3.85707C109.42 3.85707 109.929 3.32718 109.929 2.62067Z" fill="black"/>
<path d="M117.894 0.116943L115.935 5.12315H114.588L112.652 0.116943H114.102L115.266 3.20154L116.444 0.116943H117.894Z" fill="black"/>
<path d="M121.007 1.3395V2.08325H122.479V3.15791H121.007V3.90166H123.238V5.12315H119.653V0.116943H123.238V1.3395H121.007Z" fill="black"/>
<path d="M127.22 3.39306H126.653V5.12315H125.321V0.116943H127.743C128.722 0.116943 129.473 0.816004 129.473 1.74383C129.473 2.38437 129.127 2.91425 128.597 3.19409L129.709 5.12315H128.214L127.22 3.39306ZM126.653 2.25243H127.596C127.912 2.25243 128.111 2.03218 128.111 1.78852C128.111 1.53847 127.919 1.31716 127.596 1.31716H126.653V2.25243Z" fill="black"/>
<path d="M136.054 0.116943V5.12315H134.912L132.896 2.48758V5.12315H131.563V0.116943H132.697L134.722 2.75997V0.116943H136.054Z" fill="black"/>
<path d="M137.997 2.62067C137.997 1.16297 139.16 0 140.625 0C142.076 0 143.239 1.16297 143.239 2.62067C143.239 4.07838 142.076 5.24135 140.625 5.24135C139.16 5.24135 137.997 4.07838 137.997 2.62067ZM141.788 2.62067C141.788 1.91417 141.281 1.38322 140.625 1.38322C139.955 1.38322 139.44 1.9131 139.44 2.62067C139.44 3.32718 139.955 3.85707 140.625 3.85707C141.281 3.85707 141.788 3.32718 141.788 2.62067Z" fill="black"/>
<path d="M149.849 1.31716V2.16412H151.321V3.2973H149.849V5.12315H148.495V0.116943H152.08V1.31716H149.849Z" fill="black"/>
<path d="M155.458 1.3395V2.08325H156.931V3.15791H155.458V3.90166H157.689V5.12315H154.103V0.116943H157.689V1.3395H155.458Z" fill="black"/>
<path d="M164.483 2.62058C164.483 4.05594 163.335 5.12315 161.81 5.12315H159.771V0.116943H161.811C163.335 0.116943 164.483 1.18522 164.483 2.62058ZM163.085 2.62058C163.085 1.89173 162.54 1.42037 161.745 1.42037H161.135V3.82079H161.745C162.54 3.81973 163.085 3.34943 163.085 2.62058Z" fill="black"/>
<path d="M167.782 1.3395V2.08325H169.253V3.15791H167.782V3.90166H170.012V5.12315H166.426V0.116943H170.012V1.3395H167.782Z" fill="black"/>
<path d="M173.995 3.39306H173.428V5.12315H172.095V0.116943H174.517C175.496 0.116943 176.247 0.816004 176.247 1.74383C176.247 2.38437 175.901 2.91425 175.372 3.19409L176.483 5.12315H174.988L173.995 3.39306ZM173.428 2.25243H174.37C174.687 2.25243 174.885 2.03218 174.885 1.78852C174.885 1.53847 174.694 1.31716 174.37 1.31716H173.428V2.25243Z" fill="black"/>
<path d="M181.694 4.26252H179.714L179.368 5.12437H177.963L180.053 0.118164H181.334L183.448 5.12437H182.048L181.694 4.26252ZM181.201 3.06975L180.7 1.83975L180.2 3.06975H181.201Z" fill="black"/>
<path d="M188.732 3.83462V5.12315H185.205V0.116943H186.626V3.83462H188.732Z" fill="black"/>
<path d="M104.283 2.27478V2.66528C104.283 4.22619 103.238 5.24233 101.854 5.24233C100.381 5.24233 99.2255 4.09426 99.2255 2.6291C99.2255 1.16395 100.388 0.000976562 101.846 0.000976562C102.767 0.000976562 103.614 0.472337 104.076 1.24481L102.928 1.92898C102.707 1.53103 102.303 1.30334 101.831 1.30334C101.095 1.30334 100.573 1.87046 100.573 2.63549C100.573 3.38668 101.095 3.93146 101.854 3.93146C102.384 3.93146 102.722 3.66652 102.84 3.34199H101.493V2.27478H104.283Z" fill="black"/>
<path d="M106.137 2.62067C106.137 1.16297 107.3 0 108.766 0C110.216 0 111.379 1.16297 111.379 2.62067C111.379 4.07838 110.216 5.24135 108.766 5.24135C107.3 5.24135 106.137 4.07838 106.137 2.62067ZM109.929 2.62067C109.929 1.91417 109.421 1.38322 108.766 1.38322C108.095 1.38322 107.58 1.9131 107.58 2.62067C107.58 3.32718 108.095 3.85707 108.766 3.85707C109.42 3.85707 109.929 3.32718 109.929 2.62067Z" fill="black"/>
<path d="M117.894 0.116943L115.935 5.12315H114.588L112.652 0.116943H114.102L115.266 3.20154L116.444 0.116943H117.894Z" fill="black"/>
<path d="M121.007 1.3395V2.08325H122.479V3.15791H121.007V3.90166H123.238V5.12315H119.653V0.116943H123.238V1.3395H121.007Z" fill="black"/>
<path d="M127.22 3.39306H126.653V5.12315H125.321V0.116943H127.743C128.722 0.116943 129.473 0.816004 129.473 1.74383C129.473 2.38437 129.127 2.91425 128.597 3.19409L129.709 5.12315H128.214L127.22 3.39306ZM126.653 2.25243H127.596C127.912 2.25243 128.111 2.03218 128.111 1.78852C128.111 1.53847 127.919 1.31716 127.596 1.31716H126.653V2.25243Z" fill="black"/>
<path d="M136.054 0.116943V5.12315H134.912L132.896 2.48758V5.12315H131.563V0.116943H132.697L134.722 2.75997V0.116943H136.054Z" fill="black"/>
<path d="M137.997 2.62067C137.997 1.16297 139.16 0 140.625 0C142.076 0 143.239 1.16297 143.239 2.62067C143.239 4.07838 142.076 5.24135 140.625 5.24135C139.16 5.24135 137.997 4.07838 137.997 2.62067ZM141.788 2.62067C141.788 1.91417 141.281 1.38322 140.625 1.38322C139.955 1.38322 139.44 1.9131 139.44 2.62067C139.44 3.32718 139.955 3.85707 140.625 3.85707C141.281 3.85707 141.788 3.32718 141.788 2.62067Z" fill="black"/>
<path d="M149.849 1.31716V2.16412H151.321V3.2973H149.849V5.12315H148.495V0.116943H152.08V1.31716H149.849Z" fill="black"/>
<path d="M155.458 1.3395V2.08325H156.931V3.15791H155.458V3.90166H157.689V5.12315H154.103V0.116943H157.689V1.3395H155.458Z" fill="black"/>
<path d="M164.483 2.62058C164.483 4.05594 163.335 5.12315 161.81 5.12315H159.771V0.116943H161.811C163.335 0.116943 164.483 1.18522 164.483 2.62058ZM163.085 2.62058C163.085 1.89173 162.54 1.42037 161.745 1.42037H161.135V3.82079H161.745C162.54 3.81973 163.085 3.34943 163.085 2.62058Z" fill="black"/>
<path d="M167.782 1.3395V2.08325H169.253V3.15791H167.782V3.90166H170.012V5.12315H166.426V0.116943H170.012V1.3395H167.782Z" fill="black"/>
<path d="M173.995 3.39306H173.428V5.12315H172.095V0.116943H174.517C175.496 0.116943 176.247 0.816004 176.247 1.74383C176.247 2.38437 175.901 2.91425 175.372 3.19409L176.483 5.12315H174.988L173.995 3.39306ZM173.428 2.25243H174.37C174.687 2.25243 174.885 2.03218 174.885 1.78852C174.885 1.53847 174.694 1.31716 174.37 1.31716H173.428V2.25243Z" fill="black"/>
<path d="M181.694 4.26252H179.714L179.368 5.12437H177.963L180.053 0.118164H181.334L183.448 5.12437H182.048L181.694 4.26252ZM181.201 3.06975L180.7 1.83975L180.2 3.06975H181.201Z" fill="black"/>
<path d="M188.732 3.83462V5.12315H185.205V0.116943H186.626V3.83462H188.732Z" fill="black"/>
</svg>
