<svg width="101" height="48" viewBox="0 0 101 48" fill="none" xmlns="http://www.w3.org/2000/svg">
<path d="M22.6514 43.2042C22.6243 42.8166 22.5612 42.4289 22.4801 42.0592C21.9571 39.5889 20.4695 37.1907 18.1344 36.0277C16.8813 35.4056 15.3215 35.2974 14.1134 36.0006C13.5274 36.3432 13.0585 36.8571 12.5356 37.2899C12.0127 37.7317 11.3907 38.1103 10.7145 38.1193C10.2907 38.1193 9.88504 37.9841 9.48835 37.8489C8.29826 37.4341 6.67539 37.1276 5.44924 36.8932C4.27719 36.6588 3.06005 36.5235 1.888 36.8301C1.47327 36.9383 1.04957 37.1276 0.806148 37.4792C0.625833 37.7407 0.553691 38.0743 0.508612 38.3898C0.418455 39.075 0.436488 39.8413 0.905309 40.3462C1.21185 40.6798 1.66264 40.8331 2.0954 40.9593C3.90757 41.5183 5.88201 42.1674 7.77533 42.3477C9.52439 42.51 10.7776 42.7354 12.3283 43.7001C14.5371 45.0705 16.3493 46.2966 19.0811 46.3688C20.2171 46.4048 21.4883 46.1794 22.1645 45.2688C22.5973 44.6828 22.6964 43.9435 22.6514 43.2042Z" fill="#F69834"/>
<path d="M13.049 22.7741C13.049 22.702 13.022 22.6299 12.9949 22.5577C12.4179 21.2865 11.2278 20.1956 10.5787 18.9063C9.96564 17.6982 9.51488 16.409 8.91984 15.1918C7.99122 13.2895 5.96263 10.8823 4.70943 9.18734C4.47502 8.87179 4.24061 8.55623 3.91604 8.33986C2.85218 7.63663 1.29247 8.50214 0.895776 9.71025C0.499082 10.9274 0.940838 12.2527 1.55391 13.3797C2.55466 15.2189 4.77258 17.4638 6.32329 18.8613C7.0716 19.5375 7.86498 20.1866 8.39691 21.0431C9.04605 22.0709 9.38863 23.4323 10.2361 24.3248C11.2819 25.4338 11.1647 23.5495 12.2737 23.3782C12.454 23.3511 12.6524 23.3782 12.8147 23.297C12.995 23.1979 13.0671 22.9905 13.049 22.7831" fill="#47C5F2"/>
<path d="M18.837 20.1417C18.9001 20.2138 18.9722 20.2859 19.0443 20.3581C19.6394 20.89 20.9467 20.4302 21.3794 19.8261C21.722 19.3393 21.6679 18.6901 21.6048 18.0951C21.3524 15.8592 21.0999 13.6143 20.8475 11.3783C20.4508 7.88022 20.7573 4.24686 18.7468 1.14544C17.9624 -0.0716922 16.1863 0.0184656 15.1946 0.992169C14.2209 1.94784 14.3561 3.5256 14.5905 4.86895C15.3478 9.2416 16.4388 13.479 17.71 17.7255C17.9534 18.5279 18.26 19.4835 18.837 20.1417Z" fill="#F08296"/>
<path d="M26.6189 19.7176C27.0156 20.1954 27.6557 20.5831 28.1876 20.5921C29.1523 20.6101 29.549 19.5463 29.7203 18.7709C30.4326 15.5343 31.0276 12.2615 31.4964 8.97978C31.7128 7.45611 31.9021 5.91442 31.7849 4.38173C31.7398 3.79571 31.6497 3.18263 31.3071 2.69578C30.8833 2.08271 30.1711 1.81224 29.4588 1.70405C28.8368 1.61389 28.1786 1.55078 27.6016 1.8483C26.6279 2.35318 26.8803 4.3637 26.9615 5.2202C27.0877 6.59961 26.9885 7.961 27.0516 9.34041C27.1779 11.8558 26.9615 14.3983 26.4205 16.8596C26.2582 17.6079 26.0599 18.3832 26.2673 19.1225C26.3214 19.3299 26.4476 19.5373 26.6099 19.7356" fill="#D3DD31"/>
<path d="M33.7681 21.7101V21.7371C33.6689 21.9805 33.5787 22.26 33.705 22.4854C33.8041 22.6567 34.0025 22.7379 34.1918 22.801C34.6787 22.9723 35.2376 23.1346 35.7064 22.9092C36.5449 22.5035 36.9146 20.8446 37.167 20.0421C37.5727 18.7529 37.9424 17.4456 38.276 16.1383C38.7177 14.3802 39.3578 12.8115 39.5472 11.0083C39.5832 10.6567 39.6103 10.3051 39.5472 9.96251C39.3308 8.8716 37.2932 7.34793 36.3285 8.529C36.1031 8.80849 36.0581 9.18715 36.0311 9.54778C35.6885 13.659 35.1926 17.8333 33.7681 21.7191" fill="#B73E93"/>
<path d="M33.7496 23.9283C33.2447 23.775 32.7309 23.6398 32.1989 23.6037C31.7752 23.5766 31.3514 23.6037 30.9457 23.4685C30.6843 23.3783 30.4498 23.225 30.2064 23.0988C29.2147 22.5669 28.0877 22.4226 27.0238 22.08C26.5821 21.9358 26.0051 21.7555 25.6354 21.476C25.2117 21.1514 24.9953 20.5564 24.6347 20.1687C24.5716 20.1056 24.5085 20.0425 24.4183 20.0334C24.2921 20.0334 24.2019 20.1597 24.1388 20.2679C23.6339 21.1153 22.7954 21.7735 21.8488 22.062C21.5963 22.1431 21.3259 22.1882 21.0915 22.3054C20.5776 22.5579 20.4243 22.9005 19.7842 22.8283C19.4867 22.7923 19.1892 22.6029 19.1261 22.3054C19.09 22.1161 19.1531 21.9268 19.108 21.7374C19.0539 21.494 18.8375 21.3137 18.5941 21.2506C18.3507 21.1875 18.0982 21.2055 17.8548 21.2506C17.1606 21.3588 16.4754 21.5751 15.8443 21.8817C15.7271 21.9358 15.6099 21.9989 15.5287 22.1071C15.3574 22.3325 15.4296 22.648 15.5017 22.9185C15.5648 23.207 15.6189 23.5045 15.5558 23.784C15.4927 24.0725 15.2943 24.343 15.0148 24.4151C14.7894 24.4782 14.555 24.4151 14.3297 24.37C12.9322 24.1446 11.3905 25.0913 11.9134 26.651C12.0847 27.1649 12.1839 27.7059 12.1929 28.2468C12.1929 28.4722 12.1929 28.7156 12.0667 28.914C11.8323 29.3107 11.2913 29.3918 10.9577 29.7074C10.6602 29.9869 10.5611 30.4377 10.6152 30.8434C10.6693 31.2491 10.8676 31.6187 11.0839 31.9703C11.3093 32.331 11.5708 32.6826 11.9044 32.944C12.7248 33.5751 13.978 33.5571 14.7804 32.899C15.0149 32.7096 15.2492 32.4572 15.5558 32.4842C15.7902 32.5023 15.9705 32.6826 16.1238 32.8629C16.4484 33.2235 16.7098 33.5932 17.1516 33.7645C17.5934 33.9268 18.1253 34.0981 18.5941 34.1522C18.9457 34.1882 19.3064 34.1431 19.6309 34.2874C20.1989 34.5398 20.3882 35.2881 20.8931 35.6488C21.1095 35.802 21.3619 35.8742 21.5873 36.0184C22.3447 36.4872 22.4979 37.515 22.543 38.4076C22.561 38.8404 22.6151 39.3362 22.9667 39.5977C23.2642 39.8141 23.652 39.778 24.0216 39.8141C24.9232 39.9042 25.7436 40.5173 26.0862 41.3558C26.4288 42.1942 26.2575 43.213 25.6715 43.8982C25.4911 44.1146 25.2658 44.3039 25.1215 44.5473C24.9773 44.7908 24.9322 45.1244 25.1035 45.3498C25.3198 45.6292 25.7436 45.5932 26.0862 45.6833C26.4559 45.7825 26.7804 46.062 26.9247 46.4226C27.0329 46.6931 27.0689 47.0357 27.3214 47.18C27.8262 47.1619 28.1689 46.6751 28.4213 46.2333C28.8541 45.485 29.5212 44.6555 29.7917 43.8351C29.99 43.213 30.0081 42.5008 30.1884 41.8606C30.2966 41.491 30.4048 41.1213 30.5941 40.7968C30.9547 40.1837 31.5768 39.778 32.2169 39.4715C32.857 39.1649 33.5423 38.9395 34.1463 38.5789C34.3988 38.4256 34.6422 38.2543 34.7954 38.0109C34.9397 37.7945 35.0118 37.5331 35.0839 37.2806C35.2102 36.8208 35.3274 36.37 35.4536 35.9102C35.5798 35.4414 35.706 34.9726 35.7601 34.4857C35.8503 33.6743 35.7241 32.8359 35.9134 32.0425C36.1388 31.0688 36.8059 30.2754 37.3289 29.4279C37.7977 28.6615 38.1493 27.769 37.96 26.8584C37.7706 25.9568 37.4641 24.9921 36.5535 24.6856C35.8683 24.4602 35.1561 24.3791 34.4618 24.1717C34.2274 24.0996 33.984 24.0274 33.7496 23.9553" fill="#379248"/>
<path d="M51.7814 18.7804C51.4388 18.4829 51.0151 18.2305 50.5012 18.0321C49.9873 17.8248 49.3922 17.6354 48.734 17.4731C48.13 17.3289 47.6251 17.1937 47.2374 17.0584C46.8408 16.9232 46.5342 16.7879 46.3088 16.6347C46.0834 16.4814 45.9301 16.3191 45.849 16.1298C45.7678 15.9405 45.7228 15.7241 45.7228 15.4897V15.4536C45.7228 15.0299 45.9031 14.6782 46.2637 14.3807C46.6244 14.0922 47.1292 13.948 47.7874 13.948C48.3644 13.948 48.9414 14.0562 49.5094 14.2816C50.0774 14.507 50.6544 14.8315 51.2314 15.2553L52.4305 13.5693C51.7814 13.0464 51.0782 12.6587 50.3389 12.3792C49.5996 12.1088 48.7611 11.9735 47.8325 11.9735C47.2014 11.9735 46.6244 12.0637 46.0924 12.244C45.5605 12.4243 45.1097 12.6767 44.731 12.9923C44.3524 13.3169 44.0549 13.6955 43.8385 14.1553C43.6221 14.6061 43.5139 15.111 43.5139 15.652V15.688C43.5139 16.265 43.6041 16.7609 43.7934 17.1756C43.9827 17.5903 44.2532 17.9329 44.6138 18.2214C44.9745 18.5009 45.4163 18.7444 45.9392 18.9427C46.4621 19.1411 47.0661 19.3214 47.7423 19.4746C48.3374 19.6099 48.8152 19.7361 49.1848 19.8713C49.5545 20.0066 49.843 20.1508 50.0594 20.3041C50.2668 20.4574 50.42 20.6287 50.4921 20.8C50.5733 20.9713 50.6093 21.1786 50.6093 21.404V21.4401C50.6093 21.9269 50.411 22.3056 50.0053 22.6031C49.5996 22.8916 49.0496 23.0359 48.3644 23.0359C47.571 23.0359 46.8498 22.8916 46.2277 22.6121C45.5966 22.3326 44.9745 21.9179 44.3614 21.386L43.0181 22.9818C43.7754 23.667 44.6048 24.1809 45.4974 24.5145C46.39 24.848 47.3276 25.0103 48.3103 25.0103C48.9775 25.0103 49.5815 24.9292 50.1405 24.7579C50.6995 24.5866 51.1683 24.3432 51.565 24.0186C51.9617 23.694 52.2682 23.2973 52.4936 22.8195C52.719 22.3507 52.8272 21.8187 52.8272 21.2237V21.1876C52.8272 20.6647 52.737 20.2139 52.5657 19.8172C52.3944 19.4205 52.133 19.0779 51.7904 18.7804H51.7814ZM55.0451 11.09H56.7491L58.958 9.00733L56.9655 8.12378L55.0451 11.099V11.09ZM54.8468 24.821H57.0556V12.1358H54.8468V24.821ZM59.7423 24.821H61.9512V19.655H68.3524V17.6444H61.9512V14.1463H69.1638V12.1358H59.7423V24.821ZM86.5372 24.821H88.7461V12.1358H86.5372V24.821ZM100.133 19.8082C99.9617 19.4115 99.7003 19.0689 99.3577 18.7714C99.0151 18.4739 98.5913 18.2215 98.0774 18.0231C97.5635 17.8157 96.9685 17.6264 96.3103 17.4641C95.7063 17.3199 95.2014 17.1846 94.8137 17.0494C94.417 16.9142 94.1105 16.7789 93.8851 16.6257C93.6597 16.4724 93.5064 16.3101 93.4253 16.1208C93.3441 15.9314 93.299 15.7151 93.299 15.4807V15.4446C93.299 15.0208 93.4794 14.6692 93.84 14.3717C94.2006 14.0832 94.7055 13.939 95.3637 13.939C95.9407 13.939 96.5177 14.0471 97.0857 14.2725C97.6537 14.4979 98.2306 14.8225 98.8077 15.2462L100.007 13.5603C99.3576 13.0374 98.6544 12.6497 97.9151 12.3702C97.1758 12.0997 96.3374 11.9645 95.4087 11.9645C94.7776 11.9645 94.2006 12.0547 93.6687 12.235C93.1368 12.4153 92.686 12.6677 92.3073 12.9833C91.9287 13.3079 91.6311 13.6865 91.4148 14.1463C91.1984 14.5971 91.0902 15.102 91.0902 15.6429V15.679C91.0902 16.256 91.1803 16.7519 91.3696 17.1666C91.559 17.5813 91.8295 17.9239 92.1901 18.2124C92.5507 18.4919 92.9925 18.7354 93.5154 18.9337C94.0383 19.132 94.6424 19.3124 95.3186 19.4656C95.9136 19.6009 96.3915 19.7271 96.7611 19.8623C97.1308 19.9976 97.4192 20.1418 97.6356 20.2951C97.852 20.4483 97.9963 20.6196 98.0684 20.7909C98.1496 20.9622 98.1856 21.1696 98.1856 21.395V21.4311C98.1856 21.9179 97.9872 22.2966 97.5815 22.5941C97.1758 22.8826 96.6349 23.0269 95.9406 23.0269C95.1473 23.0269 94.426 22.8826 93.8039 22.6031C93.1728 22.3236 92.5507 21.9089 91.9376 21.377L90.5943 22.9728C91.3516 23.658 92.1811 24.1719 93.0736 24.5054C93.9662 24.839 94.9038 25.0013 95.8775 25.0013C96.5447 25.0013 97.1488 24.9202 97.7078 24.7489C98.2577 24.5776 98.7356 24.3341 99.1323 24.0096C99.529 23.685 99.8355 23.2883 100.061 22.8105C100.286 22.3417 100.394 21.8097 100.394 21.2147V21.1786C100.394 20.6557 100.304 20.2049 100.133 19.8082ZM78.1255 12.1358H75.9166V22.8285L79.568 23.9194C79.4959 24.235 79.4328 24.5415 79.3607 24.821H84.7972V22.8105H78.1255V12.1358ZM71.0211 23.4416C71.2465 23.5137 71.4719 23.5858 71.6882 23.667C72.148 23.8383 72.5808 23.9915 72.9775 24.1268C73.0676 24.1538 73.1488 24.1809 73.2299 24.2079V12.1358H71.0211V23.4416Z" fill="#77797B"/>
<path d="M99.845 33.2229C99.295 31.9427 98.5287 30.8247 97.555 29.869C96.5813 28.9134 95.4272 28.165 94.0839 27.6061C92.7405 27.0561 91.289 26.7766 89.7113 26.7766C88.1335 26.7766 86.6819 27.0561 85.3386 27.6061C83.9952 28.156 82.8322 28.9134 81.8405 29.878C80.8488 30.8427 80.0734 31.9697 79.5234 33.259C79.0366 34.3949 78.7661 35.594 78.703 36.8563L75.9171 30.2747C75.5204 30.419 75.0786 30.4911 74.5918 30.4911C74.0689 30.4911 73.555 30.419 73.0501 30.2837C72.5452 30.1485 72.0583 29.9952 71.5895 29.8239C71.1297 29.6526 70.697 29.4994 70.3003 29.3641C69.9036 29.2289 69.57 29.1568 69.2995 29.1568C68.8217 29.1568 68.4701 29.283 68.2447 29.5445C68.0193 29.8059 67.7668 30.1846 67.5414 30.7075L62.5107 42.6083V27.1913H56.9479V37.9742L48.5362 27.1913H43.2529V47.594H48.8157V36.4055L57.552 47.594H66.3604L67.8209 43.9517H75.6917L77.1793 47.594H83.2379L82.2913 45.3491C83.1568 46.0974 84.1485 46.7015 85.2755 47.1703C86.6189 47.7203 88.0704 47.9998 89.6481 47.9998C91.2259 47.9998 92.6774 47.7203 94.0208 47.1703C95.3641 46.6203 96.5272 45.863 97.5189 44.8983C98.5106 43.9336 99.286 42.8067 99.836 41.5174C100.386 40.2282 100.665 38.8487 100.665 37.3972V37.3431C100.665 35.8825 100.386 34.5121 99.836 33.2319L99.845 33.2229ZM69.4889 39.579L71.7879 33.7819L74.0599 39.579H69.4798H69.4889ZM94.9044 37.4513C94.9044 38.1906 94.7781 38.8938 94.5256 39.552C94.2732 40.2101 93.9216 40.7871 93.4708 41.283C93.02 41.7789 92.4791 42.1756 91.8299 42.4641C91.1898 42.7526 90.4776 42.8968 89.6932 42.8968C88.9088 42.8968 88.2056 42.7436 87.5565 42.446C86.9163 42.1485 86.3664 41.7428 85.9066 41.2379C85.4468 40.733 85.0952 40.147 84.8427 39.4889C84.5903 38.8307 84.4641 38.1275 84.4641 37.3882V37.3341C84.4641 36.5948 84.5903 35.9006 84.8337 35.2334C85.0771 34.5753 85.4288 33.9982 85.8886 33.5024C86.3484 33.0065 86.8893 32.6098 87.5294 32.3213C88.1606 32.0328 88.8728 31.8795 89.6481 31.8795C90.4235 31.8795 91.1357 32.0328 91.7849 32.3303C92.425 32.6279 92.9839 33.0336 93.4528 33.5384C93.9216 34.0433 94.2822 34.6294 94.5347 35.2875C94.7871 35.9457 94.9134 36.6489 94.9134 37.3882V37.4423L94.9044 37.4513Z" fill="#E91D39"/>
<path d="M68.253 28.6071C68.4784 28.3457 68.83 28.2194 69.3078 28.2194C69.5783 28.2194 69.9118 28.2916 70.3085 28.4268C70.7052 28.562 71.138 28.7153 71.5978 28.8866C72.0576 29.0579 72.5444 29.2112 73.0583 29.3464C73.5632 29.4816 74.0862 29.5538 74.6001 29.5538C75.7721 29.5538 76.6827 29.139 77.3138 28.3006C77.9449 27.4621 78.4408 26.1999 78.8104 24.4959L75.718 23.6484C75.4926 24.1714 75.2672 24.559 75.0418 24.8205C74.8164 25.0819 74.4648 25.2082 73.987 25.2082C73.7165 25.2082 73.3829 25.136 72.9862 25.0008C72.5896 24.8656 72.1568 24.7123 71.697 24.541C71.2372 24.3697 70.7413 24.2164 70.2184 24.0812C69.6955 23.946 69.1906 23.8738 68.6947 23.8738C67.5227 23.8738 66.6121 24.2886 65.981 25.127C65.3499 25.9655 64.845 27.2277 64.4844 28.9317L67.5768 29.7792C67.8022 29.2563 68.0276 28.8686 68.253 28.6071Z" fill="#E91D39"/>
<path d="M48.1294 3.19218H47.3901V2.90367H48.1745L48.427 1.46115H47.6336V1.17264H48.472L48.6613 0.0546875H48.9498L48.7606 1.17264H50.0227L50.2121 0.0546875H50.5006L50.3112 1.17264H51.0415V1.46115H50.2571L50.0047 2.90367H50.7891V3.19218H49.9506L49.7523 4.33718H49.4638L49.6621 3.19218H48.3999L48.2016 4.33718H47.9131L48.1114 3.19218H48.1294ZM49.7342 2.90367L49.9867 1.46115H48.7245L48.472 2.90367H49.7342Z" fill="#F69834"/>
<path d="M68.7572 0.351737H67.2695V0.0632324H70.5603V0.351737H69.0727V4.33671H68.7572V0.351737Z" fill="#F69834"/>
<path d="M70.9746 1.22702H71.2721V2.11057C71.3353 1.97533 71.4074 1.84009 71.5066 1.72289C71.5967 1.60568 71.7049 1.50651 71.8221 1.42537C71.9393 1.34423 72.0655 1.28111 72.2098 1.23604C72.354 1.19096 72.4983 1.17293 72.6516 1.18194V1.51553H72.6245C72.4442 1.51553 72.2729 1.55159 72.1106 1.6147C71.9483 1.67781 71.8041 1.786 71.6779 1.91222C71.5516 2.04746 71.4525 2.20974 71.3803 2.39907C71.3082 2.5884 71.2721 2.8138 71.2721 3.06624V4.33746H70.9746V1.22702Z" fill="#F69834"/>
<path d="M74.3565 4.40931C74.2123 4.40931 74.068 4.39128 73.9238 4.3462C73.7795 4.31013 73.6533 4.24702 73.5361 4.16588C73.4189 4.08474 73.3287 3.98557 73.2566 3.85934C73.1845 3.73312 73.1484 3.59789 73.1484 3.4356C73.1484 3.2643 73.1845 3.12005 73.2476 2.99383C73.3107 2.86761 73.4099 2.75942 73.5271 2.67828C73.6443 2.59714 73.7886 2.52501 73.9509 2.47993C74.1222 2.43485 74.3025 2.41682 74.5098 2.41682C74.7262 2.41682 74.9155 2.42584 75.0778 2.45288C75.2401 2.47993 75.3933 2.50698 75.5376 2.55206V2.41682C75.5376 2.10127 75.4474 1.86686 75.2671 1.70457C75.0868 1.5513 74.8344 1.47016 74.5098 1.47016C74.3205 1.47016 74.1402 1.49721 73.9869 1.54229C73.8246 1.58737 73.6804 1.65048 73.5361 1.7226L73.4279 1.46115C73.5992 1.38001 73.7705 1.30788 73.9418 1.2628C74.1131 1.20871 74.3114 1.19067 74.5278 1.19067C74.9516 1.19067 75.2852 1.30788 75.5106 1.53327C75.7179 1.74064 75.8261 2.03816 75.8261 2.4078V4.3462H75.5376V3.8323C75.4835 3.90442 75.4204 3.97655 75.3483 4.04868C75.2762 4.1208 75.186 4.18391 75.0868 4.23801C74.9876 4.2921 74.8794 4.33718 74.7532 4.37324C74.627 4.40931 74.4918 4.42734 74.3476 4.42734L74.3565 4.40931ZM74.3655 4.13883C74.5278 4.13883 74.6721 4.11179 74.8163 4.06671C74.9606 4.02163 75.0868 3.95852 75.195 3.86836C75.3032 3.7782 75.3843 3.68804 75.4475 3.57084C75.5106 3.45363 75.5376 3.32741 75.5376 3.18316V2.83155C75.4114 2.79548 75.2581 2.76844 75.0778 2.74139C74.9065 2.71434 74.7081 2.69631 74.4828 2.69631C74.1492 2.69631 73.8968 2.75942 73.7255 2.89466C73.5451 3.02989 73.464 3.20119 73.464 3.41757C73.464 3.54379 73.491 3.64297 73.5361 3.73312C73.5812 3.82328 73.6533 3.89541 73.7344 3.95852C73.8156 4.02163 73.9148 4.06671 74.0229 4.09375C74.1311 4.12982 74.2483 4.13883 74.3655 4.13883Z" fill="#F69834"/>
<path d="M77.9543 4.39112C77.828 4.39112 77.7198 4.37309 77.6117 4.34604C77.5035 4.30998 77.4133 4.2649 77.3322 4.19277C77.251 4.12065 77.1879 4.03049 77.1428 3.9223C77.0977 3.81411 77.0797 3.68789 77.0797 3.54364V1.49705H76.6289V1.22658H77.0797V0.22583H77.3772V1.22658H78.4681V1.49705H77.3772V3.49856C77.3772 3.72395 77.4313 3.87722 77.5485 3.96738C77.6657 4.05754 77.81 4.10261 77.9993 4.10261C78.0805 4.10261 78.1526 4.10262 78.2157 4.07557C78.2878 4.05754 78.36 4.03049 78.4501 3.99443V4.27391C78.369 4.30998 78.2878 4.33702 78.2067 4.35506C78.1255 4.37309 78.0354 4.3821 77.9452 4.3821" fill="#F69834"/>
<path d="M80.6674 4.40946C80.46 4.40946 80.2707 4.3734 80.0814 4.29226C79.8921 4.21112 79.7298 4.10293 79.5945 3.95868C79.4503 3.81442 79.3421 3.64312 79.2609 3.44478C79.1798 3.24643 79.1348 3.02103 79.1348 2.77761C79.1348 2.5432 79.1708 2.32682 79.2519 2.13749C79.3331 1.94816 79.4323 1.76784 79.5675 1.62359C79.7027 1.47934 79.856 1.36213 80.0363 1.27197C80.2167 1.19083 80.406 1.14575 80.6223 1.14575C80.8387 1.14575 81.0371 1.19083 81.2174 1.27197C81.3887 1.35311 81.542 1.47032 81.6682 1.61457C81.7944 1.75882 81.8845 1.93012 81.9567 2.12847C82.0198 2.32682 82.0559 2.5432 82.0559 2.76859V2.8317C82.0559 2.8317 82.0559 2.86777 82.0559 2.8858H79.4773C79.4863 3.08414 79.5314 3.25544 79.6035 3.3997C79.6757 3.55296 79.7658 3.67919 79.883 3.77836C79.9912 3.88655 80.1175 3.96769 80.2617 4.02179C80.406 4.07588 80.5502 4.10293 80.7035 4.10293C80.9469 4.10293 81.1543 4.05785 81.3256 3.95868C81.4969 3.86852 81.6411 3.75131 81.7764 3.60706L81.9837 3.78738C81.8214 3.95868 81.6411 4.10293 81.4428 4.21112C81.2445 4.31931 80.992 4.38242 80.6945 4.38242L80.6674 4.40946ZM81.7493 2.60631C81.7403 2.44402 81.7042 2.29977 81.6501 2.15552C81.5961 2.01127 81.5239 1.88505 81.4338 1.76784C81.3436 1.65965 81.2264 1.56949 81.0912 1.49737C80.9559 1.43426 80.8027 1.39819 80.6223 1.39819C80.4691 1.39819 80.3248 1.42524 80.1896 1.48835C80.0544 1.55146 79.9371 1.6326 79.838 1.74079C79.7388 1.84898 79.6576 1.9752 79.5945 2.12847C79.5314 2.27272 79.4863 2.43501 79.4773 2.60631H81.7493Z" fill="#F69834"/>
<path d="M53.1878 0.351737H51.7002V0.0632324H54.991V0.351737H53.5034V4.33671H53.1878V0.351737Z" fill="#E91D39"/>
<path d="M56.4697 4.40898C56.2623 4.40898 56.073 4.37291 55.8837 4.29177C55.6943 4.21063 55.5321 4.10244 55.3968 3.95819C55.2526 3.81393 55.1444 3.64263 55.0632 3.44429C54.9821 3.24594 54.937 3.02055 54.937 2.77712C54.937 2.54271 54.9731 2.32633 55.0542 2.137C55.1263 1.93865 55.2345 1.76735 55.3698 1.6231C55.505 1.47885 55.6583 1.36164 55.8386 1.27148C56.0189 1.19034 56.2083 1.14526 56.4246 1.14526C56.641 1.14526 56.8393 1.19034 57.0197 1.27148C57.191 1.35263 57.3442 1.46983 57.4704 1.61408C57.5967 1.75834 57.6868 1.92964 57.759 2.12798C57.8221 2.32633 57.8581 2.54271 57.8581 2.7681V2.83121C57.8581 2.83121 57.8581 2.86728 57.8581 2.88531H55.2796C55.2886 3.08366 55.3337 3.25496 55.4058 3.39921C55.478 3.55248 55.5681 3.6787 55.6853 3.77787C55.7935 3.88606 55.9197 3.9672 56.064 4.0213C56.2082 4.07539 56.3525 4.10244 56.5057 4.10244C56.7492 4.10244 56.9565 4.05736 57.1278 3.95819C57.2991 3.86803 57.4434 3.75082 57.5786 3.60657L57.786 3.78689C57.6237 3.95819 57.4434 4.10244 57.245 4.21063C57.0467 4.31882 56.7942 4.38193 56.4967 4.38193L56.4697 4.40898ZM57.5516 2.60582C57.5426 2.44354 57.5065 2.29928 57.4524 2.15503C57.3983 2.01078 57.3262 1.88456 57.236 1.76735C57.1459 1.65015 57.0287 1.56901 56.8934 1.49688C56.7582 1.43377 56.605 1.39771 56.4246 1.39771C56.2714 1.39771 56.1271 1.42475 55.9918 1.48786C55.8566 1.55097 55.7394 1.63212 55.6403 1.74031C55.5411 1.84849 55.4599 1.97472 55.3968 2.12798C55.3337 2.27224 55.2886 2.43452 55.2796 2.60582H57.5516Z" fill="#E91D39"/>
<path d="M59.7241 4.39951C59.4987 4.39951 59.2643 4.35443 59.0389 4.27329C58.8135 4.19214 58.6151 4.07494 58.4438 3.9397L58.6242 3.70529C58.7955 3.83151 58.9758 3.9397 59.1561 4.00281C59.3454 4.07494 59.5348 4.111 59.7331 4.111C59.9405 4.111 60.1207 4.05691 60.265 3.94872C60.4092 3.84053 60.4814 3.69628 60.4814 3.51596C60.4814 3.41679 60.4544 3.33564 60.4183 3.27253C60.3732 3.20942 60.3101 3.14631 60.238 3.10123C60.1568 3.05616 60.0757 3.01108 59.9765 2.98403C59.8774 2.94797 59.7782 2.92092 59.661 2.88486C59.5347 2.84879 59.4085 2.81273 59.2823 2.76765C59.1561 2.72257 59.0389 2.67749 58.9397 2.61438C58.8405 2.55127 58.7594 2.47013 58.6963 2.37997C58.6332 2.28981 58.6061 2.17261 58.6061 2.03737C58.6061 1.90214 58.6332 1.78493 58.6783 1.67674C58.7324 1.57757 58.7955 1.48741 58.8856 1.40627C58.9758 1.32513 59.0839 1.27103 59.2102 1.22595C59.3364 1.18087 59.4716 1.16284 59.6249 1.16284C59.8142 1.16284 60.0036 1.18989 60.2019 1.253C60.4003 1.31611 60.5716 1.39725 60.7338 1.50544L60.5716 1.75788C60.4273 1.66773 60.274 1.58658 60.1117 1.53249C59.9495 1.47839 59.7782 1.45135 59.6159 1.45135C59.3995 1.45135 59.2282 1.50544 59.102 1.60461C58.9758 1.70379 58.9126 1.83903 58.9126 1.99229C58.9126 2.09147 58.9397 2.16359 58.9848 2.2267C59.0299 2.28981 59.102 2.34391 59.1741 2.38899C59.2553 2.43407 59.3454 2.47013 59.4536 2.50619C59.5618 2.54226 59.67 2.57832 59.7782 2.60537C59.9044 2.64143 60.0306 2.67749 60.1478 2.72257C60.2741 2.76765 60.3822 2.82174 60.4814 2.88486C60.5806 2.94797 60.6617 3.02911 60.7158 3.12828C60.7789 3.21844 60.806 3.33564 60.806 3.47088C60.806 3.62415 60.7789 3.74135 60.7248 3.85856C60.6707 3.96675 60.5896 4.06592 60.4994 4.14706C60.4002 4.22821 60.292 4.29132 60.1568 4.32738C60.0306 4.37246 59.8864 4.39049 59.7331 4.39049" fill="#E91D39"/>
<path d="M62.7902 4.39063C62.664 4.39063 62.5558 4.3726 62.4476 4.34555C62.3394 4.30949 62.2492 4.26441 62.1681 4.19228C62.087 4.12016 62.0238 4.03 61.9787 3.92181C61.9337 3.81362 61.9156 3.6874 61.9156 3.54315V1.49657H61.4648V1.22609H61.9156V0.225342H62.2132V1.22609H63.3041V1.49657H62.2132V3.49807C62.2132 3.72346 62.2673 3.87673 62.3845 3.96689C62.5017 4.05705 62.6459 4.10213 62.8353 4.10213C62.9164 4.10213 62.9885 4.10213 63.0516 4.07508C63.1238 4.05705 63.1959 4.03 63.286 3.99394V4.27343C63.2049 4.30949 63.1237 4.33654 63.0426 4.35457C62.9615 4.3726 62.8713 4.38162 62.7812 4.38162" fill="#E91D39"/>
<path d="M65.5033 4.40898C65.296 4.40898 65.1067 4.37291 64.9173 4.29177C64.728 4.21063 64.5658 4.10244 64.4305 3.95819C64.2863 3.81393 64.178 3.64263 64.0969 3.44429C64.0157 3.24594 63.9707 3.02055 63.9707 2.77712C63.9707 2.54271 64.0068 2.32633 64.0879 2.137C64.16 1.93865 64.2682 1.76735 64.3944 1.6231C64.5297 1.47885 64.6829 1.36164 64.8633 1.27148C65.0436 1.19034 65.2329 1.14526 65.4492 1.14526C65.6656 1.14526 65.864 1.19034 66.0443 1.27148C66.2156 1.35263 66.3689 1.46983 66.4951 1.61408C66.6213 1.75834 66.7115 1.92964 66.7836 2.12798C66.8467 2.32633 66.8828 2.54271 66.8828 2.7681V2.83121C66.8828 2.83121 66.8828 2.86728 66.8828 2.88531H64.3043C64.3133 3.08366 64.3584 3.25496 64.4305 3.39921C64.5026 3.54346 64.5928 3.6787 64.71 3.77787C64.8182 3.88606 64.9444 3.9672 65.0887 4.0213C65.2329 4.07539 65.3771 4.10244 65.5304 4.10244C65.7738 4.10244 65.9812 4.05736 66.1525 3.95819C66.3238 3.86803 66.4681 3.75082 66.6033 3.60657L66.8106 3.78689C66.6484 3.95819 66.4681 4.10244 66.2697 4.21063C66.0714 4.31882 65.8189 4.38193 65.5214 4.38193L65.5033 4.40898ZM66.5762 2.60582C66.5672 2.44354 66.5312 2.29928 66.4771 2.15503C66.423 2.01078 66.3508 1.88456 66.2607 1.76735C66.1705 1.65916 66.0533 1.56901 65.9181 1.49688C65.7829 1.43377 65.6296 1.39771 65.4492 1.39771C65.296 1.39771 65.1517 1.42475 65.0165 1.48786C64.8813 1.55097 64.7641 1.63212 64.6649 1.74031C64.5657 1.84849 64.4846 1.97472 64.4215 2.12798C64.3584 2.27224 64.3133 2.43452 64.3043 2.60582H66.5762Z" fill="#E91D39"/>
<path d="M84.9138 4.40871C84.6073 4.40871 84.3278 4.35462 84.0664 4.23741C83.8049 4.12021 83.5795 3.96694 83.3902 3.76859C83.2008 3.57025 83.0566 3.33584 82.9484 3.07438C82.8402 2.80391 82.7861 2.5154 82.7861 2.21788C82.7861 1.90233 82.8402 1.62284 82.9484 1.35237C83.0566 1.08189 83.2008 0.847483 83.3902 0.649136C83.5795 0.450789 83.8049 0.288505 84.0664 0.1713C84.3278 0.0540946 84.6073 0 84.9229 0C85.1122 0 85.2835 0.0180315 85.4368 0.0450789C85.59 0.081142 85.7343 0.126221 85.8695 0.189331C86.0047 0.252442 86.1219 0.324568 86.2391 0.40571C86.3563 0.486852 86.4645 0.586025 86.5817 0.685199L86.3563 0.919609C86.2662 0.829451 86.1671 0.748309 86.0679 0.667167C85.9687 0.586025 85.8605 0.522915 85.7433 0.46882C85.6261 0.414726 85.4999 0.369647 85.3646 0.333584C85.2294 0.297521 85.0852 0.288505 84.9229 0.288505C84.6704 0.288505 84.427 0.333584 84.2106 0.432757C83.9942 0.531931 83.8049 0.667167 83.6426 0.838467C83.4804 1.00977 83.3541 1.21713 83.2639 1.44252C83.1738 1.67693 83.1287 1.92036 83.1287 2.19083C83.1287 2.47032 83.1738 2.72276 83.273 2.95717C83.3631 3.19158 83.4893 3.38993 83.6516 3.57025C83.8139 3.74155 84.0032 3.87678 84.2196 3.97596C84.436 4.07513 84.6795 4.12922 84.9319 4.12922C85.2384 4.12922 85.5089 4.07513 85.7343 3.95793C85.9596 3.84072 86.1851 3.67844 86.4015 3.46206L86.6178 3.66942C86.5006 3.77761 86.3834 3.87678 86.2662 3.97596C86.149 4.06611 86.0138 4.14726 85.8785 4.21037C85.7433 4.27348 85.5991 4.32757 85.4368 4.36363C85.2745 4.3997 85.1032 4.41773 84.9138 4.41773" fill="#E91D39"/>
<path d="M88.6006 4.40913C88.4023 4.40913 88.231 4.37307 88.0777 4.31897C87.9244 4.25586 87.7892 4.16571 87.681 4.05752C87.5728 3.94031 87.4917 3.80507 87.4376 3.65181C87.3835 3.49854 87.3564 3.32724 87.3564 3.13791V1.22656H87.6539V3.0748C87.6539 3.39937 87.7351 3.65181 87.9064 3.85015C88.0777 4.03949 88.3211 4.13866 88.6367 4.13866C88.7899 4.13866 88.9251 4.11161 89.0604 4.05752C89.1956 4.00342 89.3038 3.92228 89.403 3.83212C89.5022 3.73295 89.5743 3.61574 89.6284 3.48051C89.6825 3.34527 89.7095 3.192 89.7095 3.02972V1.22656H90.0071V4.33701H89.7095V3.76C89.6014 3.94031 89.4661 4.09358 89.2858 4.2198C89.1055 4.34602 88.8711 4.40913 88.5916 4.40913" fill="#E91D39"/>
<path d="M91.1621 1.22629H91.4596V2.10983C91.5228 1.9746 91.5949 1.83936 91.6941 1.72216C91.7842 1.60495 91.8924 1.50578 92.0096 1.42463C92.1268 1.34349 92.253 1.28038 92.3973 1.2353C92.5415 1.19022 92.6858 1.17219 92.839 1.18121V1.51479H92.812C92.6317 1.51479 92.4604 1.55086 92.2981 1.61397C92.1358 1.67708 91.9916 1.78527 91.8654 1.91149C91.7391 2.04672 91.64 2.20901 91.5678 2.39834C91.4957 2.58767 91.4596 2.81306 91.4596 3.06551V4.33673H91.1621V1.22629Z" fill="#E91D39"/>
<path d="M94.9116 4.40898C94.7042 4.40898 94.5149 4.37291 94.3256 4.29177C94.1362 4.21063 93.974 4.10244 93.8387 3.95819C93.6945 3.81393 93.5863 3.64263 93.5051 3.44429C93.424 3.24594 93.3789 3.02055 93.3789 2.77712C93.3789 2.54271 93.415 2.32633 93.4961 2.137C93.5773 1.94767 93.6764 1.76735 93.8116 1.6231C93.9469 1.47885 94.1002 1.36164 94.2805 1.27148C94.4608 1.19034 94.6501 1.14526 94.8665 1.14526C95.0829 1.14526 95.2812 1.19034 95.4615 1.27148C95.6328 1.35263 95.7861 1.46983 95.9123 1.61408C96.0386 1.75834 96.1287 1.92964 96.2008 2.12798C96.264 2.32633 96.3 2.54271 96.3 2.7681V2.83121C96.3 2.83121 96.3 2.86728 96.3 2.88531H93.7215C93.7305 3.08366 93.7756 3.25496 93.8477 3.39921C93.9198 3.55248 94.01 3.6787 94.1272 3.77787C94.2354 3.88606 94.3616 3.9672 94.5059 4.0213C94.6501 4.07539 94.7944 4.10244 94.9476 4.10244C95.1911 4.10244 95.3984 4.05736 95.5697 3.95819C95.741 3.86803 95.8853 3.75082 96.0205 3.60657L96.2279 3.78689C96.0656 3.95819 95.8853 4.10244 95.6869 4.21063C95.4886 4.31882 95.2361 4.38193 94.9386 4.38193L94.9116 4.40898ZM95.9934 2.60582C95.9844 2.44354 95.9484 2.29928 95.8943 2.15503C95.8402 2.01078 95.7681 1.88456 95.6779 1.76735C95.5878 1.65916 95.4706 1.56901 95.3353 1.49688C95.2001 1.43377 95.0468 1.39771 94.8665 1.39771C94.7132 1.39771 94.569 1.42475 94.4337 1.48786C94.2985 1.55097 94.1813 1.63212 94.0821 1.74031C93.9829 1.84849 93.9018 1.97472 93.8387 2.12798C93.7756 2.27224 93.7305 2.43452 93.7215 2.60582H95.9934Z" fill="#E91D39"/>
<path d="M96.4002 5.68872H47.2822V5.88707H96.4002V5.68872Z" fill="#E91D39"/>
</svg>
