<svg width="169" height="102" viewBox="0 0 169 102" fill="none" xmlns="http://www.w3.org/2000/svg">
    <g clip-path="url(#clip0_401_577)">
        <path
            d="M37.7026 91.7846C37.651 90.9656 37.5548 90.1521 37.4147 89.35C37.0274 86.6548 36.1724 84.1033 34.912 81.8809C33.6516 79.6585 32.0175 77.8211 30.1284 76.5024C29.0923 75.7976 27.9367 75.4241 26.7616 75.4142C25.5865 75.4043 24.4272 75.7583 23.3838 76.4455C22.4425 77.2671 21.5566 78.1872 20.7356 79.1961C19.9083 80.2167 18.8285 80.8416 17.6798 80.9645C16.9755 80.9231 16.2823 80.727 15.6307 80.3849C13.4068 79.5217 11.1421 78.8384 8.85031 78.3391C6.89331 77.7137 4.84961 77.6679 2.87647 78.205C2.16405 78.3845 1.52358 78.876 1.06679 79.5938C0.783958 80.1819 0.616101 80.8476 0.576987 81.5351C0.441744 82.2484 0.430716 82.9907 0.544683 83.71C0.65865 84.4293 0.894894 85.1083 1.23682 85.6994C1.80309 86.3484 2.49158 86.8002 3.23574 87.011C6.32471 88.4051 9.5176 89.3952 12.7646 89.9661C15.4629 90.0686 18.0938 91.0611 20.3994 92.8461C24.1025 95.7648 27.1406 98.3744 31.7163 98.5449C32.665 98.6996 33.629 98.5676 34.53 98.1596C35.431 97.7516 36.2435 97.0791 36.9015 96.1967C37.5798 94.9001 37.8674 93.3359 37.7115 91.7914"
            fill="#00758D" />
        <path
            d="M21.6047 48.2429C21.5932 48.0863 21.5624 47.9329 21.5134 47.7884C20.5479 45.0606 18.5542 42.7511 17.4689 40.0007C16.4479 37.4184 15.6809 34.6816 14.6813 32.0857C12.5923 27.5934 10.2339 23.3125 7.62728 19.2811C7.27121 18.5863 6.82161 17.9769 6.29889 17.4808C4.51082 15.9896 1.91082 17.8173 1.23851 20.4041C1.00032 21.7334 0.97482 23.11 1.16342 24.4522C1.35202 25.7943 1.7509 27.0745 2.33641 28.2167C4.54265 32.5872 7.23964 36.5242 10.3417 39.9029C11.6646 41.24 12.8362 42.8027 13.8231 44.5469C14.6754 46.9913 15.7043 49.3297 16.8968 51.5322C18.6455 53.8917 18.4541 49.891 20.3084 49.5137C20.6153 49.5162 20.9206 49.4572 21.2131 49.3386C21.3565 49.2253 21.4703 49.0606 21.5403 48.8653C21.6103 48.6699 21.6333 48.4526 21.6064 48.2407"
            fill="#00758D" />
        <path
            d="M31.3156 42.6374C31.4273 42.7982 31.5467 42.9501 31.6732 43.0921C32.6691 44.2286 34.8685 43.2489 35.5909 41.9555C36.062 40.826 36.1942 39.5173 35.9628 38.2731C35.5408 33.5041 35.117 28.7305 34.6914 23.9524C34.0298 16.4874 34.5501 8.75198 31.1652 2.13037C30.8169 1.56086 30.3755 1.09462 29.8711 0.763987C29.3668 0.433357 28.8117 0.246324 28.2448 0.215824C27.6778 0.185325 27.1124 0.312089 26.5879 0.587371C26.0634 0.862653 25.5925 1.27982 25.2076 1.80988C23.5751 3.84433 23.8021 7.21309 24.1937 10.0795C25.5043 19.3375 27.2501 28.4873 29.4219 37.4797C29.7652 39.3457 30.4121 41.0995 31.3209 42.6283"
            fill="#00758D" />
        <path
            d="M44.3598 41.7123C44.6805 42.2287 45.0782 42.6595 45.5301 42.9802C45.9821 43.3008 46.4793 43.5049 46.9934 43.5808C48.6027 43.6126 49.277 41.3395 49.5649 39.6892C50.7653 32.7819 51.755 25.8254 52.5346 18.8196C52.9721 15.5854 53.1376 12.3012 53.0282 9.02249C53.0179 7.75511 52.7428 6.514 52.2308 5.42641C51.8565 4.82124 51.3879 4.3209 50.8544 3.95673C50.3209 3.59257 49.7339 3.37243 49.1303 3.31013C48.0955 2.9903 47.0075 3.09531 46.0225 3.61016C44.3883 4.68307 44.8139 8.97477 44.9498 10.7887C45.1554 13.7256 44.9945 16.6238 45.1071 19.5675C45.3123 24.9453 44.9563 30.334 44.0485 35.593C43.6543 37.1476 43.5647 38.8011 43.7875 40.4098C43.9064 40.8899 44.1025 41.3334 44.3633 41.7123"
            fill="#00758D" />
        <path
            d="M56.3325 45.9676C56.3249 45.9882 56.3183 46.0094 56.3129 46.0312C56.2105 46.2735 56.1501 46.5409 56.1359 46.8154C56.1217 47.0899 56.154 47.3651 56.2306 47.6224C56.4342 47.9556 56.7201 48.1918 57.0424 48.2929C57.8332 48.7946 58.7484 48.8764 59.5867 48.5202C60.9922 47.6564 61.6181 44.1172 62.0418 42.4055C62.7237 39.6505 63.3436 36.8766 63.9015 34.0837C64.8216 30.5085 65.5321 26.8516 66.0275 23.1431C66.1152 22.4047 66.1152 21.6538 66.0275 20.9155C65.6573 18.5969 62.2563 15.3509 60.6292 17.849C60.2945 18.4945 60.1219 19.2538 60.1339 20.0266C59.7837 28.8495 58.5088 37.5734 56.3432 45.9676"
            fill="#00758D" />
        <path
            d="M56.304 50.6956C55.4619 50.3393 54.591 50.1045 53.7076 49.9955C53.0022 50.0113 52.2978 49.9174 51.6103 49.7159C51.1825 49.4955 50.7692 49.2317 50.3747 48.9272C48.6528 48.0021 46.8689 47.2762 45.0445 46.7586C44.2215 46.4881 43.437 46.0547 42.7199 45.4743C42.0047 44.7923 41.6364 43.524 41.032 42.6852C40.9906 42.6096 40.9376 42.5454 40.8762 42.4966C40.8147 42.4477 40.7461 42.4152 40.6745 42.401C40.4599 42.401 40.3168 42.667 40.2041 42.8988C39.3392 44.7251 37.976 46.0828 36.3741 46.7132C35.9381 46.8449 35.5111 47.0212 35.0975 47.2405C34.2392 47.7792 33.987 48.518 32.9034 48.352C32.6544 48.3278 32.417 48.2094 32.2213 48.0122C32.0257 47.8149 31.8808 47.5477 31.8055 47.245C31.7411 46.8472 31.8431 46.4267 31.7769 46.029C31.7182 45.7736 31.6075 45.5426 31.4558 45.3593C31.3042 45.1761 31.117 45.0471 30.9134 44.9856C30.5046 44.8722 30.0812 44.8722 29.6724 44.9856C28.501 45.2266 27.3641 45.6862 26.2983 46.3494C26.0962 46.4563 25.9163 46.6212 25.7727 46.8314C25.666 47.0984 25.6059 47.3917 25.5966 47.6911C25.5873 47.9904 25.6291 48.2888 25.719 48.5658C25.8596 49.1657 25.8914 49.7983 25.812 50.4161C25.7688 50.7234 25.662 51.0106 25.5027 51.2482C25.3435 51.4859 25.1372 51.6655 24.9053 51.7686C24.5203 51.8421 24.1275 51.8119 23.7522 51.6799C21.4134 51.2026 18.8331 53.2257 19.7074 56.5421C20.0003 57.6414 20.1585 58.7914 20.1761 59.9518C20.2095 60.441 20.1383 60.9326 19.9702 61.3747C19.5804 62.2249 18.6703 62.4 18.1071 63.0751C17.87 63.3926 17.695 63.7764 17.5959 64.1957C17.4968 64.6151 17.4765 65.058 17.5367 65.4891C17.6646 66.3505 17.9318 67.1687 18.3216 67.8918C18.6802 68.6825 19.1471 69.3853 19.7002 69.9671C20.401 70.6228 21.2513 70.9692 22.1213 70.9537C22.9913 70.9381 23.8333 70.5613 24.5192 69.8808C24.9108 69.4716 25.3113 68.9351 25.8138 68.9874C26.2006 69.0898 26.5429 69.374 26.7722 69.783C27.2197 70.589 27.8127 71.2469 28.5013 71.7015C29.2806 72.0953 30.0939 72.3701 30.9241 72.5199C31.5097 72.498 32.0944 72.5931 32.6568 72.8017C33.6152 73.3518 33.9173 74.9362 34.7738 75.7113C35.1314 76.0364 35.5676 76.1955 35.9396 76.4933C36.5036 77.1206 36.9434 77.9083 37.223 78.7922C37.5026 79.6761 37.6142 80.6314 37.5489 81.5805C37.5148 82.0442 37.5613 82.5117 37.6848 82.95C37.8084 83.3883 38.0062 83.7868 38.2641 84.1173C38.8085 84.4648 39.4158 84.6218 40.0236 84.572C40.7785 84.6776 41.4975 85.0378 42.1061 85.6153C42.7148 86.1928 43.1908 86.9667 43.4852 87.8567C43.7607 88.7568 43.8418 89.7342 43.7198 90.6876C43.5978 91.6409 43.2773 92.5354 42.7915 93.278C42.4524 93.7052 42.1426 94.1683 41.8654 94.6624C41.7297 94.9131 41.6548 95.2091 41.6504 95.5134C41.6459 95.8177 41.712 96.117 41.8403 96.374C42.2104 96.965 42.913 96.89 43.4852 97.0855C43.7978 97.193 44.0869 97.3908 44.3294 97.6637C44.572 97.9365 44.7617 98.277 44.8836 98.6585C45.0624 99.2359 45.125 99.9678 45.5559 100.277C46.4017 100.245 46.9721 99.195 47.3994 98.2584C48.293 96.6508 49.0602 94.9355 49.6899 93.1371C50.0315 91.8096 50.0476 90.2889 50.3605 88.9205C50.5108 88.1294 50.7391 87.3657 51.0399 86.6473C51.7105 85.3841 52.6598 84.4011 53.7685 83.8218C54.8414 83.1717 55.9804 82.6853 57.0013 81.9193C57.4336 81.6242 57.8087 81.2102 58.0992 80.7077C58.324 80.2233 58.4857 79.696 58.5783 79.1461C58.7858 78.1709 58.9933 77.198 59.1989 76.2228C59.4342 75.2326 59.6069 74.2201 59.7155 73.195C59.7151 71.4474 59.7987 69.7015 59.9659 67.9669C60.5176 65.9595 61.316 64.0759 62.3315 62.3863C63.2212 60.8015 63.5988 58.8432 63.3864 56.9149C63.0699 54.9851 62.5568 52.9301 61.028 52.2823C59.8801 51.8004 58.6839 51.6276 57.5162 51.1821C57.1157 51.0321 56.7169 50.8661 56.3164 50.7116"
            fill="#00758D" />
        <path
            d="M80.711 52.9802C79.1044 52.9871 77.5099 52.6275 76.0031 51.9186C74.4648 51.1773 73.052 50.0694 71.8405 48.6544L74.088 45.2447C75.0281 46.2999 76.0825 47.178 77.2189 47.852C78.3465 48.4752 79.5657 48.7851 80.7951 48.7612C81.7656 48.8267 82.7279 48.5023 83.5453 47.8338C83.8657 47.5652 84.1273 47.1976 84.3055 46.7654C84.4837 46.3333 84.5727 45.8507 84.5644 45.3629V45.2834C84.5702 44.8398 84.502 44.3998 84.3642 43.9922C84.1972 43.565 83.9464 43.1994 83.6363 42.9307C83.1856 42.5339 82.6925 42.2216 82.1719 42.0033C81.3798 41.6576 80.5719 41.3737 79.7526 41.1531C78.7234 40.8611 77.711 40.4814 76.7219 40.0166C75.9221 39.6519 75.1721 39.1304 74.4993 38.4709C73.9089 37.8802 73.4382 37.1187 73.1261 36.25C72.7927 35.2479 72.6317 34.1667 72.654 33.079V33.004C72.6424 31.9054 72.8259 30.8176 73.1905 29.8216C73.5435 28.8717 74.0519 28.0285 74.6817 27.3485C75.3571 26.6359 76.1324 26.0921 76.9668 25.7459C77.9055 25.3511 78.8892 25.1561 79.8779 25.1685C81.3102 25.1405 82.7352 25.4345 84.087 26.0369C85.3562 26.6329 86.5408 27.4865 87.5951 28.5646L85.5889 32.1584C84.6994 31.3176 83.7297 30.6233 82.703 30.0921C81.785 29.6247 80.8058 29.3826 79.817 29.3784C78.9078 29.3074 78.0068 29.6339 77.2637 30.3035C76.9816 30.5644 76.752 30.9062 76.5936 31.3012C76.4351 31.6962 76.3522 32.1332 76.3517 32.5766V32.6539C76.3457 33.1223 76.4177 33.5871 76.5628 34.0178C76.7383 34.4618 77.0075 34.8349 77.3405 35.0952C77.8254 35.4809 78.347 35.7864 78.8926 36.0045C79.556 36.2909 80.3946 36.5864 81.4067 36.8933C82.4165 37.2082 83.4087 37.6084 84.3767 38.0912C85.1579 38.4675 85.8833 39.0094 86.5223 39.6938C87.0749 40.2975 87.5168 41.0477 87.8168 41.8918C88.1249 42.8141 88.2761 43.8088 88.2603 44.8106V44.8856C88.2754 46.0563 88.0848 47.2164 87.7024 48.2816C87.3422 49.2684 86.8117 50.1394 86.1503 50.8298C85.4457 51.5578 84.6335 52.0988 83.7616 52.421C82.7656 52.7901 81.7325 52.9716 80.6951 52.9597"
            fill="#00758D" />
        <path
            d="M95.3894 25.564V52.5983H91.6827V25.564H95.3894ZM95.2338 16.9898L98.5775 18.8788L94.8708 23.3227H92.0099L95.2338 16.9898Z"
            fill="#00758D" />
        <path
            d="M99.8774 25.5618H115.673V29.8465H103.584V37.3024H114.313V41.5963H103.584V52.6005H99.8774V25.5618Z"
            fill="#00758D" />
        <path d="M148.513 25.5595H144.806V52.5937H148.513V25.5595Z" fill="#00758D" />
        <path
            d="M160.48 52.9801C158.874 52.9871 157.279 52.6276 155.773 51.9186C154.234 51.1776 152.821 50.0697 151.61 48.6544L153.857 45.2447C154.796 46.2995 155.85 47.1776 156.985 47.852C158.115 48.4759 159.338 48.7859 160.57 48.7612C161.54 48.8267 162.503 48.5022 163.32 47.8338C163.64 47.5645 163.901 47.1968 164.079 46.7648C164.257 46.3328 164.347 45.8506 164.339 45.3629V45.2833C164.345 44.8398 164.277 44.3997 164.139 43.9922C163.97 43.5651 163.718 43.1997 163.407 42.9306C162.958 42.535 162.466 42.2228 161.947 42.0032C161.154 41.6586 160.347 41.3747 159.527 41.1531C158.495 40.8615 157.48 40.4818 156.488 40.0165C155.688 39.6505 154.939 39.1291 154.265 38.4708C153.676 37.8792 153.206 37.1179 152.894 36.2499C152.561 35.2476 152.401 34.1665 152.423 33.0789V33.004C152.412 31.9055 152.596 30.8178 152.96 29.8215C153.313 28.871 153.822 28.0277 154.453 27.3484C155.127 26.6367 155.902 26.093 156.735 25.7458C157.674 25.3511 158.659 25.156 159.649 25.1685C161.081 25.1408 162.506 25.4348 163.858 26.0368C165.127 26.633 166.311 27.4867 167.364 28.5645L165.362 32.1583C164.472 31.3164 163.501 30.6221 162.472 30.0921C161.556 29.6243 160.578 29.3821 159.59 29.3783C158.681 29.3076 157.78 29.634 157.037 30.3034C156.755 30.5646 156.526 30.9066 156.368 31.3015C156.209 31.6965 156.127 32.1334 156.127 32.5766V32.6538C156.121 33.1222 156.193 33.5868 156.337 34.0177C156.512 34.4629 156.781 34.8364 157.115 35.0952C157.6 35.4816 158.122 35.7872 158.668 36.0044C159.327 36.2908 160.164 36.5864 161.181 36.8933C162.191 37.2083 163.183 37.6085 164.151 38.0912C164.932 38.4684 165.658 39.0102 166.297 39.6937C166.849 40.298 167.291 41.0481 167.592 41.8918C167.9 42.814 168.051 43.8088 168.035 44.8106V44.8855C168.05 46.0562 167.86 47.2165 167.477 48.2816C167.116 49.2674 166.585 50.138 165.925 50.8297C165.221 51.5577 164.408 52.0988 163.536 52.4209C162.54 52.79 161.507 52.9716 160.47 52.9597"
            fill="#00758D" />
        <path
            d="M130.711 48.3043V25.5595H127.006V48.3521L133.128 50.6638C133.012 51.3458 132.896 51.9822 132.771 52.5937H141.89V48.3043H130.711Z"
            fill="#00758D" />
        <path
            d="M119.927 50.1388C120.701 50.5047 121.424 50.8207 122.087 51.1139C122.234 51.1798 122.375 51.2367 122.511 51.2821V25.5594H118.804V49.6546C119.189 49.8069 119.562 49.9683 119.927 50.1365"
            fill="#00758D" />
        <path
            d="M167.109 70.5059C166.211 67.8282 164.907 65.4014 163.272 63.3638C161.596 61.2947 159.621 59.6588 157.455 58.547C155.127 57.3471 152.636 56.7452 150.124 56.7762C147.612 56.7453 145.121 57.3472 142.793 58.547C140.611 59.6696 138.62 61.3157 136.928 63.3956C135.268 65.4424 133.948 67.8909 133.044 70.5968C132.226 73.0284 131.761 75.6285 131.671 78.2709L127.004 64.2344C126.291 64.5548 125.538 64.7126 124.782 64.7004C123.908 64.6994 123.038 64.5519 122.194 64.2616C121.338 63.9752 120.524 63.6525 119.746 63.2888C118.969 62.9251 118.248 62.6068 117.585 62.3091C117.047 62.0506 116.48 61.904 115.906 61.8749C115.582 61.8408 115.256 61.8977 114.951 62.0414C114.647 62.1852 114.37 62.4124 114.143 62.7068C113.654 63.4526 113.257 64.2879 112.964 65.1845L104.532 90.5435V57.6491H95.198V80.6304L81.0973 57.6491H72.232V101.12H81.5657V77.2775L96.2083 101.132H110.981L113.424 93.3667H126.62L129.111 101.132H139.274L137.684 96.3582C139.178 97.9864 140.869 99.2973 142.691 100.241C145.019 101.439 147.51 102.04 150.022 102.009C152.534 102.04 155.025 101.439 157.353 100.241C159.533 99.1176 161.523 97.4732 163.215 95.3966C164.876 93.3479 166.197 90.897 167.102 88.1885C168.032 85.4107 168.505 82.4198 168.491 79.4006V79.2756C168.511 76.2625 168.04 73.2768 167.109 70.5059ZM116.217 84.0492L120.077 71.688L123.888 84.0492H116.217ZM158.825 79.5143C158.832 81.0421 158.615 82.5582 158.186 83.9855C157.785 85.3458 157.187 86.5987 156.423 87.6793C155.657 88.7507 154.723 89.6077 153.682 90.1957C152.557 90.8288 151.337 91.1466 150.106 91.1276C148.872 91.1464 147.651 90.8164 146.53 90.1616C145.48 89.5485 144.539 88.6735 143.76 87.5884C142.988 86.4975 142.382 85.2343 141.972 83.8628C141.546 82.4332 141.331 80.9159 141.337 79.387V79.262C141.331 77.7371 141.539 76.2229 141.951 74.7908C142.34 73.4224 142.939 72.1659 143.714 71.0946C144.489 70.0337 145.421 69.1791 146.458 68.5806C147.574 67.9435 148.787 67.6254 150.01 67.6486C151.243 67.6272 152.465 67.9564 153.586 68.6124C154.641 69.2305 155.59 70.1056 156.38 71.1879C157.167 72.2718 157.781 73.5383 158.19 74.9181C158.619 76.3452 158.836 77.8615 158.828 79.3893L158.825 79.5143Z"
            fill="#00758D" />
        <path
            d="M114.152 60.6724C114.379 60.3774 114.655 60.1499 114.96 60.0061C115.265 59.8623 115.591 59.8057 115.915 59.8404C116.488 59.8693 117.054 60.0143 117.592 60.27C118.256 60.561 118.977 60.8876 119.755 61.2498C120.534 61.6119 121.349 61.937 122.2 62.2249C123.043 62.5134 123.913 62.6594 124.787 62.6591C125.66 62.7184 126.531 62.5057 127.324 62.0394C128.118 61.5731 128.81 60.8674 129.34 59.9836C130.614 57.5377 131.467 54.7768 131.843 51.8822L126.666 50.0638C126.386 50.9648 126.002 51.8075 125.525 52.5641C125.298 52.8587 125.021 53.086 124.717 53.2297C124.412 53.3735 124.086 53.4303 123.763 53.3961C123.189 53.366 122.622 53.2187 122.085 52.9597C121.422 52.6733 120.703 52.3459 119.924 51.9868C119.144 51.6276 118.314 51.3048 117.449 51.007C116.613 50.7237 115.753 50.5778 114.888 50.5729C114.016 50.5148 113.145 50.728 112.352 51.1942C111.558 51.6604 110.866 52.3655 110.336 53.2483C109.062 55.6945 108.209 58.4553 107.832 61.3498L113.009 63.1683C113.292 62.2697 113.677 61.4288 114.152 60.6724Z"
            fill="#00758D" />
    </g>
    <defs>
        <clipPath id="clip0_401_577">
            <rect width="168" height="101.779" fill="white" transform="translate(0.5 0.220978)" />
        </clipPath>
    </defs>
</svg>