<svg width="152" height="48" viewBox="0 0 152 48" fill="none" xmlns="http://www.w3.org/2000/svg">
<g clip-path="url(#clip0_1498_11766)">
<path fill-rule="evenodd" clip-rule="evenodd" d="M44.4744 0H74.8607L68.9275 48H38.7769L44.4744 0Z" fill="#2D368D"/>
<path fill-rule="evenodd" clip-rule="evenodd" d="M73.3588 10.0171H54.1936L53.3495 17.3033H70.777L69.9577 24.3538H52.5303L50.9662 37.8216H39.8568L43.891 3.07837H74.1656L73.3588 10.0171Z" fill="white"/>
<path fill-rule="evenodd" clip-rule="evenodd" d="M35.5372 46.1753L36.3813 41.0612H38.628L38.5039 41.7812H36.8903L36.6544 43.2334H38.2556L38.1439 43.9286H36.5302L36.282 45.4305H37.8833L37.7715 46.1628H35.5248L35.5372 46.1753ZM31.4038 46.1753L32.2355 41.0612H33.3774C34.0105 41.0612 34.507 41.2598 34.8545 41.6446C35.2021 42.0294 35.3759 42.5756 35.3759 43.2831C35.3759 44.152 35.1524 44.8595 34.6932 45.3808C34.2339 45.9022 33.6381 46.1753 32.8933 46.1753H31.3913H31.4038ZM33.3899 41.7439H32.7568L32.1486 45.4926H32.9057C33.4519 45.4926 33.8988 45.294 34.2339 44.8967C34.5691 44.4995 34.7428 43.9906 34.7428 43.3452C34.7428 42.8238 34.6311 42.4266 34.3953 42.1535C34.1594 41.8805 33.8243 41.7439 33.3899 41.7439ZM30.2618 43.9906L29.9391 41.8432L28.9709 43.9906H30.2618ZM27.2827 46.1753L29.666 41.0612H30.3859L31.2673 46.1753H30.6094L30.3611 44.7106H28.6358L27.9655 46.1753H27.2704H27.2827ZM23.7079 46.1753L24.5396 41.0612H25.6815C26.3146 41.0612 26.8111 41.2598 27.1586 41.6446C27.5062 42.0294 27.68 42.5756 27.68 43.2831C27.68 44.152 27.4565 44.8595 26.9973 45.3808C26.5504 45.9022 25.9422 46.1753 25.185 46.1753H23.6831H23.7079ZM25.6815 41.7439H25.0485L24.4403 45.4926H25.1974C25.756 45.4926 26.1904 45.294 26.5256 44.8967C26.8607 44.4995 27.0345 43.9906 27.0345 43.3452C27.0345 42.8238 26.9228 42.4266 26.687 42.1535C26.4511 41.8805 26.116 41.7439 25.6815 41.7439ZM22.3177 46.1753L23.1618 41.0612H23.7948L22.9507 46.1753H22.3177ZM19.4007 44.5492H20.071C20.071 44.5492 20.071 44.5988 20.071 44.6237C20.071 44.6485 20.071 44.6733 20.071 44.6857C20.071 44.9712 20.1206 45.1947 20.2323 45.3436C20.344 45.4926 20.5054 45.567 20.7289 45.567C20.9399 45.567 21.1012 45.4926 21.2378 45.3312C21.3743 45.1698 21.4364 44.9836 21.4364 44.7354C21.4364 44.5616 21.3991 44.4251 21.3371 44.3134C21.275 44.2016 21.1261 44.0651 20.8902 43.9037C20.853 43.8789 20.8033 43.8417 20.7289 43.792C20.4434 43.6058 20.2448 43.432 20.1082 43.2831C20.0089 43.1714 19.9345 43.0348 19.8972 42.8859C19.8476 42.7369 19.8228 42.5756 19.8228 42.4018C19.8228 41.9922 19.9469 41.6446 20.1951 41.3715C20.4434 41.0985 20.7537 40.9619 21.1385 40.9619C21.5233 40.9619 21.784 41.0736 21.995 41.3095C22.206 41.5453 22.3053 41.868 22.3053 42.2777V42.377C22.3053 42.377 22.3053 42.4142 22.3053 42.439H21.6598C21.6598 42.439 21.6598 42.4142 21.6598 42.3894C21.6598 42.3645 21.6598 42.3521 21.6598 42.3397C21.6598 42.1287 21.6102 41.9549 21.5109 41.8308C21.4116 41.7067 21.275 41.6446 21.1012 41.6446C20.9275 41.6446 20.791 41.7191 20.6792 41.8556C20.5675 41.9922 20.5054 42.1535 20.5054 42.3397C20.5054 42.6128 20.7537 42.9107 21.2502 43.2459C21.3495 43.3203 21.424 43.37 21.486 43.4072C21.6846 43.5562 21.846 43.7299 21.9577 43.9658C22.0694 44.1892 22.1315 44.4375 22.1315 44.6981C22.1315 45.145 21.995 45.5298 21.7343 45.8277C21.4612 46.1256 21.1261 46.287 20.7289 46.287C20.3068 46.287 19.9717 46.1504 19.7483 45.8649C19.5249 45.5919 19.4131 45.1822 19.4131 44.6609V44.5368L19.4007 44.5492ZM15.6893 46.1753L16.5334 41.0612H17.6381C18.147 41.0612 18.5442 41.1978 18.8297 41.4584C19.1028 41.7191 19.2517 42.0915 19.2517 42.5756C19.2517 43.0597 19.1276 43.432 18.867 43.73C18.6063 44.0279 18.2587 44.2016 17.8243 44.2513L18.718 46.1628H18.0105L16.8437 43.6555H16.9554C17.5761 43.6555 17.9732 43.5934 18.1346 43.4693C18.2711 43.37 18.3828 43.2459 18.4573 43.0969C18.5318 42.9479 18.5691 42.7742 18.5691 42.6004C18.5691 42.3273 18.4946 42.1163 18.3332 41.9673C18.1843 41.8184 17.9608 41.7439 17.6753 41.7439C17.5884 41.7439 17.5016 41.7439 17.4023 41.7439C17.303 41.7439 17.1912 41.7563 17.0671 41.7687L16.3348 46.1504H15.7017L15.6893 46.1753ZM12.6606 46.1753L13.5046 41.0612H15.7513L15.6273 41.7812H14.0135L13.7778 43.2334H15.379L15.2672 43.9286H13.666L13.4178 45.4305H15.019L14.9073 46.1628H12.6606V46.1753ZM9.42089 41.0612H10.0663L10.6373 45.3312L12.5365 41.0612H13.2316L10.898 46.1753H10.1284L9.42089 41.0612ZM7.7327 46.1753L8.57683 41.0612H9.20982L8.36576 46.1753H7.7327ZM3.53727 46.1753L4.39368 41.0612H5.26258L6.49143 45.1574L7.17419 41.0612H7.80718L6.96312 46.1753H6.13149L4.86537 41.9549L4.17026 46.1753H3.53727ZM0.744409 41.0612H1.37739L0.868506 44.1892C0.843681 44.3133 0.831295 44.4251 0.818883 44.5368C0.818883 44.6485 0.806458 44.7478 0.806458 44.8347C0.806458 45.0581 0.868464 45.2319 0.980178 45.356C1.10431 45.4801 1.2657 45.5422 1.47672 45.5422C1.7498 45.5422 1.96081 45.4429 2.09735 45.2443C2.23389 45.0457 2.35806 44.6609 2.44495 44.0775L2.94141 41.0612H3.5869L3.07793 44.152C3.07793 44.152 3.07798 44.2265 3.05316 44.3009C2.95386 44.8843 2.8421 45.3064 2.70556 45.5794C2.59385 45.8153 2.42012 45.9891 2.2091 46.1008C1.99809 46.2249 1.73742 46.2746 1.43952 46.2746C1.05472 46.2746 0.744343 46.1504 0.520914 45.9146C0.297485 45.6787 0.185822 45.356 0.185822 44.9588C0.185822 44.8471 0.185834 44.723 0.198246 44.574C0.198246 44.4375 0.223045 44.2885 0.24787 44.1396L0.756758 41.0612H0.744409Z" fill="#2D368D"/>
<path fill-rule="evenodd" clip-rule="evenodd" d="M66.2339 46.1753L67.0779 41.0613H67.7234L67.0035 45.443H68.4558L68.3316 46.1753H66.2339ZM64.1238 43.9907L63.801 41.8433L62.8328 43.9907H64.1238ZM61.1447 46.1753L63.5279 41.0613H64.2603L65.1416 46.1753H64.4837L64.2354 44.7106H62.5101L61.8398 46.1753H61.1447ZM57.2223 46.1753L58.0664 41.0613H59.171C59.68 41.0613 60.0772 41.1978 60.3503 41.4585C60.6357 41.7192 60.7723 42.0915 60.7723 42.5756C60.7723 43.0597 60.6482 43.4321 60.3875 43.73C60.1269 44.0279 59.7793 44.2017 59.3448 44.2513L60.2386 46.1629H59.531L58.3643 43.6555H58.4759C59.0966 43.6555 59.4938 43.5935 59.6551 43.4694C59.7917 43.37 59.9034 43.2459 59.9779 43.097C60.0524 42.948 60.0896 42.7742 60.0896 42.6005C60.0896 42.3274 60.0152 42.1164 59.8538 41.9674C59.6924 41.8185 59.4814 41.744 59.1959 41.744C59.1214 41.744 59.0221 41.744 58.9228 41.744C58.8235 41.744 58.7118 41.7564 58.5877 41.7688L57.8553 46.1505H57.2223V46.1753ZM53.2502 46.1753L54.0943 41.0613H56.341L56.2168 41.7812H54.6032L54.3673 43.2335H55.9686L55.8569 43.9286H54.2556L54.0074 45.4306H55.6086L55.4969 46.1629H53.2502V46.1753ZM48.161 46.1753L49.005 41.0613H50.147C50.7801 41.0613 51.2766 41.2599 51.6242 41.6447C51.9717 42.0295 52.1579 42.5756 52.1579 43.2832C52.1579 44.152 51.9345 44.8596 51.4752 45.3809C51.0283 45.9022 50.4201 46.1753 49.6753 46.1753H48.1734H48.161ZM50.147 41.744H49.514L48.9058 45.4926H49.6753C50.2215 45.4926 50.6684 45.294 51.0035 44.8968C51.3387 44.4996 51.5124 43.9907 51.5124 43.3452C51.5124 42.8239 51.4007 42.4267 51.1649 42.1536C50.929 41.8805 50.5939 41.744 50.1595 41.744H50.147ZM44.2013 46.1753L45.0453 41.0613H47.2921L47.1679 41.7812H45.5543L45.3185 43.2335H46.9197L46.808 43.9286H45.2067L44.9585 45.4306H46.5597L46.448 46.1629H44.2013V46.1753ZM40.3285 46.1753L41.1726 41.0613H43.4193L43.2952 41.7812H41.6815L41.4457 43.2335H43.0469L42.9352 43.9286H41.3215L40.9492 46.1629H40.3161L40.3285 46.1753Z" fill="white"/>
<path fill-rule="evenodd" clip-rule="evenodd" d="M144.223 46.1753L145.067 41.0612H147.314L147.19 41.7812H145.576L145.34 43.2334H146.941L146.83 43.9286H145.228L144.98 45.4305H146.581L146.47 46.1628H144.223V46.1753ZM142.237 46.1753L142.957 41.7687H142.001L142.113 41.0612H144.62L144.496 41.7687H143.578L142.845 46.1753H142.212H142.237ZM138.042 46.1753L138.886 41.0612H139.99C140.499 41.0612 140.896 41.1978 141.169 41.4584C141.443 41.7191 141.592 42.0915 141.592 42.5756C141.592 43.0597 141.467 43.432 141.207 43.73C140.958 44.0279 140.598 44.2016 140.164 44.2513L141.058 46.1628H140.35L139.183 43.6555H139.295C139.916 43.6555 140.313 43.5934 140.474 43.4693C140.611 43.37 140.723 43.2459 140.797 43.0969C140.872 42.9479 140.909 42.7742 140.909 42.6004C140.909 42.3273 140.834 42.1163 140.673 41.9673C140.512 41.8184 140.301 41.7439 140.015 41.7439C139.941 41.7439 139.841 41.7439 139.742 41.7439C139.643 41.7439 139.531 41.7563 139.407 41.7687L138.675 46.1504H138.042V46.1753ZM133.474 43.9534C133.474 43.5065 133.536 43.0845 133.66 42.7121C133.784 42.3397 133.97 42.017 134.206 41.7439C134.429 41.4832 134.69 41.2971 134.976 41.1605C135.273 41.024 135.584 40.9619 135.931 40.9619C136.54 40.9619 137.011 41.1729 137.384 41.595C137.744 42.017 137.917 42.588 137.917 43.2955C137.917 43.6431 137.88 43.9658 137.806 44.2637C137.731 44.574 137.619 44.8471 137.471 45.0953C137.247 45.4677 136.974 45.7532 136.626 45.9642C136.279 46.1628 135.907 46.2746 135.497 46.2746C134.876 46.2746 134.392 46.0635 134.032 45.6415C133.672 45.2195 133.486 44.6485 133.486 43.941L133.474 43.9534ZM134.119 43.9286C134.119 44.4375 134.243 44.8471 134.492 45.1574C134.74 45.4677 135.087 45.6167 135.497 45.6167C136.018 45.6167 136.44 45.4057 136.763 44.9836C137.098 44.5616 137.26 44.0154 137.26 43.3327C137.26 42.8114 137.135 42.4018 136.887 42.0915C136.639 41.7936 136.304 41.6322 135.882 41.6322C135.373 41.6322 134.938 41.8432 134.616 42.2777C134.28 42.6997 134.119 43.2583 134.119 43.9286ZM129.055 46.1753L129.911 41.0612H130.78L132.009 45.1574L132.692 41.0612H133.325L132.481 46.1753H131.649L130.395 41.9549L129.688 46.1753H129.055ZM122.426 43.9534C122.426 43.5065 122.488 43.0845 122.613 42.7121C122.737 42.3397 122.91 42.017 123.159 41.7439C123.382 41.4832 123.643 41.2971 123.941 41.1605C124.226 41.024 124.549 40.9619 124.884 40.9619C125.492 40.9619 125.964 41.1729 126.324 41.595C126.684 42.017 126.87 42.588 126.87 43.2955C126.87 43.6431 126.833 43.9658 126.758 44.2637C126.684 44.574 126.572 44.8471 126.423 45.0953C126.2 45.4677 125.927 45.7532 125.579 45.9642C125.232 46.1628 124.859 46.2746 124.437 46.2746C123.829 46.2746 123.332 46.0635 122.972 45.6415C122.612 45.2195 122.426 44.6485 122.426 43.941V43.9534ZM123.072 43.9286C123.072 44.4375 123.196 44.8471 123.457 45.1574C123.705 45.4677 124.04 45.6167 124.462 45.6167C124.971 45.6167 125.393 45.4057 125.728 44.9836C126.063 44.5616 126.225 44.0154 126.225 43.3327C126.225 42.8114 126.1 42.4018 125.852 42.0915C125.604 41.7936 125.269 41.6322 124.847 41.6322C124.325 41.6322 123.916 41.8432 123.581 42.2777C123.258 42.6997 123.084 43.2583 123.084 43.9286H123.072ZM118.069 46.1753L118.901 41.0612H120.043C120.676 41.0612 121.173 41.2598 121.533 41.6446C121.88 42.0294 122.054 42.5756 122.054 43.2831C122.054 44.152 121.831 44.8595 121.371 45.3808C120.924 45.9022 120.316 46.1753 119.571 46.1753H118.069ZM120.043 41.7439H119.41L118.802 45.4926H119.571C120.118 45.4926 120.564 45.294 120.9 44.8967C121.235 44.4995 121.408 43.9906 121.408 43.3452C121.408 42.8238 121.297 42.4266 121.061 42.1535C120.837 41.8805 120.49 41.7439 120.055 41.7439H120.043ZM113.291 46.1753L114.135 41.0612H116.381L116.257 41.7812H114.643L114.408 43.2334H116.009L115.897 43.9286H114.296L114.048 45.4305H115.649L115.537 46.1628H113.303L113.291 46.1753ZM109.145 46.1753L109.976 41.0612H111.118C111.751 41.0612 112.248 41.2598 112.595 41.6446C112.943 42.0294 113.117 42.5756 113.117 43.2831C113.117 44.152 112.893 44.8595 112.434 45.3808C111.987 45.9022 111.379 46.1753 110.634 46.1753H109.132H109.145ZM111.118 41.7439H110.485L109.877 45.4926H110.647C111.193 45.4926 111.64 45.294 111.975 44.8967C112.31 44.4995 112.484 43.9906 112.484 43.3452C112.484 42.8238 112.372 42.4266 112.136 42.1535C111.9 41.8805 111.565 41.7439 111.131 41.7439H111.118ZM104.949 46.1753L105.806 41.0612H106.675L107.903 45.1574L108.586 41.0612H109.219L108.375 46.1753H107.543L106.29 41.9549L105.595 46.1753H104.962H104.949ZM103.72 43.9906L103.398 41.8432L102.429 43.9906H103.72ZM100.741 46.1753L103.125 41.0612H103.857L104.738 46.1753H104.08L103.832 44.7106H102.107L101.436 46.1753H100.741ZM97.7622 46.1753L98.6063 41.0612H99.711C100.22 41.0612 100.617 41.1978 100.903 41.4584C101.176 41.7191 101.325 42.0915 101.325 42.5756C101.325 43.0597 101.201 43.432 100.94 43.73C100.679 44.0279 100.332 44.2016 99.8848 44.2513L100.778 46.1628H100.071L98.9042 43.6555H99.0159C99.6366 43.6555 100.034 43.5934 100.195 43.4693C100.332 43.37 100.443 43.2459 100.518 43.0969C100.592 42.9479 100.63 42.7742 100.63 42.6004C100.63 42.3273 100.555 42.1163 100.394 41.9673C100.232 41.8184 100.009 41.7439 99.7359 41.7439C99.6614 41.7439 99.5621 41.7439 99.4628 41.7439C99.3635 41.7439 99.2517 41.7563 99.1276 41.7687L98.3953 46.1504H97.7622V46.1753ZM96.8437 44.3009H94.8576L94.9694 43.6679H97.6257C97.5388 44.4623 97.2905 45.0953 96.8437 45.5794C96.4092 46.0511 95.8631 46.287 95.2052 46.287C94.5473 46.287 94.088 46.076 93.7157 45.6415C93.3557 45.2195 93.1695 44.6361 93.1695 43.9037C93.1695 43.5065 93.2316 43.1217 93.3433 42.7742C93.455 42.4142 93.6287 42.1039 93.8522 41.8308C94.0756 41.5577 94.3363 41.3343 94.6342 41.1978C94.9321 41.0612 95.2424 40.9867 95.6024 40.9867C96.1362 40.9867 96.5706 41.1357 96.9057 41.4336C97.2409 41.7315 97.4767 42.1784 97.6008 42.7618H96.9182C96.8313 42.4018 96.6699 42.1287 96.4465 41.9425C96.223 41.7563 95.9376 41.657 95.6148 41.657C95.1059 41.657 94.6839 41.868 94.3487 42.3025C94.0136 42.7245 93.8398 43.2707 93.8398 43.9161C93.8398 44.4375 93.964 44.8595 94.2246 45.1698C94.4729 45.4801 94.8204 45.6415 95.23 45.6415C95.59 45.6415 95.9251 45.5174 96.2231 45.2815C96.521 45.0457 96.732 44.723 96.8561 44.3382L96.8437 44.3009ZM86.1687 43.9534C86.1687 43.5065 86.2308 43.0845 86.3549 42.7121C86.479 42.3397 86.6652 42.017 86.9011 41.7439C87.1245 41.4832 87.3852 41.2971 87.6831 41.1605C87.9686 41.024 88.2913 40.9619 88.6389 40.9619C89.2471 40.9619 89.7188 41.1729 90.0912 41.595C90.4511 42.017 90.6249 42.588 90.6249 43.2955C90.6249 43.6431 90.5876 43.9658 90.5132 44.2637C90.4387 44.574 90.327 44.8471 90.1781 45.0953C89.967 45.4677 89.6816 45.7532 89.334 45.9642C88.9865 46.1628 88.614 46.2746 88.2044 46.2746C87.5962 46.2746 87.0997 46.0635 86.7397 45.6415C86.3797 45.2195 86.1936 44.6485 86.1936 43.941L86.1687 43.9534ZM86.8142 43.9286C86.8142 44.4375 86.9383 44.8471 87.1866 45.1574C87.4348 45.4677 87.7699 45.6167 88.192 45.6167C88.7133 45.6167 89.1354 45.4057 89.4581 44.9836C89.7808 44.5616 89.9546 44.0154 89.9546 43.3327C89.9546 42.8114 89.8305 42.4018 89.5822 42.0915C89.3339 41.7936 88.9988 41.6322 88.5768 41.6322C88.0679 41.6322 87.6459 41.8432 87.3107 42.2777C86.988 42.6997 86.8142 43.2583 86.8142 43.9286ZM84.5551 46.1753L85.3991 41.0612H86.0322L85.1881 46.1753H84.5551ZM80.9554 46.1753L81.7995 41.0612H82.9041C83.4131 41.0612 83.8103 41.1978 84.0834 41.4584C84.3565 41.7191 84.5054 42.0915 84.5054 42.5756C84.5054 43.0597 84.3813 43.432 84.1206 43.73C83.86 44.0279 83.5124 44.2016 83.0779 44.2513L83.9593 46.1628H83.2517L82.0849 43.6555H82.1967C82.8173 43.6555 83.2145 43.5934 83.3758 43.4693C83.5124 43.37 83.6241 43.2459 83.6986 43.0969C83.7731 42.9479 83.8103 42.7742 83.8103 42.6004C83.8103 42.3273 83.7358 42.1163 83.5745 41.9673C83.4131 41.8184 83.2021 41.7439 82.9166 41.7439C82.8421 41.7439 82.7428 41.7439 82.6435 41.7439C82.5442 41.7439 82.4325 41.7563 82.3084 41.7687L81.5761 46.1504H80.943L80.9554 46.1753ZM74.6373 43.9534C74.6373 43.5065 74.6994 43.0845 74.8235 42.7121C74.9477 42.3397 75.1339 42.017 75.3697 41.7439C75.5931 41.4832 75.8538 41.2971 76.1393 41.1605C76.4248 41.024 76.7474 40.9619 77.095 40.9619C77.6908 40.9619 78.175 41.1729 78.5349 41.595C78.8949 42.017 79.0811 42.588 79.0811 43.2955C79.0811 43.6431 79.0438 43.9658 78.9693 44.2637C78.8949 44.574 78.7832 44.8471 78.6342 45.0953C78.4108 45.4677 78.1377 45.7532 77.7901 45.9642C77.4426 46.1628 77.0702 46.2746 76.6482 46.2746C76.0399 46.2746 75.5434 46.0635 75.1835 45.6415C74.8235 45.2195 74.6373 44.6485 74.6373 43.941V43.9534ZM75.2828 43.9286C75.2828 44.4375 75.4069 44.8471 75.6552 45.1574C75.9034 45.4677 76.2386 45.6167 76.6606 45.6167C77.1819 45.6167 77.604 45.4057 77.9267 44.9836C78.2494 44.5616 78.4232 44.0154 78.4232 43.3327C78.4232 42.8114 78.2991 42.4018 78.0508 42.0915C77.8026 41.7936 77.4674 41.6322 77.0454 41.6322C76.5365 41.6322 76.1144 41.8432 75.7793 42.2777C75.4441 42.6997 75.2828 43.2583 75.2828 43.9286ZM70.2804 46.1753L71.1121 41.0612H72.2541C72.8995 41.0612 73.3837 41.2598 73.7436 41.6446C74.0912 42.0294 74.2649 42.5756 74.2649 43.2831C74.2649 44.152 74.0415 44.8595 73.5823 45.3808C73.123 45.9022 72.5271 46.1753 71.77 46.1753H70.268H70.2804ZM72.2541 41.7439H71.621L71.0128 45.4926H71.77C72.3285 45.4926 72.763 45.294 73.0981 44.8967C73.4333 44.4995 73.607 43.9906 73.607 43.3452C73.607 42.8238 73.4829 42.4266 73.2595 42.1535C73.0237 41.8805 72.6885 41.7439 72.2541 41.7439Z" fill="#2D368D"/>
<path fill-rule="evenodd" clip-rule="evenodd" d="M97.0795 13.5547C97.2036 12.4375 96.7071 11.4817 95.59 10.6873C94.4604 9.89292 93.2316 9.4833 91.8662 9.4833H84.4434L83.4627 17.9364H90.9724C92.5736 17.9364 93.9639 17.5516 95.1307 16.782C96.2479 16.0124 96.9057 14.9325 97.0671 13.5423L97.0795 13.5547ZM106.401 37.8091H94.5101L94.8328 27.8045C94.7459 27.1466 94.5225 26.5011 94.1749 25.9177C93.7901 25.3716 93.2191 24.8875 92.4619 24.453C91.3448 24.453 89.4953 24.4158 86.9011 24.3537C84.2944 24.2793 82.9166 24.2544 82.7304 24.2544L81.154 37.8215H70.057L74.0911 3.07833H97.0919C100.22 3.07833 102.938 3.81068 105.235 5.27538C107.953 7.01316 109.145 9.35917 108.797 12.3134C108.561 14.3367 107.606 16.0993 105.942 17.5888C104.428 18.9418 102.504 19.91 100.183 20.5058L100.133 20.9278C101.014 21.0271 101.896 21.2257 102.764 21.5485C105.47 22.5539 106.066 24.2544 106.339 27.1342L106.401 36.9775L110.336 3.07833H126.138L138.55 26.0791L141.219 3.07833H151.596L147.562 37.8215H132.481L119.41 14.287L116.679 37.8215H106.401V37.8091ZM41.8429 22.4298C41.2223 27.7424 39.4968 31.6524 36.6667 34.1598C33.2781 37.1637 27.9654 38.6532 20.6916 38.6532C13.4177 38.6532 8.29126 37.3002 5.57287 34.5818C3.07791 32.0745 2.1594 28.0279 2.80486 22.4298L5.05156 3.06592H16.161L13.9143 22.4298C13.5667 25.4212 14.026 27.7797 15.2921 29.4802C16.5582 31.1807 18.4697 32.0248 21.0019 32.0248C23.5341 32.0248 25.5077 31.2925 27.2082 29.8402C29.1819 28.1396 30.3487 25.6695 30.7335 22.4298L32.9802 3.06592H44.0772L41.8305 22.4298H41.8429Z" fill="#1D9CD8"/>
</g>
<defs>
<clipPath id="clip0_1498_11766">
<rect width="151.41" height="48" fill="white" transform="translate(0.185822)"/>
</clipPath>
</defs>
</svg>
